  0
SECTION
  2
HEADER
  9
$ACADVER
  1
AC1014
  9
$HANDSEED
  5
FFFF
  9
$MEASUREMENT
 70
     1
  0
ENDSEC
  0
SECTION
  2
TABLES
  0
TABLE
  2
VPORT
  5
8
330
0
100
AcDbSymbolTable
 70
     4
  0
VPORT
  5
2E
330
8
100
AcDbSymbolTableRecord
100
AcDbViewportTableRecord
  2
*ACTIVE
 70
     0
 10
0.0
 20
0.0
 11
1.0
 21
1.0
 12
210.0
 22
148.5
 13
0.0
 23
0.0
 14
10.0
 24
10.0
 15
10.0
 25
10.0
 16
0.0
 26
0.0
 36
1.0
 17
0.0
 27
0.0
 37
0.0
 40
341.0
 41
1.24
 42
50.0
 43
0.0
 44
0.0
 50
0.0
 51
0.0
 71
     0
 72
   100
 73
     1
 74
     3
 75
     0
 76
     0
 77
     0
 78
     0
  0
ENDTAB
  0
TABLE
  2
LTYPE
  5
5
330
0
100
AcDbSymbolTable
 70
     1
  0
LTYPE
  5
14
330
5
100
AcDbSymbolTableRecord
100
AcDbLinetypeTableRecord
  2
BYBLOCK
 70
     0
  3

 72
    65
 73
     0
 40
0.0
  0
LTYPE
  5
15
330
5
100
AcDbSymbolTableRecord
100
AcDbLinetypeTableRecord
  2
BYLAYER
 70
     0
  3

 72
    65
 73
     0
 40
0.0
  0
LTYPE
  5
16
330
5
100
AcDbSymbolTableRecord
100
AcDbLinetypeTableRecord
  2
CONTINUOUS
 70
     0
  3
Solid line
 72
    65
 73
     0
 40
0.0
  0
ENDTAB
  0
TABLE
  2
LAYER
  5
2
100
AcDbSymbolTable
 70
2
  0
LAYER
  5
50
100
AcDbSymbolTableRecord
100
AcDbLayerTableRecord
  2
0
 70
0
  6
CONTINUOUS
  0
LAYER
  5
51
100
AcDbSymbolTableRecord
100
AcDbLayerTableRecord
  2
outline
 70
0
  6
CONTINUOUS
  0
ENDTAB
  0
TABLE
  2
STYLE
  5
3
330
0
100
AcDbSymbolTable
 70
     1
  0
STYLE
  5
11
330
3
100
AcDbSymbolTableRecord
100
AcDbTextStyleTableRecord
  2
STANDARD
 70
     0
 40
0.0
 41
1.0
 50
0.0
 71
     0
 42
2.5
  3
txt
  4

  0
ENDTAB
  0
TABLE
  2
VIEW
  5
6
330
0
100
AcDbSymbolTable
 70
     0
  0
ENDTAB
  0
TABLE
  2
UCS
  5
7
330
0
100
AcDbSymbolTable
 70
     0
  0
ENDTAB
  0
TABLE
  2
APPID
  5
9
330
0
100
AcDbSymbolTable
 70
     2
  0
APPID
  5
12
330
9
100
AcDbSymbolTableRecord
100
AcDbRegAppTableRecord
  2
ACAD
 70
     0
  0
ENDTAB
  0
TABLE
  2
DIMSTYLE
  5
A
330
0
100
AcDbSymbolTable
 70
     1
  0
DIMSTYLE
105
27
330
A
100
AcDbSymbolTableRecord
100
AcDbDimStyleTableRecord
  2
ISO-25
 70
     0
  3

  4

  5

  6

  7

 40
1.0
 41
2.5
 42
0.625
 43
3.75
 44
1.25
 45
0.0
 46
0.0
 47
0.0
 48
0.0
140
2.5
141
2.5
142
0.0
143
0.03937007874016
144
1.0
145
0.0
146
1.0
147
0.625
 71
     0
 72
     0
 73
     0
 74
     0
 75
     0
 76
     0
 77
     1
 78
     8
170
     0
171
     3
172
     1
173
     0
174
     0
175
     0
176
     0
177
     0
178
     0
270
     2
271
     2
272
     2
273
     2
274
     3
340
11
275
     0
280
     0
281
     0
282
     0
283
     0
284
     8
285
     0
286
     0
287
     3
288
     0
  0
ENDTAB
  0
TABLE
  2
BLOCK_RECORD
  5
1
330
0
100
AcDbSymbolTable
 70
     1
  0
BLOCK_RECORD
  5
1F
330
1
100
AcDbSymbolTableRecord
100
AcDbBlockTableRecord
  2
*MODEL_SPACE
  0
BLOCK_RECORD
  5
1B
330
1
100
AcDbSymbolTableRecord
100
AcDbBlockTableRecord
  2
*PAPER_SPACE
  0
ENDTAB
  0
ENDSEC
  0
SECTION
  2
BLOCKS
  0
BLOCK
  5
20
330
1F
100
AcDbEntity
  8
0
100
AcDbBlockBegin
  2
*MODEL_SPACE
 70
     0
 10
0.0
 20
0.0
 30
0.0
  3
*MODEL_SPACE
  1

  0
ENDBLK
  5
21
330
1F
100
AcDbEntity
  8
0
100
AcDbBlockEnd
  0
BLOCK
  5
1C
330
1B
100
AcDbEntity
 67
     1
  8
0
100
AcDbBlockBegin
  2
*PAPER_SPACE
  1

  0
ENDBLK
  5
1D
330
1B
100
AcDbEntity
 67
     1
  8
0
100
AcDbBlockEnd
  0
ENDSEC
  0
SECTION
  2
ENTITIES
  0
LWPOLYLINE
  5
100
100
AcDbEntity
  8
outline
 62
5
100
AcDbPolyline
 90
18
 70
0
 10
27.224566
 20
18.113028
 30
0.0
 10
27.010783
 20
19.067998
 30
0.0
 10
26.715860
 20
20.002153
 30
0.0
 10
26.339799
 20
20.909145
 30
0.0
 10
25.887891
 20
21.778389
 30
0.0
 10
25.362958
 20
22.603889
 30
0.0
 10
24.764647
 20
23.381059
 30
0.0
 10
24.104599
 20
24.104606
 30
0.0
 10
23.381052
 20
24.764653
 30
0.0
 10
22.603883
 20
25.362964
 30
0.0
 10
21.778383
 20
25.887897
 30
0.0
 10
20.909138
 20
26.339806
 30
0.0
 10
20.002147
 20
26.715867
 30
0.0
 10
19.067991
 20
27.010789
 30
0.0
 10
18.113022
 20
27.224572
 30
0.0
 10
17.140061
 20
27.351220
 30
0.0
 10
17.140061
 20
29.993172
 30
0.0
 10
18.113022
 20
30.119820
 30
0.0
  0
LWPOLYLINE
  5
101
100
AcDbEntity
  8
outline
 62
5
100
AcDbPolyline
 90
54
 70
0
 10
14.211652
 20
27.224572
 30
0.0
 10
13.256683
 20
27.010789
 30
0.0
 10
12.322527
 20
26.715867
 30
0.0
 10
11.415536
 20
26.339806
 30
0.0
 10
10.546291
 20
25.887897
 30
0.0
 10
9.720791
 20
25.362964
 30
0.0
 10
8.943622
 20
24.764653
 30
0.0
 10
8.220075
 20
24.104606
 30
0.0
 10
7.560028
 20
23.381059
 30
0.0
 10
6.961716
 20
22.603889
 30
0.0
 10
6.436783
 20
21.778389
 30
0.0
 10
5.984875
 20
20.909145
 30
0.0
 10
5.608461
 20
20.002153
 30
0.0
 10
5.313539
 20
19.067998
 30
0.0
 10
5.100108
 20
18.113028
 30
0.0
 10
4.973461
 20
17.140067
 30
0.0
 10
4.930775
 20
16.162873
 30
0.0
 10
4.973461
 20
15.184620
 30
0.0
 10
5.100108
 20
14.211659
 30
0.0
 10
5.313539
 20
13.256689
 30
0.0
 10
5.608461
 20
12.322534
 30
0.0
 10
5.984875
 20
11.415542
 30
0.0
 10
6.436783
 20
10.546298
 30
0.0
 10
6.961716
 20
9.720798
 30
0.0
 10
7.560028
 20
8.943628
 30
0.0
 10
8.220075
 20
8.220081
 30
0.0
 10
8.943622
 20
7.560034
 30
0.0
 10
9.720791
 20
6.961723
 30
0.0
 10
10.546291
 20
6.436790
 30
0.0
 10
11.415536
 20
5.984881
 30
0.0
 10
12.322527
 20
5.608467
 30
0.0
 10
13.256683
 20
5.313545
 30
0.0
 10
14.211652
 20
5.100115
 30
0.0
 10
15.184614
 20
4.973467
 30
0.0
 10
16.162866
 20
4.930781
 30
0.0
 10
17.140061
 20
4.973467
 30
0.0
 10
18.113022
 20
5.100115
 30
0.0
 10
19.067991
 20
5.313545
 30
0.0
 10
20.002147
 20
5.608467
 30
0.0
 10
20.909138
 20
5.984881
 30
0.0
 10
21.778383
 20
6.436790
 30
0.0
 10
22.603883
 20
6.961723
 30
0.0
 10
23.381052
 20
7.560034
 30
0.0
 10
24.104599
 20
8.220081
 30
0.0
 10
24.764647
 20
8.943628
 30
0.0
 10
25.362958
 20
9.720798
 30
0.0
 10
25.887891
 20
10.546298
 30
0.0
 10
26.339799
 20
11.415542
 30
0.0
 10
26.715860
 20
12.322534
 30
0.0
 10
27.010783
 20
13.256689
 30
0.0
 10
27.224566
 20
14.211659
 30
0.0
 10
27.351213
 20
15.184620
 30
0.0
 10
29.993166
 20
15.184620
 30
0.0
 10
30.119813
 20
14.211659
 30
0.0
  0
LWPOLYLINE
  5
102
100
AcDbEntity
  8
outline
 62
5
100
AcDbPolyline
 90
38
 70
0
 10
82.697459
 20
91.791018
 30
0.0
 10
82.672765
 20
92.327240
 30
0.0
 10
82.603620
 20
92.857818
 30
0.0
 10
82.486498
 20
93.381340
 30
0.0
 10
82.326690
 20
93.893926
 30
0.0
 10
82.121373
 20
94.388874
 30
0.0
 10
81.871959
 20
94.864065
 30
0.0
 10
81.585504
 20
95.316326
 30
0.0
 10
81.260242
 20
95.740718
 30
0.0
 10
80.896176
 20
96.137593
 30
0.0
 10
80.500712
 20
96.499896
 30
0.0
 10
80.076320
 20
96.825157
 30
0.0
 10
79.624412
 20
97.111612
 30
0.0
 10
79.148867
 20
97.361026
 30
0.0
 10
78.654273
 20
97.566343
 30
0.0
 10
78.140276
 20
97.726504
 30
0.0
 10
77.618165
 20
97.843626
 30
0.0
 10
77.087587
 20
97.912418
 30
0.0
 10
76.551365
 20
97.937112
 30
0.0
 10
76.015495
 20
97.912418
 30
0.0
 10
75.483506
 20
97.843626
 30
0.0
 10
74.961043
 20
97.726504
 30
0.0
 10
74.447045
 20
97.566343
 30
0.0
 10
73.952451
 20
97.361026
 30
0.0
 10
73.476906
 20
97.111612
 30
0.0
 10
73.024998
 20
96.825157
 30
0.0
 10
72.600607
 20
96.499896
 30
0.0
 10
72.205143
 20
96.137593
 30
0.0
 10
71.841429
 20
95.740718
 30
0.0
 10
71.516168
 20
95.316326
 30
0.0
 10
71.229359
 20
94.864065
 30
0.0
 10
70.981357
 20
94.388874
 30
0.0
 10
70.774629
 20
93.893926
 30
0.0
 10
70.614820
 20
93.381340
 30
0.0
 10
70.497698
 20
92.857818
 30
0.0
 10
70.430318
 20
92.327240
 30
0.0
 10
67.432765
 20
92.327240
 30
0.0
 10
67.363973
 20
92.857818
 30
0.0
  0
LWPOLYLINE
  5
103
100
AcDbEntity
  8
outline
 62
5
100
AcDbPolyline
 90
18
 70
0
 10
70.497698
 20
90.724571
 30
0.0
 10
70.614820
 20
90.201049
 30
0.0
 10
70.774629
 20
89.688110
 30
0.0
 10
70.981357
 20
89.192104
 30
0.0
 10
71.229359
 20
88.717971
 30
0.0
 10
71.516168
 20
88.264651
 30
0.0
 10
71.841429
 20
87.841671
 30
0.0
 10
72.205143
 20
87.444796
 30
0.0
 10
72.600607
 20
87.082493
 30
0.0
 10
73.024998
 20
86.757232
 30
0.0
 10
73.476906
 20
86.469013
 30
0.0
 10
73.952451
 20
86.221010
 30
0.0
 10
74.447045
 20
86.014282
 30
0.0
 10
74.961043
 20
85.854474
 30
0.0
 10
75.483506
 20
85.737352
 30
0.0
 10
76.015495
 20
85.669971
 30
0.0
 10
76.015495
 20
82.672771
 30
0.0
 10
75.483506
 20
82.603627
 30
0.0
  0
LWPOLYLINE
  5
104
100
AcDbEntity
  8
outline
 62
5
100
AcDbPolyline
 90
17
 70
0
 10
77.618165
 20
85.737352
 30
0.0
 10
78.140276
 20
85.854474
 30
0.0
 10
78.654273
 20
86.014282
 30
0.0
 10
79.148867
 20
86.221010
 30
0.0
 10
79.624412
 20
86.469013
 30
0.0
 10
80.076320
 20
86.757232
 30
0.0
 10
80.500712
 20
87.082493
 30
0.0
 10
80.896176
 20
87.444796
 30
0.0
 10
81.260242
 20
87.841671
 30
0.0
 10
81.585504
 20
88.264651
 30
0.0
 10
81.871959
 20
88.717971
 30
0.0
 10
82.121373
 20
89.192104
 30
0.0
 10
82.326690
 20
89.688110
 30
0.0
 10
82.486498
 20
90.201049
 30
0.0
 10
82.603620
 20
90.724571
 30
0.0
 10
82.672765
 20
91.255149
 30
0.0
 10
82.697459
 20
91.791018
 30
0.0
  0
LWPOLYLINE
  5
105
100
AcDbEntity
  8
outline
 62
5
100
AcDbPolyline
 90
36
 70
0
 10
67.363973
 20
92.857818
 30
0.0
 10
67.246851
 20
93.381340
 30
0.0
 10
67.087043
 20
93.893926
 30
0.0
 10
66.881726
 20
94.388874
 30
0.0
 10
66.632312
 20
94.864065
 30
0.0
 10
66.345504
 20
95.316326
 30
0.0
 10
66.020596
 20
95.740718
 30
0.0
 10
65.656529
 20
96.137593
 30
0.0
 10
65.261065
 20
96.499896
 30
0.0
 10
64.836673
 20
96.825157
 30
0.0
 10
64.384765
 20
97.111612
 30
0.0
 10
63.909221
 20
97.361026
 30
0.0
 10
63.414626
 20
97.566343
 30
0.0
 10
62.900629
 20
97.726504
 30
0.0
 10
62.378165
 20
97.843626
 30
0.0
 10
61.846176
 20
97.912418
 30
0.0
 10
61.310307
 20
97.937112
 30
0.0
 10
60.775496
 20
97.912418
 30
0.0
 10
60.243860
 20
97.843626
 30
0.0
 10
59.721396
 20
97.726504
 30
0.0
 10
59.207399
 20
97.566343
 30
0.0
 10
58.712804
 20
97.361026
 30
0.0
 10
58.237260
 20
97.111612
 30
0.0
 10
57.785351
 20
96.825157
 30
0.0
 10
57.360960
 20
96.499896
 30
0.0
 10
56.965496
 20
96.137593
 30
0.0
 10
56.601429
 20
95.740718
 30
0.0
 10
56.276168
 20
95.316326
 30
0.0
 10
55.989712
 20
94.864065
 30
0.0
 10
55.740299
 20
94.388874
 30
0.0
 10
55.534982
 20
93.893926
 30
0.0
 10
55.375174
 20
93.381340
 30
0.0
 10
55.258051
 20
92.857818
 30
0.0
 10
55.188907
 20
92.327240
 30
0.0
 10
52.369507
 20
92.197771
 30
0.0
 10
52.242860
 20
93.170379
 30
0.0
  0
LWPOLYLINE
  5
106
100
AcDbEntity
  8
outline
 62
5
100
AcDbPolyline
 90
17
 70
0
 10
55.375174
 20
90.201049
 30
0.0
 10
55.534982
 20
89.688110
 30
0.0
 10
55.740299
 20
89.192104
 30
0.0
 10
55.989712
 20
88.717971
 30
0.0
 10
56.276168
 20
88.264651
 30
0.0
 10
56.601429
 20
87.841671
 30
0.0
 10
56.965496
 20
87.444796
 30
0.0
 10
57.360960
 20
87.082493
 30
0.0
 10
57.785351
 20
86.757232
 30
0.0
 10
58.237260
 20
86.469013
 30
0.0
 10
58.712804
 20
86.221010
 30
0.0
 10
59.207399
 20
86.014282
 30
0.0
 10
59.721396
 20
85.854474
 30
0.0
 10
60.243860
 20
85.737352
 30
0.0
 10
60.775496
 20
85.669971
 30
0.0
 10
60.775496
 20
82.672771
 30
0.0
 10
60.243860
 20
82.603627
 30
0.0
  0
LWPOLYLINE
  5
107
100
AcDbEntity
  8
outline
 62
5
100
AcDbPolyline
 90
18
 70
0
 10
62.378165
 20
85.737352
 30
0.0
 10
62.900629
 20
85.854474
 30
0.0
 10
63.414626
 20
86.014282
 30
0.0
 10
63.909221
 20
86.221010
 30
0.0
 10
64.384765
 20
86.469013
 30
0.0
 10
64.836673
 20
86.757232
 30
0.0
 10
65.261065
 20
87.082493
 30
0.0
 10
65.656529
 20
87.444796
 30
0.0
 10
66.020596
 20
87.841671
 30
0.0
 10
66.345504
 20
88.264651
 30
0.0
 10
66.632312
 20
88.717971
 30
0.0
 10
66.881726
 20
89.192104
 30
0.0
 10
67.087043
 20
89.688110
 30
0.0
 10
67.246851
 20
90.201049
 30
0.0
 10
67.363973
 20
90.724571
 30
0.0
 10
67.432765
 20
91.255149
 30
0.0
 10
70.430318
 20
91.255149
 30
0.0
 10
70.497698
 20
90.724571
 30
0.0
  0
LWPOLYLINE
  5
108
100
AcDbEntity
  8
outline
 62
5
100
AcDbPolyline
 90
38
 70
0
 10
97.937106
 20
76.551371
 30
0.0
 10
97.912411
 20
77.087593
 30
0.0
 10
97.843620
 20
77.618171
 30
0.0
 10
97.726498
 20
78.140282
 30
0.0
 10
97.566336
 20
78.654279
 30
0.0
 10
97.361020
 20
79.148874
 30
0.0
 10
97.111606
 20
79.624418
 30
0.0
 10
96.825150
 20
80.076327
 30
0.0
 10
96.499889
 20
80.500718
 30
0.0
 10
96.137586
 20
80.896182
 30
0.0
 10
95.740711
 20
81.260249
 30
0.0
 10
95.316320
 20
81.585510
 30
0.0
 10
94.864059
 20
81.871966
 30
0.0
 10
94.388867
 20
82.121379
 30
0.0
 10
93.893920
 20
82.326696
 30
0.0
 10
93.381334
 20
82.486504
 30
0.0
 10
92.857812
 20
82.603627
 30
0.0
 10
92.327234
 20
82.672771
 30
0.0
 10
91.791012
 20
82.697465
 30
0.0
 10
91.255142
 20
82.672771
 30
0.0
 10
90.724564
 20
82.603627
 30
0.0
 10
90.201042
 20
82.486504
 30
0.0
 10
89.688103
 20
82.326696
 30
0.0
 10
89.192098
 20
82.121379
 30
0.0
 10
88.717964
 20
81.871966
 30
0.0
 10
88.264645
 20
81.585510
 30
0.0
 10
87.841664
 20
81.260249
 30
0.0
 10
87.444789
 20
80.896182
 30
0.0
 10
87.082487
 20
80.500718
 30
0.0
 10
86.757226
 20
80.076327
 30
0.0
 10
86.469006
 20
79.624418
 30
0.0
 10
86.221003
 20
79.148874
 30
0.0
 10
86.014276
 20
78.654279
 30
0.0
 10
85.854467
 20
78.140282
 30
0.0
 10
85.737345
 20
77.618171
 30
0.0
 10
85.669965
 20
77.087593
 30
0.0
 10
82.672765
 20
77.087593
 30
0.0
 10
82.603620
 20
77.618171
 30
0.0
  0
LWPOLYLINE
  5
109
100
AcDbEntity
  8
outline
 62
5
100
AcDbPolyline
 90
18
 70
0
 10
85.737345
 20
75.483513
 30
0.0
 10
85.854467
 20
74.961049
 30
0.0
 10
86.014276
 20
74.447052
 30
0.0
 10
86.221003
 20
73.952457
 30
0.0
 10
86.469006
 20
73.476913
 30
0.0
 10
86.757226
 20
73.025005
 30
0.0
 10
87.082487
 20
72.600613
 30
0.0
 10
87.444789
 20
72.205149
 30
0.0
 10
87.841664
 20
71.841435
 30
0.0
 10
88.264645
 20
71.516174
 30
0.0
 10
88.717964
 20
71.229366
 30
0.0
 10
89.192098
 20
70.981363
 30
0.0
 10
89.688103
 20
70.774635
 30
0.0
 10
90.201042
 20
70.614827
 30
0.0
 10
90.724564
 20
70.497705
 30
0.0
 10
91.255142
 20
70.430324
 30
0.0
 10
91.255142
 20
67.432771
 30
0.0
 10
90.724564
 20
67.363980
 30
0.0
  0
LWPOLYLINE
  5
10a
100
AcDbEntity
  8
outline
 62
5
100
AcDbPolyline
 90
17
 70
0
 10
92.857812
 20
70.497705
 30
0.0
 10
93.381334
 20
70.614827
 30
0.0
 10
93.893920
 20
70.774635
 30
0.0
 10
94.388867
 20
70.981363
 30
0.0
 10
94.864059
 20
71.229366
 30
0.0
 10
95.316320
 20
71.516174
 30
0.0
 10
95.740711
 20
71.841435
 30
0.0
 10
96.137586
 20
72.205149
 30
0.0
 10
96.499889
 20
72.600613
 30
0.0
 10
96.825150
 20
73.025005
 30
0.0
 10
97.111606
 20
73.476913
 30
0.0
 10
97.361020
 20
73.952457
 30
0.0
 10
97.566336
 20
74.447052
 30
0.0
 10
97.726498
 20
74.961049
 30
0.0
 10
97.843620
 20
75.483513
 30
0.0
 10
97.912411
 20
76.015502
 30
0.0
 10
97.937106
 20
76.551371
 30
0.0
  0
LWPOLYLINE
  5
10b
100
AcDbEntity
  8
outline
 62
5
100
AcDbPolyline
 90
18
 70
0
 10
82.603620
 20
77.618171
 30
0.0
 10
82.486498
 20
78.140282
 30
0.0
 10
82.326690
 20
78.654279
 30
0.0
 10
82.121373
 20
79.148874
 30
0.0
 10
81.871959
 20
79.624418
 30
0.0
 10
81.585504
 20
80.076327
 30
0.0
 10
81.260242
 20
80.500718
 30
0.0
 10
80.896176
 20
80.896182
 30
0.0
 10
80.500712
 20
81.260249
 30
0.0
 10
80.076320
 20
81.585510
 30
0.0
 10
79.624412
 20
81.871966
 30
0.0
 10
79.148867
 20
82.121379
 30
0.0
 10
78.654273
 20
82.326696
 30
0.0
 10
78.140276
 20
82.486504
 30
0.0
 10
77.618165
 20
82.603627
 30
0.0
 10
77.087587
 20
82.672771
 30
0.0
 10
77.087587
 20
85.669971
 30
0.0
 10
77.618165
 20
85.737352
 30
0.0
  0
LWPOLYLINE
  5
10c
100
AcDbEntity
  8
outline
 62
5
100
AcDbPolyline
 90
18
 70
0
 10
75.483506
 20
82.603627
 30
0.0
 10
74.961043
 20
82.486504
 30
0.0
 10
74.447045
 20
82.326696
 30
0.0
 10
73.952451
 20
82.121379
 30
0.0
 10
73.476906
 20
81.871966
 30
0.0
 10
73.024998
 20
81.585510
 30
0.0
 10
72.600607
 20
81.260249
 30
0.0
 10
72.205143
 20
80.896182
 30
0.0
 10
71.841429
 20
80.500718
 30
0.0
 10
71.516168
 20
80.076327
 30
0.0
 10
71.229359
 20
79.624418
 30
0.0
 10
70.981357
 20
79.148874
 30
0.0
 10
70.774629
 20
78.654279
 30
0.0
 10
70.614820
 20
78.140282
 30
0.0
 10
70.497698
 20
77.618171
 30
0.0
 10
70.430318
 20
77.087593
 30
0.0
 10
67.432765
 20
77.087593
 30
0.0
 10
67.363973
 20
77.618171
 30
0.0
  0
LWPOLYLINE
  5
10d
100
AcDbEntity
  8
outline
 62
5
100
AcDbPolyline
 90
18
 70
0
 10
70.497698
 20
75.483513
 30
0.0
 10
70.614820
 20
74.961049
 30
0.0
 10
70.774629
 20
74.447052
 30
0.0
 10
70.981357
 20
73.952457
 30
0.0
 10
71.229359
 20
73.476913
 30
0.0
 10
71.516168
 20
73.025005
 30
0.0
 10
71.841429
 20
72.600613
 30
0.0
 10
72.205143
 20
72.205149
 30
0.0
 10
72.600607
 20
71.841435
 30
0.0
 10
73.024998
 20
71.516174
 30
0.0
 10
73.476906
 20
71.229366
 30
0.0
 10
73.952451
 20
70.981363
 30
0.0
 10
74.447045
 20
70.774635
 30
0.0
 10
74.961043
 20
70.614827
 30
0.0
 10
75.483506
 20
70.497705
 30
0.0
 10
76.015495
 20
70.430324
 30
0.0
 10
76.015495
 20
67.432771
 30
0.0
 10
75.483506
 20
67.363980
 30
0.0
  0
LWPOLYLINE
  5
10e
100
AcDbEntity
  8
outline
 62
5
100
AcDbPolyline
 90
18
 70
0
 10
77.618165
 20
70.497705
 30
0.0
 10
78.140276
 20
70.614827
 30
0.0
 10
78.654273
 20
70.774635
 30
0.0
 10
79.148867
 20
70.981363
 30
0.0
 10
79.624412
 20
71.229366
 30
0.0
 10
80.076320
 20
71.516174
 30
0.0
 10
80.500712
 20
71.841435
 30
0.0
 10
80.896176
 20
72.205149
 30
0.0
 10
81.260242
 20
72.600613
 30
0.0
 10
81.585504
 20
73.025005
 30
0.0
 10
81.871959
 20
73.476913
 30
0.0
 10
82.121373
 20
73.952457
 30
0.0
 10
82.326690
 20
74.447052
 30
0.0
 10
82.486498
 20
74.961049
 30
0.0
 10
82.603620
 20
75.483513
 30
0.0
 10
82.672765
 20
76.015502
 30
0.0
 10
85.669965
 20
76.015502
 30
0.0
 10
85.737345
 20
75.483513
 30
0.0
  0
LWPOLYLINE
  5
10f
100
AcDbEntity
  8
outline
 62
5
100
AcDbPolyline
 90
18
 70
0
 10
67.363973
 20
77.618171
 30
0.0
 10
67.246851
 20
78.140282
 30
0.0
 10
67.087043
 20
78.654279
 30
0.0
 10
66.881726
 20
79.148874
 30
0.0
 10
66.632312
 20
79.624418
 30
0.0
 10
66.345504
 20
80.076327
 30
0.0
 10
66.020596
 20
80.500718
 30
0.0
 10
65.656529
 20
80.896182
 30
0.0
 10
65.261065
 20
81.260249
 30
0.0
 10
64.836673
 20
81.585510
 30
0.0
 10
64.384765
 20
81.871966
 30
0.0
 10
63.909221
 20
82.121379
 30
0.0
 10
63.414626
 20
82.326696
 30
0.0
 10
62.900629
 20
82.486504
 30
0.0
 10
62.378165
 20
82.603627
 30
0.0
 10
61.846176
 20
82.672771
 30
0.0
 10
61.846176
 20
85.669971
 30
0.0
 10
62.378165
 20
85.737352
 30
0.0
  0
LWPOLYLINE
  5
110
100
AcDbEntity
  8
outline
 62
5
100
AcDbPolyline
 90
36
 70
0
 10
60.243860
 20
82.603627
 30
0.0
 10
59.721396
 20
82.486504
 30
0.0
 10
59.207399
 20
82.326696
 30
0.0
 10
58.712804
 20
82.121379
 30
0.0
 10
58.237260
 20
81.871966
 30
0.0
 10
57.785351
 20
81.585510
 30
0.0
 10
57.360960
 20
81.260249
 30
0.0
 10
56.965496
 20
80.896182
 30
0.0
 10
56.601429
 20
80.500718
 30
0.0
 10
56.276168
 20
80.076327
 30
0.0
 10
55.989712
 20
79.624418
 30
0.0
 10
55.740299
 20
79.148874
 30
0.0
 10
55.534982
 20
78.654279
 30
0.0
 10
55.375174
 20
78.140282
 30
0.0
 10
55.258051
 20
77.618171
 30
0.0
 10
55.188907
 20
77.087593
 30
0.0
 10
55.164213
 20
76.551371
 30
0.0
 10
55.188907
 20
76.015502
 30
0.0
 10
55.258051
 20
75.483513
 30
0.0
 10
55.375174
 20
74.961049
 30
0.0
 10
55.534982
 20
74.447052
 30
0.0
 10
55.740299
 20
73.952457
 30
0.0
 10
55.989712
 20
73.476913
 30
0.0
 10
56.276168
 20
73.025005
 30
0.0
 10
56.601429
 20
72.600613
 30
0.0
 10
56.965496
 20
72.205149
 30
0.0
 10
57.360960
 20
71.841435
 30
0.0
 10
57.785351
 20
71.516174
 30
0.0
 10
58.237260
 20
71.229366
 30
0.0
 10
58.712804
 20
70.981363
 30
0.0
 10
59.207399
 20
70.774635
 30
0.0
 10
59.721396
 20
70.614827
 30
0.0
 10
60.243860
 20
70.497705
 30
0.0
 10
60.775496
 20
70.430324
 30
0.0
 10
60.775496
 20
67.432771
 30
0.0
 10
60.243860
 20
67.363980
 30
0.0
  0
LWPOLYLINE
  5
111
100
AcDbEntity
  8
outline
 62
5
100
AcDbPolyline
 90
18
 70
0
 10
62.378165
 20
70.497705
 30
0.0
 10
62.900629
 20
70.614827
 30
0.0
 10
63.414626
 20
70.774635
 30
0.0
 10
63.909221
 20
70.981363
 30
0.0
 10
64.384765
 20
71.229366
 30
0.0
 10
64.836673
 20
71.516174
 30
0.0
 10
65.261065
 20
71.841435
 30
0.0
 10
65.656529
 20
72.205149
 30
0.0
 10
66.020596
 20
72.600613
 30
0.0
 10
66.345504
 20
73.025005
 30
0.0
 10
66.632312
 20
73.476913
 30
0.0
 10
66.881726
 20
73.952457
 30
0.0
 10
67.087043
 20
74.447052
 30
0.0
 10
67.246851
 20
74.961049
 30
0.0
 10
67.363973
 20
75.483513
 30
0.0
 10
67.432765
 20
76.015502
 30
0.0
 10
70.430318
 20
76.015502
 30
0.0
 10
70.497698
 20
75.483513
 30
0.0
  0
LWPOLYLINE
  5
112
100
AcDbEntity
  8
outline
 62
5
100
AcDbPolyline
 90
20
 70
0
 10
97.937106
 20
61.310313
 30
0.0
 10
97.912411
 20
61.846183
 30
0.0
 10
97.843620
 20
62.378172
 30
0.0
 10
97.726498
 20
62.900635
 30
0.0
 10
97.566336
 20
63.414633
 30
0.0
 10
97.361020
 20
63.909227
 30
0.0
 10
97.111606
 20
64.384771
 30
0.0
 10
96.825150
 20
64.836680
 30
0.0
 10
96.499889
 20
65.261071
 30
0.0
 10
96.137586
 20
65.656535
 30
0.0
 10
95.740711
 20
66.020602
 30
0.0
 10
95.316320
 20
66.345510
 30
0.0
 10
94.864059
 20
66.632319
 30
0.0
 10
94.388867
 20
66.881733
 30
0.0
 10
93.893920
 20
67.087049
 30
0.0
 10
93.381334
 20
67.246858
 30
0.0
 10
92.857812
 20
67.363980
 30
0.0
 10
92.327234
 20
67.432771
 30
0.0
 10
92.327234
 20
70.430324
 30
0.0
 10
92.857812
 20
70.497705
 30
0.0
  0
LWPOLYLINE
  5
113
100
AcDbEntity
  8
outline
 62
5
100
AcDbPolyline
 90
18
 70
0
 10
90.724564
 20
67.363980
 30
0.0
 10
90.201042
 20
67.246858
 30
0.0
 10
89.688103
 20
67.087049
 30
0.0
 10
89.192098
 20
66.881733
 30
0.0
 10
88.717964
 20
66.632319
 30
0.0
 10
88.264645
 20
66.345510
 30
0.0
 10
87.841664
 20
66.020602
 30
0.0
 10
87.444789
 20
65.656535
 30
0.0
 10
87.082487
 20
65.261071
 30
0.0
 10
86.757226
 20
64.836680
 30
0.0
 10
86.469006
 20
64.384771
 30
0.0
 10
86.221003
 20
63.909227
 30
0.0
 10
86.014276
 20
63.414633
 30
0.0
 10
85.854467
 20
62.900635
 30
0.0
 10
85.737345
 20
62.378172
 30
0.0
 10
85.669965
 20
61.846183
 30
0.0
 10
82.672765
 20
61.846183
 30
0.0
 10
82.603620
 20
62.378172
 30
0.0
  0
LWPOLYLINE
  5
114
100
AcDbEntity
  8
outline
 62
5
100
AcDbPolyline
 90
18
 70
0
 10
85.737345
 20
60.243866
 30
0.0
 10
85.854467
 20
59.721402
 30
0.0
 10
86.014276
 20
59.207405
 30
0.0
 10
86.221003
 20
58.712811
 30
0.0
 10
86.469006
 20
58.237266
 30
0.0
 10
86.757226
 20
57.785358
 30
0.0
 10
87.082487
 20
57.360966
 30
0.0
 10
87.444789
 20
56.965502
 30
0.0
 10
87.841664
 20
56.601436
 30
0.0
 10
88.264645
 20
56.276174
 30
0.0
 10
88.717964
 20
55.989719
 30
0.0
 10
89.192098
 20
55.740305
 30
0.0
 10
89.688103
 20
55.534988
 30
0.0
 10
90.201042
 20
55.375180
 30
0.0
 10
90.724564
 20
55.258058
 30
0.0
 10
91.255142
 20
55.188913
 30
0.0
 10
91.219159
 20
52.413611
 30
0.0
 10
90.240906
 20
52.369513
 30
0.0
  0
LWPOLYLINE
  5
115
100
AcDbEntity
  8
outline
 62
5
100
AcDbPolyline
 90
17
 70
0
 10
92.857812
 20
55.258058
 30
0.0
 10
93.381334
 20
55.375180
 30
0.0
 10
93.893920
 20
55.534988
 30
0.0
 10
94.388867
 20
55.740305
 30
0.0
 10
94.864059
 20
55.989719
 30
0.0
 10
95.316320
 20
56.276174
 30
0.0
 10
95.740711
 20
56.601436
 30
0.0
 10
96.137586
 20
56.965502
 30
0.0
 10
96.499889
 20
57.360966
 30
0.0
 10
96.825150
 20
57.785358
 30
0.0
 10
97.111606
 20
58.237266
 30
0.0
 10
97.361020
 20
58.712811
 30
0.0
 10
97.566336
 20
59.207405
 30
0.0
 10
97.726498
 20
59.721402
 30
0.0
 10
97.843620
 20
60.243866
 30
0.0
 10
97.912411
 20
60.775502
 30
0.0
 10
97.937106
 20
61.310313
 30
0.0
  0
LWPOLYLINE
  5
116
100
AcDbEntity
  8
outline
 62
5
100
AcDbPolyline
 90
18
 70
0
 10
82.603620
 20
62.378172
 30
0.0
 10
82.486498
 20
62.900635
 30
0.0
 10
82.326690
 20
63.414633
 30
0.0
 10
82.121373
 20
63.909227
 30
0.0
 10
81.871959
 20
64.384771
 30
0.0
 10
81.585504
 20
64.836680
 30
0.0
 10
81.260242
 20
65.261071
 30
0.0
 10
80.896176
 20
65.656535
 30
0.0
 10
80.500712
 20
66.020602
 30
0.0
 10
80.076320
 20
66.345510
 30
0.0
 10
79.624412
 20
66.632319
 30
0.0
 10
79.148867
 20
66.881733
 30
0.0
 10
78.654273
 20
67.087049
 30
0.0
 10
78.140276
 20
67.246858
 30
0.0
 10
77.618165
 20
67.363980
 30
0.0
 10
77.087587
 20
67.432771
 30
0.0
 10
77.087587
 20
70.430324
 30
0.0
 10
77.618165
 20
70.497705
 30
0.0
  0
LWPOLYLINE
  5
117
100
AcDbEntity
  8
outline
 62
5
100
AcDbPolyline
 90
18
 70
0
 10
75.483506
 20
67.363980
 30
0.0
 10
74.961043
 20
67.246858
 30
0.0
 10
74.447045
 20
67.087049
 30
0.0
 10
73.952451
 20
66.881733
 30
0.0
 10
73.476906
 20
66.632319
 30
0.0
 10
73.024998
 20
66.345510
 30
0.0
 10
72.600607
 20
66.020602
 30
0.0
 10
72.205143
 20
65.656535
 30
0.0
 10
71.841429
 20
65.261071
 30
0.0
 10
71.516168
 20
64.836680
 30
0.0
 10
71.229359
 20
64.384771
 30
0.0
 10
70.981357
 20
63.909227
 30
0.0
 10
70.774629
 20
63.414633
 30
0.0
 10
70.614820
 20
62.900635
 30
0.0
 10
70.497698
 20
62.378172
 30
0.0
 10
70.430318
 20
61.846183
 30
0.0
 10
67.432765
 20
61.846183
 30
0.0
 10
67.363973
 20
62.378172
 30
0.0
  0
LWPOLYLINE
  5
118
100
AcDbEntity
  8
outline
 62
5
100
AcDbPolyline
 90
36
 70
0
 10
70.497698
 20
60.243866
 30
0.0
 10
70.614820
 20
59.721402
 30
0.0
 10
70.774629
 20
59.207405
 30
0.0
 10
70.981357
 20
58.712811
 30
0.0
 10
71.229359
 20
58.237266
 30
0.0
 10
71.516168
 20
57.785358
 30
0.0
 10
71.841429
 20
57.360966
 30
0.0
 10
72.205143
 20
56.965502
 30
0.0
 10
72.600607
 20
56.601436
 30
0.0
 10
73.024998
 20
56.276174
 30
0.0
 10
73.476906
 20
55.989719
 30
0.0
 10
73.952451
 20
55.740305
 30
0.0
 10
74.447045
 20
55.534988
 30
0.0
 10
74.961043
 20
55.375180
 30
0.0
 10
75.483506
 20
55.258058
 30
0.0
 10
76.015495
 20
55.188913
 30
0.0
 10
76.551365
 20
55.164219
 30
0.0
 10
77.087587
 20
55.188913
 30
0.0
 10
77.618165
 20
55.258058
 30
0.0
 10
78.140276
 20
55.375180
 30
0.0
 10
78.654273
 20
55.534988
 30
0.0
 10
79.148867
 20
55.740305
 30
0.0
 10
79.624412
 20
55.989719
 30
0.0
 10
80.076320
 20
56.276174
 30
0.0
 10
80.500712
 20
56.601436
 30
0.0
 10
80.896176
 20
56.965502
 30
0.0
 10
81.260242
 20
57.360966
 30
0.0
 10
81.585504
 20
57.785358
 30
0.0
 10
81.871959
 20
58.237266
 30
0.0
 10
82.121373
 20
58.712811
 30
0.0
 10
82.326690
 20
59.207405
 30
0.0
 10
82.486498
 20
59.721402
 30
0.0
 10
82.603620
 20
60.243866
 30
0.0
 10
82.672765
 20
60.775502
 30
0.0
 10
85.669965
 20
60.775502
 30
0.0
 10
85.737345
 20
60.243866
 30
0.0
  0
LWPOLYLINE
  5
119
100
AcDbEntity
  8
outline
 62
5
100
AcDbPolyline
 90
18
 70
0
 10
67.363973
 20
62.378172
 30
0.0
 10
67.246851
 20
62.900635
 30
0.0
 10
67.087043
 20
63.414633
 30
0.0
 10
66.881726
 20
63.909227
 30
0.0
 10
66.632312
 20
64.384771
 30
0.0
 10
66.345504
 20
64.836680
 30
0.0
 10
66.020596
 20
65.261071
 30
0.0
 10
65.656529
 20
65.656535
 30
0.0
 10
65.261065
 20
66.020602
 30
0.0
 10
64.836673
 20
66.345510
 30
0.0
 10
64.384765
 20
66.632319
 30
0.0
 10
63.909221
 20
66.881733
 30
0.0
 10
63.414626
 20
67.087049
 30
0.0
 10
62.900629
 20
67.246858
 30
0.0
 10
62.378165
 20
67.363980
 30
0.0
 10
61.846176
 20
67.432771
 30
0.0
 10
61.846176
 20
70.430324
 30
0.0
 10
62.378165
 20
70.497705
 30
0.0
  0
LWPOLYLINE
  5
11a
100
AcDbEntity
  8
outline
 62
5
100
AcDbPolyline
 90
10
 70
0
 10
60.243860
 20
67.363980
 30
0.0
 10
59.721396
 20
67.246858
 30
0.0
 10
59.207399
 20
67.087049
 30
0.0
 10
58.712804
 20
66.881733
 30
0.0
 10
58.237260
 20
66.632319
 30
0.0
 10
57.785351
 20
66.345510
 30
0.0
 10
57.360960
 20
66.020602
 30
0.0
 10
56.965496
 20
65.656535
 30
0.0
 10
52.369507
 20
67.178066
 30
0.0
 10
52.242860
 20
68.151027
 30
0.0
  0
LWPOLYLINE
  5
11b
100
AcDbEntity
  8
outline
 62
5
100
AcDbPolyline
 90
28
 70
0
 10
55.989712
 20
64.384771
 30
0.0
 10
55.740299
 20
63.909227
 30
0.0
 10
55.534982
 20
63.414633
 30
0.0
 10
55.375174
 20
62.900635
 30
0.0
 10
55.258051
 20
62.378172
 30
0.0
 10
55.188907
 20
61.846183
 30
0.0
 10
55.164213
 20
61.310313
 30
0.0
 10
55.188907
 20
60.775502
 30
0.0
 10
55.258051
 20
60.243866
 30
0.0
 10
55.375174
 20
59.721402
 30
0.0
 10
55.534982
 20
59.207405
 30
0.0
 10
55.740299
 20
58.712811
 30
0.0
 10
55.989712
 20
58.237266
 30
0.0
 10
56.276168
 20
57.785358
 30
0.0
 10
56.601429
 20
57.360966
 30
0.0
 10
56.965496
 20
56.965502
 30
0.0
 10
57.360960
 20
56.601436
 30
0.0
 10
57.785351
 20
56.276174
 30
0.0
 10
58.237260
 20
55.989719
 30
0.0
 10
58.712804
 20
55.740305
 30
0.0
 10
59.207399
 20
55.534988
 30
0.0
 10
59.721396
 20
55.375180
 30
0.0
 10
60.243860
 20
55.258058
 30
0.0
 10
60.775496
 20
55.188913
 30
0.0
 10
61.310307
 20
55.164219
 30
0.0
 10
61.846176
 20
55.188913
 30
0.0
 10
62.360526
 20
51.735572
 30
0.0
 10
61.453535
 20
51.359511
 30
0.0
  0
LWPOLYLINE
  5
11c
100
AcDbEntity
  8
outline
 62
5
100
AcDbPolyline
 90
16
 70
0
 10
63.414626
 20
55.534988
 30
0.0
 10
63.909221
 20
55.740305
 30
0.0
 10
64.384765
 20
55.989719
 30
0.0
 10
64.836673
 20
56.276174
 30
0.0
 10
65.261065
 20
56.601436
 30
0.0
 10
65.656529
 20
56.965502
 30
0.0
 10
66.020596
 20
57.360966
 30
0.0
 10
66.345504
 20
57.785358
 30
0.0
 10
66.632312
 20
58.237266
 30
0.0
 10
66.881726
 20
58.712811
 30
0.0
 10
67.087043
 20
59.207405
 30
0.0
 10
67.246851
 20
59.721402
 30
0.0
 10
67.363973
 20
60.243866
 30
0.0
 10
67.432765
 20
60.775502
 30
0.0
 10
70.430318
 20
60.775502
 30
0.0
 10
70.497698
 20
60.243866
 30
0.0
  0
LWPOLYLINE
  5
11d
100
AcDbEntity
  8
outline
 62
5
100
AcDbPolyline
 90
20
 70
0
 10
102.451603
 20
41.181167
 30
0.0
 10
102.407506
 20
42.159772
 30
0.0
 10
102.280859
 20
43.132733
 30
0.0
 10
102.067075
 20
44.087703
 30
0.0
 10
101.773564
 20
45.021858
 30
0.0
 10
101.397503
 20
45.928497
 30
0.0
 10
100.945595
 20
46.796683
 30
0.0
 10
100.418897
 20
47.622183
 30
0.0
 10
99.822350
 20
48.399352
 30
0.0
 10
99.162303
 20
49.124311
 30
0.0
 10
98.437345
 20
49.784358
 30
0.0
 10
97.660175
 20
50.380905
 30
0.0
 10
96.834675
 20
50.907602
 30
0.0
 10
95.966489
 20
51.359511
 30
0.0
 10
95.059850
 20
51.735572
 30
0.0
 10
94.125342
 20
52.029083
 30
0.0
 10
93.170373
 20
52.242866
 30
0.0
 10
92.197764
 20
52.369513
 30
0.0
 10
92.327234
 20
55.188913
 30
0.0
 10
92.857812
 20
55.258058
 30
0.0
  0
LWPOLYLINE
  5
11e
100
AcDbEntity
  8
outline
 62
5
100
AcDbPolyline
 90
19
 70
0
 10
90.240906
 20
52.369513
 30
0.0
 10
89.269356
 20
52.242866
 30
0.0
 10
88.312976
 20
52.029083
 30
0.0
 10
87.378820
 20
51.735572
 30
0.0
 10
86.471828
 20
51.359511
 30
0.0
 10
85.603642
 20
50.907602
 30
0.0
 10
84.778142
 20
50.380905
 30
0.0
 10
84.000973
 20
49.784358
 30
0.0
 10
83.276367
 20
49.124311
 30
0.0
 10
82.616320
 20
48.399352
 30
0.0
 10
82.019420
 20
47.622183
 30
0.0
 10
81.494487
 20
46.796683
 30
0.0
 10
81.041167
 20
45.928497
 30
0.0
 10
80.666165
 20
45.021858
 30
0.0
 10
80.371242
 20
44.087703
 30
0.0
 10
80.157812
 20
43.132733
 30
0.0
 10
80.030812
 20
42.159772
 30
0.0
 10
77.389212
 20
42.159772
 30
0.0
 10
77.262565
 20
43.132733
 30
0.0
  0
LWPOLYLINE
  5
11f
100
AcDbEntity
  8
outline
 62
5
100
AcDbPolyline
 90
18
 70
0
 10
80.157812
 20
39.231364
 30
0.0
 10
80.371242
 20
38.274983
 30
0.0
 10
80.666165
 20
37.340828
 30
0.0
 10
81.041167
 20
36.433836
 30
0.0
 10
81.494487
 20
35.565650
 30
0.0
 10
82.019420
 20
34.740503
 30
0.0
 10
82.616320
 20
33.962981
 30
0.0
 10
83.276367
 20
33.238375
 30
0.0
 10
84.000973
 20
32.578328
 30
0.0
 10
84.778142
 20
31.981428
 30
0.0
 10
85.603642
 20
31.455083
 30
0.0
 10
86.471828
 20
31.003175
 30
0.0
 10
87.378820
 20
30.628172
 30
0.0
 10
88.312976
 20
30.333250
 30
0.0
 10
89.269356
 20
30.119820
 30
0.0
 10
90.240906
 20
29.993172
 30
0.0
 10
90.240906
 20
27.351220
 30
0.0
 10
89.269356
 20
27.224572
 30
0.0
  0
LWPOLYLINE
  5
120
100
AcDbEntity
  8
outline
 62
5
100
AcDbPolyline
 90
17
 70
0
 10
93.170373
 20
30.119820
 30
0.0
 10
94.125342
 20
30.333250
 30
0.0
 10
95.059850
 20
30.628172
 30
0.0
 10
95.966489
 20
31.003175
 30
0.0
 10
96.834675
 20
31.455083
 30
0.0
 10
97.660175
 20
31.981428
 30
0.0
 10
98.437345
 20
32.578328
 30
0.0
 10
99.162303
 20
33.238375
 30
0.0
 10
99.822350
 20
33.962981
 30
0.0
 10
100.418897
 20
34.740503
 30
0.0
 10
100.945595
 20
35.565650
 30
0.0
 10
101.397503
 20
36.433836
 30
0.0
 10
101.773564
 20
37.340828
 30
0.0
 10
102.067075
 20
38.274983
 30
0.0
 10
102.280859
 20
39.231364
 30
0.0
 10
102.407506
 20
40.202914
 30
0.0
 10
102.451603
 20
41.181167
 30
0.0
  0
LWPOLYLINE
  5
121
100
AcDbEntity
  8
outline
 62
5
100
AcDbPolyline
 90
20
 70
0
 10
102.451603
 20
16.162873
 30
0.0
 10
102.407506
 20
17.140067
 30
0.0
 10
102.280859
 20
18.113028
 30
0.0
 10
102.067075
 20
19.067998
 30
0.0
 10
101.773564
 20
20.002153
 30
0.0
 10
101.397503
 20
20.909145
 30
0.0
 10
100.945595
 20
21.778389
 30
0.0
 10
100.418897
 20
22.603889
 30
0.0
 10
99.822350
 20
23.381059
 30
0.0
 10
99.162303
 20
24.104606
 30
0.0
 10
98.437345
 20
24.764653
 30
0.0
 10
97.660175
 20
25.362964
 30
0.0
 10
96.834675
 20
25.887897
 30
0.0
 10
95.966489
 20
26.339806
 30
0.0
 10
95.059850
 20
26.715867
 30
0.0
 10
94.125342
 20
27.010789
 30
0.0
 10
93.170373
 20
27.224572
 30
0.0
 10
92.197764
 20
27.351220
 30
0.0
 10
92.197764
 20
29.993172
 30
0.0
 10
93.170373
 20
30.119820
 30
0.0
  0
LWPOLYLINE
  5
122
100
AcDbEntity
  8
outline
 62
5
100
AcDbPolyline
 90
18
 70
0
 10
89.269356
 20
27.224572
 30
0.0
 10
88.312976
 20
27.010789
 30
0.0
 10
87.378820
 20
26.715867
 30
0.0
 10
86.471828
 20
26.339806
 30
0.0
 10
85.603642
 20
25.887897
 30
0.0
 10
84.778142
 20
25.362964
 30
0.0
 10
84.000973
 20
24.764653
 30
0.0
 10
83.276367
 20
24.104606
 30
0.0
 10
82.616320
 20
23.381059
 30
0.0
 10
82.019420
 20
22.603889
 30
0.0
 10
81.494487
 20
21.778389
 30
0.0
 10
81.041167
 20
20.909145
 30
0.0
 10
80.666165
 20
20.002153
 30
0.0
 10
80.371242
 20
19.067998
 30
0.0
 10
80.157812
 20
18.113028
 30
0.0
 10
80.030812
 20
17.140067
 30
0.0
 10
77.389212
 20
17.140067
 30
0.0
 10
77.262565
 20
18.113028
 30
0.0
  0
LWPOLYLINE
  5
123
100
AcDbEntity
  8
outline
 62
5
100
AcDbPolyline
 90
35
 70
0
 10
80.157812
 20
14.211659
 30
0.0
 10
80.371242
 20
13.256689
 30
0.0
 10
80.666165
 20
12.322534
 30
0.0
 10
81.041167
 20
11.415542
 30
0.0
 10
81.494487
 20
10.546298
 30
0.0
 10
82.019420
 20
9.720798
 30
0.0
 10
82.616320
 20
8.943628
 30
0.0
 10
83.276367
 20
8.220081
 30
0.0
 10
84.000973
 20
7.560034
 30
0.0
 10
84.778142
 20
6.961723
 30
0.0
 10
85.603642
 20
6.436790
 30
0.0
 10
86.471828
 20
5.984881
 30
0.0
 10
87.378820
 20
5.608467
 30
0.0
 10
88.312976
 20
5.313545
 30
0.0
 10
89.269356
 20
5.100115
 30
0.0
 10
90.240906
 20
4.973467
 30
0.0
 10
91.219159
 20
4.930781
 30
0.0
 10
92.197764
 20
4.973467
 30
0.0
 10
93.170373
 20
5.100115
 30
0.0
 10
94.125342
 20
5.313545
 30
0.0
 10
95.059850
 20
5.608467
 30
0.0
 10
95.966489
 20
5.984881
 30
0.0
 10
96.834675
 20
6.436790
 30
0.0
 10
97.660175
 20
6.961723
 30
0.0
 10
98.437345
 20
7.560034
 30
0.0
 10
99.162303
 20
8.220081
 30
0.0
 10
99.822350
 20
8.943628
 30
0.0
 10
100.418897
 20
9.720798
 30
0.0
 10
100.945595
 20
10.546298
 30
0.0
 10
101.397503
 20
11.415542
 30
0.0
 10
101.773564
 20
12.322534
 30
0.0
 10
102.067075
 20
13.256689
 30
0.0
 10
102.280859
 20
14.211659
 30
0.0
 10
102.407506
 20
15.184620
 30
0.0
 10
102.451603
 20
16.162873
 30
0.0
  0
LWPOLYLINE
  5
124
100
AcDbEntity
  8
outline
 62
5
100
AcDbPolyline
 90
22
 70
0
 10
77.262565
 20
43.132733
 30
0.0
 10
77.048781
 20
44.087703
 30
0.0
 10
76.753859
 20
45.021858
 30
0.0
 10
76.377798
 20
45.928497
 30
0.0
 10
75.925890
 20
46.796683
 30
0.0
 10
75.400604
 20
47.622183
 30
0.0
 10
74.804056
 20
48.399352
 30
0.0
 10
74.142598
 20
49.124311
 30
0.0
 10
73.419051
 20
49.784358
 30
0.0
 10
72.641882
 20
50.380905
 30
0.0
 10
71.816382
 20
50.907602
 30
0.0
 10
70.948195
 20
51.359511
 30
0.0
 10
70.041557
 20
51.735572
 30
0.0
 10
69.105990
 20
52.029083
 30
0.0
 10
68.151021
 20
52.242866
 30
0.0
 10
67.178059
 20
52.369513
 30
0.0
 10
66.200865
 20
52.413611
 30
0.0
 10
65.222612
 20
52.369513
 30
0.0
 10
64.249651
 20
52.242866
 30
0.0
 10
63.294682
 20
52.029083
 30
0.0
 10
62.900629
 20
55.375180
 30
0.0
 10
63.414626
 20
55.534988
 30
0.0
  0
LWPOLYLINE
  5
125
100
AcDbEntity
  8
outline
 62
5
100
AcDbPolyline
 90
15
 70
0
 10
61.453535
 20
51.359511
 30
0.0
 10
60.583937
 20
50.907602
 30
0.0
 10
59.758790
 20
50.380905
 30
0.0
 10
58.981268
 20
49.784358
 30
0.0
 10
58.258074
 20
49.124311
 30
0.0
 10
57.598026
 20
48.399352
 30
0.0
 10
57.001126
 20
47.622183
 30
0.0
 10
56.474782
 20
46.796683
 30
0.0
 10
56.022874
 20
45.928497
 30
0.0
 10
55.646460
 20
45.021858
 30
0.0
 10
55.351538
 20
44.087703
 30
0.0
 10
55.138107
 20
43.132733
 30
0.0
 10
55.011460
 20
42.159772
 30
0.0
 10
52.369507
 20
42.159772
 30
0.0
 10
52.242860
 20
43.132733
 30
0.0
  0
LWPOLYLINE
  5
126
100
AcDbEntity
  8
outline
 62
5
100
AcDbPolyline
 90
18
 70
0
 10
55.138107
 20
39.231364
 30
0.0
 10
55.351538
 20
38.274983
 30
0.0
 10
55.646460
 20
37.340828
 30
0.0
 10
56.022874
 20
36.433836
 30
0.0
 10
56.474782
 20
35.565650
 30
0.0
 10
57.001126
 20
34.740503
 30
0.0
 10
57.598026
 20
33.962981
 30
0.0
 10
58.258074
 20
33.238375
 30
0.0
 10
58.981268
 20
32.578328
 30
0.0
 10
59.758790
 20
31.981428
 30
0.0
 10
60.583937
 20
31.455083
 30
0.0
 10
61.453535
 20
31.003175
 30
0.0
 10
62.360526
 20
30.628172
 30
0.0
 10
63.294682
 20
30.333250
 30
0.0
 10
64.249651
 20
30.119820
 30
0.0
 10
65.222612
 20
29.993172
 30
0.0
 10
65.222612
 20
27.351220
 30
0.0
 10
64.249651
 20
27.224572
 30
0.0
  0
LWPOLYLINE
  5
127
100
AcDbEntity
  8
outline
 62
5
100
AcDbPolyline
 90
18
 70
0
 10
68.151021
 20
30.119820
 30
0.0
 10
69.105990
 20
30.333250
 30
0.0
 10
70.041557
 20
30.628172
 30
0.0
 10
70.948195
 20
31.003175
 30
0.0
 10
71.816382
 20
31.455083
 30
0.0
 10
72.641882
 20
31.981428
 30
0.0
 10
73.419051
 20
32.578328
 30
0.0
 10
74.142598
 20
33.238375
 30
0.0
 10
74.804056
 20
33.962981
 30
0.0
 10
75.400604
 20
34.740503
 30
0.0
 10
75.925890
 20
35.565650
 30
0.0
 10
76.377798
 20
36.433836
 30
0.0
 10
76.753859
 20
37.340828
 30
0.0
 10
77.048781
 20
38.274983
 30
0.0
 10
77.262565
 20
39.231364
 30
0.0
 10
77.389212
 20
40.202914
 30
0.0
 10
80.030812
 20
40.202914
 30
0.0
 10
80.157812
 20
39.231364
 30
0.0
  0
LWPOLYLINE
  5
128
100
AcDbEntity
  8
outline
 62
5
100
AcDbPolyline
 90
18
 70
0
 10
77.262565
 20
18.113028
 30
0.0
 10
77.048781
 20
19.067998
 30
0.0
 10
76.753859
 20
20.002153
 30
0.0
 10
76.377798
 20
20.909145
 30
0.0
 10
75.925890
 20
21.778389
 30
0.0
 10
75.400604
 20
22.603889
 30
0.0
 10
74.804056
 20
23.381059
 30
0.0
 10
74.142598
 20
24.104606
 30
0.0
 10
73.419051
 20
24.764653
 30
0.0
 10
72.641882
 20
25.362964
 30
0.0
 10
71.816382
 20
25.887897
 30
0.0
 10
70.948195
 20
26.339806
 30
0.0
 10
70.041557
 20
26.715867
 30
0.0
 10
69.105990
 20
27.010789
 30
0.0
 10
68.151021
 20
27.224572
 30
0.0
 10
67.178059
 20
27.351220
 30
0.0
 10
67.178059
 20
29.993172
 30
0.0
 10
68.151021
 20
30.119820
 30
0.0
  0
LWPOLYLINE
  5
129
100
AcDbEntity
  8
outline
 62
5
100
AcDbPolyline
 90
18
 70
0
 10
64.249651
 20
27.224572
 30
0.0
 10
63.294682
 20
27.010789
 30
0.0
 10
62.360526
 20
26.715867
 30
0.0
 10
61.453535
 20
26.339806
 30
0.0
 10
60.583937
 20
25.887897
 30
0.0
 10
59.758790
 20
25.362964
 30
0.0
 10
58.981268
 20
24.764653
 30
0.0
 10
58.258074
 20
24.104606
 30
0.0
 10
57.598026
 20
23.381059
 30
0.0
 10
57.001126
 20
22.603889
 30
0.0
 10
56.474782
 20
21.778389
 30
0.0
 10
56.022874
 20
20.909145
 30
0.0
 10
55.646460
 20
20.002153
 30
0.0
 10
55.351538
 20
19.067998
 30
0.0
 10
55.138107
 20
18.113028
 30
0.0
 10
55.011460
 20
17.140067
 30
0.0
 10
52.369507
 20
17.140067
 30
0.0
 10
52.242860
 20
18.113028
 30
0.0
  0
LWPOLYLINE
  5
12a
100
AcDbEntity
  8
outline
 62
5
100
AcDbPolyline
 90
36
 70
0
 10
55.138107
 20
14.211659
 30
0.0
 10
55.351538
 20
13.256689
 30
0.0
 10
55.646460
 20
12.322534
 30
0.0
 10
56.022874
 20
11.415542
 30
0.0
 10
56.474782
 20
10.546298
 30
0.0
 10
57.001126
 20
9.720798
 30
0.0
 10
57.598026
 20
8.943628
 30
0.0
 10
58.258074
 20
8.220081
 30
0.0
 10
58.981268
 20
7.560034
 30
0.0
 10
59.758790
 20
6.961723
 30
0.0
 10
60.583937
 20
6.436790
 30
0.0
 10
61.453535
 20
5.984881
 30
0.0
 10
62.360526
 20
5.608467
 30
0.0
 10
63.294682
 20
5.313545
 30
0.0
 10
64.249651
 20
5.100115
 30
0.0
 10
65.222612
 20
4.973467
 30
0.0
 10
66.200865
 20
4.930781
 30
0.0
 10
67.178059
 20
4.973467
 30
0.0
 10
68.151021
 20
5.100115
 30
0.0
 10
69.105990
 20
5.313545
 30
0.0
 10
70.041557
 20
5.608467
 30
0.0
 10
70.948195
 20
5.984881
 30
0.0
 10
71.816382
 20
6.436790
 30
0.0
 10
72.641882
 20
6.961723
 30
0.0
 10
73.419051
 20
7.560034
 30
0.0
 10
74.142598
 20
8.220081
 30
0.0
 10
74.804056
 20
8.943628
 30
0.0
 10
75.400604
 20
9.720798
 30
0.0
 10
75.925890
 20
10.546298
 30
0.0
 10
76.377798
 20
11.415542
 30
0.0
 10
76.753859
 20
12.322534
 30
0.0
 10
77.048781
 20
13.256689
 30
0.0
 10
77.262565
 20
14.211659
 30
0.0
 10
77.389212
 20
15.184620
 30
0.0
 10
80.030812
 20
15.184620
 30
0.0
 10
80.157812
 20
14.211659
 30
0.0
  0
LWPOLYLINE
  5
12b
100
AcDbEntity
  8
outline
 62
5
100
AcDbPolyline
 90
36
 70
0
 10
52.242860
 20
93.170379
 30
0.0
 10
52.029076
 20
94.125349
 30
0.0
 10
51.735565
 20
95.059857
 30
0.0
 10
51.359504
 20
95.966496
 30
0.0
 10
50.907596
 20
96.834682
 30
0.0
 10
50.380899
 20
97.660182
 30
0.0
 10
49.784352
 20
98.437351
 30
0.0
 10
49.124304
 20
99.162310
 30
0.0
 10
48.399346
 20
99.822357
 30
0.0
 10
47.622177
 20
100.418904
 30
0.0
 10
46.796677
 20
100.945601
 30
0.0
 10
45.928491
 20
101.397509
 30
0.0
 10
45.021852
 20
101.773571
 30
0.0
 10
44.087696
 20
102.067082
 30
0.0
 10
43.132727
 20
102.280865
 30
0.0
 10
42.159766
 20
102.407512
 30
0.0
 10
41.181160
 20
102.451609
 30
0.0
 10
40.202907
 20
102.407512
 30
0.0
 10
39.231357
 20
102.280865
 30
0.0
 10
38.274977
 20
102.067082
 30
0.0
 10
37.340821
 20
101.773571
 30
0.0
 10
36.433830
 20
101.397509
 30
0.0
 10
35.565644
 20
100.945601
 30
0.0
 10
34.740496
 20
100.418904
 30
0.0
 10
33.962974
 20
99.822357
 30
0.0
 10
33.238369
 20
99.162310
 30
0.0
 10
32.578321
 20
98.437351
 30
0.0
 10
31.981421
 20
97.660182
 30
0.0
 10
31.455077
 20
96.834682
 30
0.0
 10
31.003169
 20
95.966496
 30
0.0
 10
30.628166
 20
95.059857
 30
0.0
 10
30.333244
 20
94.125349
 30
0.0
 10
30.119813
 20
93.170379
 30
0.0
 10
29.993166
 20
92.197771
 30
0.0
 10
27.351213
 20
92.197771
 30
0.0
 10
27.224566
 20
93.170379
 30
0.0
  0
LWPOLYLINE
  5
12c
100
AcDbEntity
  8
outline
 62
5
100
AcDbPolyline
 90
18
 70
0
 10
30.119813
 20
89.269363
 30
0.0
 10
30.333244
 20
88.312982
 30
0.0
 10
30.628166
 20
87.378826
 30
0.0
 10
31.003169
 20
86.471835
 30
0.0
 10
31.455077
 20
85.603649
 30
0.0
 10
31.981421
 20
84.778149
 30
0.0
 10
32.578321
 20
84.000979
 30
0.0
 10
33.238369
 20
83.276374
 30
0.0
 10
33.962974
 20
82.616327
 30
0.0
 10
34.740496
 20
82.019427
 30
0.0
 10
35.565644
 20
81.494493
 30
0.0
 10
36.433830
 20
81.041174
 30
0.0
 10
37.340821
 20
80.666171
 30
0.0
 10
38.274977
 20
80.371249
 30
0.0
 10
39.231357
 20
80.157818
 30
0.0
 10
40.202907
 20
80.030818
 30
0.0
 10
40.202907
 20
77.389218
 30
0.0
 10
39.231357
 20
77.262571
 30
0.0
  0
LWPOLYLINE
  5
12d
100
AcDbEntity
  8
outline
 62
5
100
AcDbPolyline
 90
18
 70
0
 10
43.132727
 20
80.157818
 30
0.0
 10
44.087696
 20
80.371249
 30
0.0
 10
45.021852
 20
80.666171
 30
0.0
 10
45.928491
 20
81.041174
 30
0.0
 10
46.796677
 20
81.494493
 30
0.0
 10
47.622177
 20
82.019427
 30
0.0
 10
48.399346
 20
82.616327
 30
0.0
 10
49.124304
 20
83.276374
 30
0.0
 10
49.784352
 20
84.000979
 30
0.0
 10
50.380899
 20
84.778149
 30
0.0
 10
50.907596
 20
85.603649
 30
0.0
 10
51.359504
 20
86.471835
 30
0.0
 10
51.735565
 20
87.378826
 30
0.0
 10
52.029076
 20
88.312982
 30
0.0
 10
52.242860
 20
89.269363
 30
0.0
 10
52.369507
 20
90.240913
 30
0.0
 10
55.258051
 20
90.724571
 30
0.0
 10
55.375174
 20
90.201049
 30
0.0
  0
LWPOLYLINE
  5
12e
100
AcDbEntity
  8
outline
 62
5
100
AcDbPolyline
 90
18
 70
0
 10
52.242860
 20
68.151027
 30
0.0
 10
52.029076
 20
69.105996
 30
0.0
 10
51.735565
 20
70.041563
 30
0.0
 10
51.359504
 20
70.948202
 30
0.0
 10
50.907596
 20
71.816388
 30
0.0
 10
50.380899
 20
72.641888
 30
0.0
 10
49.784352
 20
73.419057
 30
0.0
 10
49.124304
 20
74.142605
 30
0.0
 10
48.399346
 20
74.804063
 30
0.0
 10
47.622177
 20
75.400610
 30
0.0
 10
46.796677
 20
75.925896
 30
0.0
 10
45.928491
 20
76.377805
 30
0.0
 10
45.021852
 20
76.753866
 30
0.0
 10
44.087696
 20
77.048788
 30
0.0
 10
43.132727
 20
77.262571
 30
0.0
 10
42.159766
 20
77.389218
 30
0.0
 10
42.159766
 20
80.030818
 30
0.0
 10
43.132727
 20
80.157818
 30
0.0
  0
LWPOLYLINE
  5
12f
100
AcDbEntity
  8
outline
 62
5
100
AcDbPolyline
 90
18
 70
0
 10
39.231357
 20
77.262571
 30
0.0
 10
38.274977
 20
77.048788
 30
0.0
 10
37.340821
 20
76.753866
 30
0.0
 10
36.433830
 20
76.377805
 30
0.0
 10
35.565644
 20
75.925896
 30
0.0
 10
34.740496
 20
75.400610
 30
0.0
 10
33.962974
 20
74.804063
 30
0.0
 10
33.238369
 20
74.142605
 30
0.0
 10
32.578321
 20
73.419057
 30
0.0
 10
31.981421
 20
72.641888
 30
0.0
 10
31.455077
 20
71.816388
 30
0.0
 10
31.003169
 20
70.948202
 30
0.0
 10
30.628166
 20
70.041563
 30
0.0
 10
30.333244
 20
69.105996
 30
0.0
 10
30.119813
 20
68.151027
 30
0.0
 10
29.993166
 20
67.178066
 30
0.0
 10
27.351213
 20
67.178066
 30
0.0
 10
27.224566
 20
68.151027
 30
0.0
  0
LWPOLYLINE
  5
130
100
AcDbEntity
  8
outline
 62
5
100
AcDbPolyline
 90
18
 70
0
 10
30.119813
 20
64.249658
 30
0.0
 10
30.333244
 20
63.294688
 30
0.0
 10
30.628166
 20
62.360533
 30
0.0
 10
31.003169
 20
61.453541
 30
0.0
 10
31.455077
 20
60.583944
 30
0.0
 10
31.981421
 20
59.758797
 30
0.0
 10
32.578321
 20
58.981274
 30
0.0
 10
33.238369
 20
58.258080
 30
0.0
 10
33.962974
 20
57.598033
 30
0.0
 10
34.740496
 20
57.001133
 30
0.0
 10
35.565644
 20
56.474788
 30
0.0
 10
36.433830
 20
56.022880
 30
0.0
 10
37.340821
 20
55.646466
 30
0.0
 10
38.274977
 20
55.351544
 30
0.0
 10
39.231357
 20
55.138113
 30
0.0
 10
40.202907
 20
55.011466
 30
0.0
 10
40.202907
 20
52.369513
 30
0.0
 10
39.231357
 20
52.242866
 30
0.0
  0
LWPOLYLINE
  5
131
100
AcDbEntity
  8
outline
 62
5
100
AcDbPolyline
 90
18
 70
0
 10
43.132727
 20
55.138113
 30
0.0
 10
44.087696
 20
55.351544
 30
0.0
 10
45.021852
 20
55.646466
 30
0.0
 10
45.928491
 20
56.022880
 30
0.0
 10
46.796677
 20
56.474788
 30
0.0
 10
47.622177
 20
57.001133
 30
0.0
 10
48.399346
 20
57.598033
 30
0.0
 10
49.124304
 20
58.258080
 30
0.0
 10
49.784352
 20
58.981274
 30
0.0
 10
50.380899
 20
59.758797
 30
0.0
 10
50.907596
 20
60.583944
 30
0.0
 10
51.359504
 20
61.453541
 30
0.0
 10
51.735565
 20
62.360533
 30
0.0
 10
52.029076
 20
63.294688
 30
0.0
 10
52.242860
 20
64.249658
 30
0.0
 10
52.369507
 20
65.222619
 30
0.0
 10
56.276168
 20
64.836680
 30
0.0
 10
55.989712
 20
64.384771
 30
0.0
  0
LWPOLYLINE
  5
132
100
AcDbEntity
  8
outline
 62
5
100
AcDbPolyline
 90
18
 70
0
 10
52.242860
 20
43.132733
 30
0.0
 10
52.029076
 20
44.087703
 30
0.0
 10
51.735565
 20
45.021858
 30
0.0
 10
51.359504
 20
45.928497
 30
0.0
 10
50.907596
 20
46.796683
 30
0.0
 10
50.380899
 20
47.622183
 30
0.0
 10
49.784352
 20
48.399352
 30
0.0
 10
49.124304
 20
49.124311
 30
0.0
 10
48.399346
 20
49.784358
 30
0.0
 10
47.622177
 20
50.380905
 30
0.0
 10
46.796677
 20
50.907602
 30
0.0
 10
45.928491
 20
51.359511
 30
0.0
 10
45.021852
 20
51.735572
 30
0.0
 10
44.087696
 20
52.029083
 30
0.0
 10
43.132727
 20
52.242866
 30
0.0
 10
42.159766
 20
52.369513
 30
0.0
 10
42.159766
 20
55.011466
 30
0.0
 10
43.132727
 20
55.138113
 30
0.0
  0
LWPOLYLINE
  5
133
100
AcDbEntity
  8
outline
 62
5
100
AcDbPolyline
 90
18
 70
0
 10
39.231357
 20
52.242866
 30
0.0
 10
38.274977
 20
52.029083
 30
0.0
 10
37.340821
 20
51.735572
 30
0.0
 10
36.433830
 20
51.359511
 30
0.0
 10
35.565644
 20
50.907602
 30
0.0
 10
34.740496
 20
50.380905
 30
0.0
 10
33.962974
 20
49.784358
 30
0.0
 10
33.238369
 20
49.124311
 30
0.0
 10
32.578321
 20
48.399352
 30
0.0
 10
31.981421
 20
47.622183
 30
0.0
 10
31.455077
 20
46.796683
 30
0.0
 10
31.003169
 20
45.928497
 30
0.0
 10
30.628166
 20
45.021858
 30
0.0
 10
30.333244
 20
44.087703
 30
0.0
 10
30.119813
 20
43.132733
 30
0.0
 10
29.993166
 20
42.159772
 30
0.0
 10
27.351213
 20
42.159772
 30
0.0
 10
27.224566
 20
43.132733
 30
0.0
  0
LWPOLYLINE
  5
134
100
AcDbEntity
  8
outline
 62
5
100
AcDbPolyline
 90
18
 70
0
 10
30.119813
 20
39.231364
 30
0.0
 10
30.333244
 20
38.274983
 30
0.0
 10
30.628166
 20
37.340828
 30
0.0
 10
31.003169
 20
36.433836
 30
0.0
 10
31.455077
 20
35.565650
 30
0.0
 10
31.981421
 20
34.740503
 30
0.0
 10
32.578321
 20
33.962981
 30
0.0
 10
33.238369
 20
33.238375
 30
0.0
 10
33.962974
 20
32.578328
 30
0.0
 10
34.740496
 20
31.981428
 30
0.0
 10
35.565644
 20
31.455083
 30
0.0
 10
36.433830
 20
31.003175
 30
0.0
 10
37.340821
 20
30.628172
 30
0.0
 10
38.274977
 20
30.333250
 30
0.0
 10
39.231357
 20
30.119820
 30
0.0
 10
40.202907
 20
29.993172
 30
0.0
 10
40.202907
 20
27.351220
 30
0.0
 10
39.231357
 20
27.224572
 30
0.0
  0
LWPOLYLINE
  5
135
100
AcDbEntity
  8
outline
 62
5
100
AcDbPolyline
 90
18
 70
0
 10
43.132727
 20
30.119820
 30
0.0
 10
44.087696
 20
30.333250
 30
0.0
 10
45.021852
 20
30.628172
 30
0.0
 10
45.928491
 20
31.003175
 30
0.0
 10
46.796677
 20
31.455083
 30
0.0
 10
47.622177
 20
31.981428
 30
0.0
 10
48.399346
 20
32.578328
 30
0.0
 10
49.124304
 20
33.238375
 30
0.0
 10
49.784352
 20
33.962981
 30
0.0
 10
50.380899
 20
34.740503
 30
0.0
 10
50.907596
 20
35.565650
 30
0.0
 10
51.359504
 20
36.433836
 30
0.0
 10
51.735565
 20
37.340828
 30
0.0
 10
52.029076
 20
38.274983
 30
0.0
 10
52.242860
 20
39.231364
 30
0.0
 10
52.369507
 20
40.202914
 30
0.0
 10
55.011460
 20
40.202914
 30
0.0
 10
55.138107
 20
39.231364
 30
0.0
  0
LWPOLYLINE
  5
136
100
AcDbEntity
  8
outline
 62
5
100
AcDbPolyline
 90
18
 70
0
 10
52.242860
 20
18.113028
 30
0.0
 10
52.029076
 20
19.067998
 30
0.0
 10
51.735565
 20
20.002153
 30
0.0
 10
51.359504
 20
20.909145
 30
0.0
 10
50.907596
 20
21.778389
 30
0.0
 10
50.380899
 20
22.603889
 30
0.0
 10
49.784352
 20
23.381059
 30
0.0
 10
49.124304
 20
24.104606
 30
0.0
 10
48.399346
 20
24.764653
 30
0.0
 10
47.622177
 20
25.362964
 30
0.0
 10
46.796677
 20
25.887897
 30
0.0
 10
45.928491
 20
26.339806
 30
0.0
 10
45.021852
 20
26.715867
 30
0.0
 10
44.087696
 20
27.010789
 30
0.0
 10
43.132727
 20
27.224572
 30
0.0
 10
42.159766
 20
27.351220
 30
0.0
 10
42.159766
 20
29.993172
 30
0.0
 10
43.132727
 20
30.119820
 30
0.0
  0
LWPOLYLINE
  5
137
100
AcDbEntity
  8
outline
 62
5
100
AcDbPolyline
 90
18
 70
0
 10
39.231357
 20
27.224572
 30
0.0
 10
38.274977
 20
27.010789
 30
0.0
 10
37.340821
 20
26.715867
 30
0.0
 10
36.433830
 20
26.339806
 30
0.0
 10
35.565644
 20
25.887897
 30
0.0
 10
34.740496
 20
25.362964
 30
0.0
 10
33.962974
 20
24.764653
 30
0.0
 10
33.238369
 20
24.104606
 30
0.0
 10
32.578321
 20
23.381059
 30
0.0
 10
31.981421
 20
22.603889
 30
0.0
 10
31.455077
 20
21.778389
 30
0.0
 10
31.003169
 20
20.909145
 30
0.0
 10
30.628166
 20
20.002153
 30
0.0
 10
30.333244
 20
19.067998
 30
0.0
 10
30.119813
 20
18.113028
 30
0.0
 10
29.993166
 20
17.140067
 30
0.0
 10
27.351213
 20
17.140067
 30
0.0
 10
27.224566
 20
18.113028
 30
0.0
  0
LWPOLYLINE
  5
138
100
AcDbEntity
  8
outline
 62
5
100
AcDbPolyline
 90
36
 70
0
 10
30.119813
 20
14.211659
 30
0.0
 10
30.333244
 20
13.256689
 30
0.0
 10
30.628166
 20
12.322534
 30
0.0
 10
31.003169
 20
11.415542
 30
0.0
 10
31.455077
 20
10.546298
 30
0.0
 10
31.981421
 20
9.720798
 30
0.0
 10
32.578321
 20
8.943628
 30
0.0
 10
33.238369
 20
8.220081
 30
0.0
 10
33.962974
 20
7.560034
 30
0.0
 10
34.740496
 20
6.961723
 30
0.0
 10
35.565644
 20
6.436790
 30
0.0
 10
36.433830
 20
5.984881
 30
0.0
 10
37.340821
 20
5.608467
 30
0.0
 10
38.274977
 20
5.313545
 30
0.0
 10
39.231357
 20
5.100115
 30
0.0
 10
40.202907
 20
4.973467
 30
0.0
 10
41.181160
 20
4.930781
 30
0.0
 10
42.159766
 20
4.973467
 30
0.0
 10
43.132727
 20
5.100115
 30
0.0
 10
44.087696
 20
5.313545
 30
0.0
 10
45.021852
 20
5.608467
 30
0.0
 10
45.928491
 20
5.984881
 30
0.0
 10
46.796677
 20
6.436790
 30
0.0
 10
47.622177
 20
6.961723
 30
0.0
 10
48.399346
 20
7.560034
 30
0.0
 10
49.124304
 20
8.220081
 30
0.0
 10
49.784352
 20
8.943628
 30
0.0
 10
50.380899
 20
9.720798
 30
0.0
 10
50.907596
 20
10.546298
 30
0.0
 10
51.359504
 20
11.415542
 30
0.0
 10
51.735565
 20
12.322534
 30
0.0
 10
52.029076
 20
13.256689
 30
0.0
 10
52.242860
 20
14.211659
 30
0.0
 10
52.369507
 20
15.184620
 30
0.0
 10
55.011460
 20
15.184620
 30
0.0
 10
55.138107
 20
14.211659
 30
0.0
  0
LWPOLYLINE
  5
139
100
AcDbEntity
  8
outline
 62
5
100
AcDbPolyline
 90
54
 70
0
 10
27.224566
 20
93.170379
 30
0.0
 10
27.010783
 20
94.125349
 30
0.0
 10
26.715860
 20
95.059857
 30
0.0
 10
26.339799
 20
95.966496
 30
0.0
 10
25.887891
 20
96.834682
 30
0.0
 10
25.362958
 20
97.660182
 30
0.0
 10
24.764647
 20
98.437351
 30
0.0
 10
24.104599
 20
99.162310
 30
0.0
 10
23.381052
 20
99.822357
 30
0.0
 10
22.603883
 20
100.418904
 30
0.0
 10
21.778383
 20
100.945601
 30
0.0
 10
20.909138
 20
101.397509
 30
0.0
 10
20.002147
 20
101.773571
 30
0.0
 10
19.067991
 20
102.067082
 30
0.0
 10
18.113022
 20
102.280865
 30
0.0
 10
17.140061
 20
102.407512
 30
0.0
 10
16.162866
 20
102.451609
 30
0.0
 10
15.184614
 20
102.407512
 30
0.0
 10
14.211652
 20
102.280865
 30
0.0
 10
13.256683
 20
102.067082
 30
0.0
 10
12.322527
 20
101.773571
 30
0.0
 10
11.415536
 20
101.397509
 30
0.0
 10
10.546291
 20
100.945601
 30
0.0
 10
9.720791
 20
100.418904
 30
0.0
 10
8.943622
 20
99.822357
 30
0.0
 10
8.220075
 20
99.162310
 30
0.0
 10
7.560028
 20
98.437351
 30
0.0
 10
6.961716
 20
97.660182
 30
0.0
 10
6.436783
 20
96.834682
 30
0.0
 10
5.984875
 20
95.966496
 30
0.0
 10
5.608461
 20
95.059857
 30
0.0
 10
5.313539
 20
94.125349
 30
0.0
 10
5.100108
 20
93.170379
 30
0.0
 10
4.973461
 20
92.197771
 30
0.0
 10
4.930775
 20
91.219165
 30
0.0
 10
4.973461
 20
90.240913
 30
0.0
 10
5.100108
 20
89.269363
 30
0.0
 10
5.313539
 20
88.312982
 30
0.0
 10
5.608461
 20
87.378826
 30
0.0
 10
5.984875
 20
86.471835
 30
0.0
 10
6.436783
 20
85.603649
 30
0.0
 10
6.961716
 20
84.778149
 30
0.0
 10
7.560028
 20
84.000979
 30
0.0
 10
8.220075
 20
83.276374
 30
0.0
 10
8.943622
 20
82.616327
 30
0.0
 10
9.720791
 20
82.019427
 30
0.0
 10
10.546291
 20
81.494493
 30
0.0
 10
11.415536
 20
81.041174
 30
0.0
 10
12.322527
 20
80.666171
 30
0.0
 10
13.256683
 20
80.371249
 30
0.0
 10
14.211652
 20
80.157818
 30
0.0
 10
15.184614
 20
80.030818
 30
0.0
 10
15.184614
 20
77.389218
 30
0.0
 10
14.211652
 20
77.262571
 30
0.0
  0
LWPOLYLINE
  5
13a
100
AcDbEntity
  8
outline
 62
5
100
AcDbPolyline
 90
18
 70
0
 10
18.113022
 20
80.157818
 30
0.0
 10
19.067991
 20
80.371249
 30
0.0
 10
20.002147
 20
80.666171
 30
0.0
 10
20.909138
 20
81.041174
 30
0.0
 10
21.778383
 20
81.494493
 30
0.0
 10
22.603883
 20
82.019427
 30
0.0
 10
23.381052
 20
82.616327
 30
0.0
 10
24.104599
 20
83.276374
 30
0.0
 10
24.764647
 20
84.000979
 30
0.0
 10
25.362958
 20
84.778149
 30
0.0
 10
25.887891
 20
85.603649
 30
0.0
 10
26.339799
 20
86.471835
 30
0.0
 10
26.715860
 20
87.378826
 30
0.0
 10
27.010783
 20
88.312982
 30
0.0
 10
27.224566
 20
89.269363
 30
0.0
 10
27.351213
 20
90.240913
 30
0.0
 10
29.993166
 20
90.240913
 30
0.0
 10
30.119813
 20
89.269363
 30
0.0
  0
LWPOLYLINE
  5
13b
100
AcDbEntity
  8
outline
 62
5
100
AcDbPolyline
 90
18
 70
0
 10
27.224566
 20
68.151027
 30
0.0
 10
27.010783
 20
69.105996
 30
0.0
 10
26.715860
 20
70.041563
 30
0.0
 10
26.339799
 20
70.948202
 30
0.0
 10
25.887891
 20
71.816388
 30
0.0
 10
25.362958
 20
72.641888
 30
0.0
 10
24.764647
 20
73.419057
 30
0.0
 10
24.104599
 20
74.142605
 30
0.0
 10
23.381052
 20
74.804063
 30
0.0
 10
22.603883
 20
75.400610
 30
0.0
 10
21.778383
 20
75.925896
 30
0.0
 10
20.909138
 20
76.377805
 30
0.0
 10
20.002147
 20
76.753866
 30
0.0
 10
19.067991
 20
77.048788
 30
0.0
 10
18.113022
 20
77.262571
 30
0.0
 10
17.140061
 20
77.389218
 30
0.0
 10
17.140061
 20
80.030818
 30
0.0
 10
18.113022
 20
80.157818
 30
0.0
  0
LWPOLYLINE
  5
13c
100
AcDbEntity
  8
outline
 62
5
100
AcDbPolyline
 90
36
 70
0
 10
14.211652
 20
77.262571
 30
0.0
 10
13.256683
 20
77.048788
 30
0.0
 10
12.322527
 20
76.753866
 30
0.0
 10
11.415536
 20
76.377805
 30
0.0
 10
10.546291
 20
75.925896
 30
0.0
 10
9.720791
 20
75.400610
 30
0.0
 10
8.943622
 20
74.804063
 30
0.0
 10
8.220075
 20
74.142605
 30
0.0
 10
7.560028
 20
73.419057
 30
0.0
 10
6.961716
 20
72.641888
 30
0.0
 10
6.436783
 20
71.816388
 30
0.0
 10
5.984875
 20
70.948202
 30
0.0
 10
5.608461
 20
70.041563
 30
0.0
 10
5.313539
 20
69.105996
 30
0.0
 10
5.100108
 20
68.151027
 30
0.0
 10
4.973461
 20
67.178066
 30
0.0
 10
4.930775
 20
66.200871
 30
0.0
 10
4.973461
 20
65.222619
 30
0.0
 10
5.100108
 20
64.249658
 30
0.0
 10
5.313539
 20
63.294688
 30
0.0
 10
5.608461
 20
62.360533
 30
0.0
 10
5.984875
 20
61.453541
 30
0.0
 10
6.436783
 20
60.583944
 30
0.0
 10
6.961716
 20
59.758797
 30
0.0
 10
7.560028
 20
58.981274
 30
0.0
 10
8.220075
 20
58.258080
 30
0.0
 10
8.943622
 20
57.598033
 30
0.0
 10
9.720791
 20
57.001133
 30
0.0
 10
10.546291
 20
56.474788
 30
0.0
 10
11.415536
 20
56.022880
 30
0.0
 10
12.322527
 20
55.646466
 30
0.0
 10
13.256683
 20
55.351544
 30
0.0
 10
14.211652
 20
55.138113
 30
0.0
 10
15.184614
 20
55.011466
 30
0.0
 10
15.184614
 20
52.369513
 30
0.0
 10
14.211652
 20
52.242866
 30
0.0
  0
LWPOLYLINE
  5
13d
100
AcDbEntity
  8
outline
 62
5
100
AcDbPolyline
 90
18
 70
0
 10
18.113022
 20
55.138113
 30
0.0
 10
19.067991
 20
55.351544
 30
0.0
 10
20.002147
 20
55.646466
 30
0.0
 10
20.909138
 20
56.022880
 30
0.0
 10
21.778383
 20
56.474788
 30
0.0
 10
22.603883
 20
57.001133
 30
0.0
 10
23.381052
 20
57.598033
 30
0.0
 10
24.104599
 20
58.258080
 30
0.0
 10
24.764647
 20
58.981274
 30
0.0
 10
25.362958
 20
59.758797
 30
0.0
 10
25.887891
 20
60.583944
 30
0.0
 10
26.339799
 20
61.453541
 30
0.0
 10
26.715860
 20
62.360533
 30
0.0
 10
27.010783
 20
63.294688
 30
0.0
 10
27.224566
 20
64.249658
 30
0.0
 10
27.351213
 20
65.222619
 30
0.0
 10
29.993166
 20
65.222619
 30
0.0
 10
30.119813
 20
64.249658
 30
0.0
  0
LWPOLYLINE
  5
13e
100
AcDbEntity
  8
outline
 62
5
100
AcDbPolyline
 90
18
 70
0
 10
27.224566
 20
43.132733
 30
0.0
 10
27.010783
 20
44.087703
 30
0.0
 10
26.715860
 20
45.021858
 30
0.0
 10
26.339799
 20
45.928497
 30
0.0
 10
25.887891
 20
46.796683
 30
0.0
 10
25.362958
 20
47.622183
 30
0.0
 10
24.764647
 20
48.399352
 30
0.0
 10
24.104599
 20
49.124311
 30
0.0
 10
23.381052
 20
49.784358
 30
0.0
 10
22.603883
 20
50.380905
 30
0.0
 10
21.778383
 20
50.907602
 30
0.0
 10
20.909138
 20
51.359511
 30
0.0
 10
20.002147
 20
51.735572
 30
0.0
 10
19.067991
 20
52.029083
 30
0.0
 10
18.113022
 20
52.242866
 30
0.0
 10
17.140061
 20
52.369513
 30
0.0
 10
17.140061
 20
55.011466
 30
0.0
 10
18.113022
 20
55.138113
 30
0.0
  0
LWPOLYLINE
  5
13f
100
AcDbEntity
  8
outline
 62
5
100
AcDbPolyline
 90
36
 70
0
 10
14.211652
 20
52.242866
 30
0.0
 10
13.256683
 20
52.029083
 30
0.0
 10
12.322527
 20
51.735572
 30
0.0
 10
11.415536
 20
51.359511
 30
0.0
 10
10.546291
 20
50.907602
 30
0.0
 10
9.720791
 20
50.380905
 30
0.0
 10
8.943622
 20
49.784358
 30
0.0
 10
8.220075
 20
49.124311
 30
0.0
 10
7.560028
 20
48.399352
 30
0.0
 10
6.961716
 20
47.622183
 30
0.0
 10
6.436783
 20
46.796683
 30
0.0
 10
5.984875
 20
45.928497
 30
0.0
 10
5.608461
 20
45.021858
 30
0.0
 10
5.313539
 20
44.087703
 30
0.0
 10
5.100108
 20
43.132733
 30
0.0
 10
4.973461
 20
42.159772
 30
0.0
 10
4.930775
 20
41.181167
 30
0.0
 10
4.973461
 20
40.202914
 30
0.0
 10
5.100108
 20
39.231364
 30
0.0
 10
5.313539
 20
38.274983
 30
0.0
 10
5.608461
 20
37.340828
 30
0.0
 10
5.984875
 20
36.433836
 30
0.0
 10
6.436783
 20
35.565650
 30
0.0
 10
6.961716
 20
34.740503
 30
0.0
 10
7.560028
 20
33.962981
 30
0.0
 10
8.220075
 20
33.238375
 30
0.0
 10
8.943622
 20
32.578328
 30
0.0
 10
9.720791
 20
31.981428
 30
0.0
 10
10.546291
 20
31.455083
 30
0.0
 10
11.415536
 20
31.003175
 30
0.0
 10
12.322527
 20
30.628172
 30
0.0
 10
13.256683
 20
30.333250
 30
0.0
 10
14.211652
 20
30.119820
 30
0.0
 10
15.184614
 20
29.993172
 30
0.0
 10
15.184614
 20
27.351220
 30
0.0
 10
14.211652
 20
27.224572
 30
0.0
  0
LWPOLYLINE
  5
140
100
AcDbEntity
  8
outline
 62
5
100
AcDbPolyline
 90
18
 70
0
 10
18.113022
 20
30.119820
 30
0.0
 10
19.067991
 20
30.333250
 30
0.0
 10
20.002147
 20
30.628172
 30
0.0
 10
20.909138
 20
31.003175
 30
0.0
 10
21.778383
 20
31.455083
 30
0.0
 10
22.603883
 20
31.981428
 30
0.0
 10
23.381052
 20
32.578328
 30
0.0
 10
24.104599
 20
33.238375
 30
0.0
 10
24.764647
 20
33.962981
 30
0.0
 10
25.362958
 20
34.740503
 30
0.0
 10
25.887891
 20
35.565650
 30
0.0
 10
26.339799
 20
36.433836
 30
0.0
 10
26.715860
 20
37.340828
 30
0.0
 10
27.010783
 20
38.274983
 30
0.0
 10
27.224566
 20
39.231364
 30
0.0
 10
27.351213
 20
40.202914
 30
0.0
 10
29.993166
 20
40.202914
 30
0.0
 10
30.119813
 20
39.231364
 30
0.0
  0
ENDSEC
  0
SECTION
  2
OBJECTS
  0
DICTIONARY
  5
C
330
0
100
AcDbDictionary
  3
ACAD_GROUP
350
D
  3
ACAD_MLINESTYLE
350
17
  0
DICTIONARY
  5
D
330
C
100
AcDbDictionary
  0
DICTIONARY
  5
1A
330
C
100
AcDbDictionary
  0
DICTIONARY
  5
17
330
C
100
AcDbDictionary
  3
STANDARD
350
18
  0
DICTIONARY
  5
19
330
C
100
AcDbDictionary
  0
ENDSEC
  0
EOF
