G04 This is an RS-274x file exported by *
G04 gerbv version 2.6.0 *
G04 More information is available about gerbv at *
G04 http://gerbv.gpleda.org/ *
G04 --End of header info--*
%MOIN*%
%FSLAX34Y34*%
%IPPOS*%
G04 --Define apertures--*
%ADD10C,0.1090*%
%ADD11C,0.0394*%
%ADD12C,0.1890*%
%ADD13C,0.0893*%
G04 --Start main section--*
G36*
G01X0000417Y0000000D02*
G01X0000416Y0000036D01*
G01X0000411Y0000072D01*
G01X0000403Y0000108D01*
G01X0000392Y0000143D01*
G01X0000378Y0000176D01*
G01X0000361Y0000209D01*
G01X0000342Y0000239D01*
G01X0000320Y0000268D01*
G01X0000295Y0000295D01*
G01X0000268Y0000320D01*
G01X0000239Y0000342D01*
G01X0000209Y0000361D01*
G01X0000176Y0000378D01*
G01X0000143Y0000392D01*
G01X0000108Y0000403D01*
G01X0000072Y0000411D01*
G01X0000036Y0000416D01*
G01X0000000Y0000417D01*
G01X-000036Y0000416D01*
G01X-000072Y0000411D01*
G01X-000108Y0000403D01*
G01X-000143Y0000392D01*
G01X-000176Y0000378D01*
G01X-000209Y0000361D01*
G01X-000239Y0000342D01*
G01X-000268Y0000320D01*
G01X-000295Y0000295D01*
G01X-000320Y0000268D01*
G01X-000342Y0000239D01*
G01X-000361Y0000209D01*
G01X-000378Y0000176D01*
G01X-000392Y0000143D01*
G01X-000403Y0000108D01*
G01X-000411Y0000072D01*
G01X-000416Y0000036D01*
G01X-000417Y0000000D01*
G01X-000416Y-000036D01*
G01X-000411Y-000072D01*
G01X-000403Y-000108D01*
G01X-000392Y-000143D01*
G01X-000378Y-000176D01*
G01X-000361Y-000209D01*
G01X-000342Y-000239D01*
G01X-000320Y-000268D01*
G01X-000295Y-000295D01*
G01X-000268Y-000320D01*
G01X-000239Y-000342D01*
G01X-000209Y-000361D01*
G01X-000176Y-000378D01*
G01X-000143Y-000392D01*
G01X-000108Y-000403D01*
G01X-000072Y-000411D01*
G01X-000036Y-000416D01*
G01X0000000Y-000417D01*
G01X0000036Y-000416D01*
G01X0000072Y-000411D01*
G01X0000108Y-000403D01*
G01X0000143Y-000392D01*
G01X0000176Y-000378D01*
G01X0000209Y-000361D01*
G01X0000239Y-000342D01*
G01X0000268Y-000320D01*
G01X0000295Y-000295D01*
G01X0000320Y-000268D01*
G01X0000342Y-000239D01*
G01X0000361Y-000209D01*
G01X0000378Y-000176D01*
G01X0000392Y-000143D01*
G01X0000403Y-000108D01*
G01X0000411Y-000072D01*
G01X0000416Y-000036D01*
G01X0000417Y0000000D01*
G37*
G36*
G01X0000417Y0000000D02*
G37*
G54D10*
G01X0001484Y0000000D02*
G01X0001479Y0000129D01*
G01X0001479Y0000129D02*
G01X0001462Y0000258D01*
G01X0001462Y0000258D02*
G01X0001434Y0000384D01*
G01X0001434Y0000384D02*
G01X0001395Y0000508D01*
G01X0001395Y0000508D02*
G01X0001345Y0000627D01*
G01X0001345Y0000627D02*
G01X0001285Y0000742D01*
G01X0001285Y0000742D02*
G01X0001216Y0000851D01*
G01X0001216Y0000851D02*
G01X0001137Y0000954D01*
G01X0001137Y0000954D02*
G01X0001050Y0001050D01*
G01X0001050Y0001050D02*
G01X0000954Y0001137D01*
G01X0000954Y0001137D02*
G01X0000851Y0001216D01*
G01X0000851Y0001216D02*
G01X0000742Y0001285D01*
G01X0000742Y0001285D02*
G01X0000627Y0001345D01*
G01X0000627Y0001345D02*
G01X0000508Y0001395D01*
G01X0000508Y0001395D02*
G01X0000384Y0001434D01*
G01X0000384Y0001434D02*
G01X0000258Y0001462D01*
G01X0000258Y0001462D02*
G01X0000129Y0001479D01*
G01X0000129Y0001479D02*
G01X0000000Y0001484D01*
G01X0000000Y0001484D02*
G01X-000129Y0001479D01*
G01X-000129Y0001479D02*
G01X-000258Y0001462D01*
G01X-000258Y0001462D02*
G01X-000384Y0001434D01*
G01X-000384Y0001434D02*
G01X-000508Y0001395D01*
G01X-000508Y0001395D02*
G01X-000627Y0001345D01*
G01X-000627Y0001345D02*
G01X-000742Y0001285D01*
G01X-000742Y0001285D02*
G01X-000851Y0001216D01*
G01X-000851Y0001216D02*
G01X-000954Y0001137D01*
G01X-000954Y0001137D02*
G01X-001050Y0001050D01*
G01X-001050Y0001050D02*
G01X-001137Y0000954D01*
G01X-001137Y0000954D02*
G01X-001216Y0000851D01*
G01X-001216Y0000851D02*
G01X-001285Y0000742D01*
G01X-001285Y0000742D02*
G01X-001345Y0000627D01*
G01X-001345Y0000627D02*
G01X-001395Y0000508D01*
G01X-001395Y0000508D02*
G01X-001434Y0000384D01*
G01X-001434Y0000384D02*
G01X-001462Y0000258D01*
G01X-001462Y0000258D02*
G01X-001479Y0000129D01*
G01X-001479Y0000129D02*
G01X-001484Y0000000D01*
G01X-001484Y0000000D02*
G01X-001479Y-000129D01*
G01X-001479Y-000129D02*
G01X-001462Y-000258D01*
G01X-001462Y-000258D02*
G01X-001434Y-000384D01*
G01X-001434Y-000384D02*
G01X-001395Y-000508D01*
G01X-001395Y-000508D02*
G01X-001345Y-000627D01*
G01X-001345Y-000627D02*
G01X-001285Y-000742D01*
G01X-001285Y-000742D02*
G01X-001216Y-000851D01*
G01X-001216Y-000851D02*
G01X-001137Y-000954D01*
G01X-001137Y-000954D02*
G01X-001050Y-001050D01*
G01X-001050Y-001050D02*
G01X-000954Y-001137D01*
G01X-000954Y-001137D02*
G01X-000851Y-001216D01*
G01X-000851Y-001216D02*
G01X-000742Y-001285D01*
G01X-000742Y-001285D02*
G01X-000627Y-001345D01*
G01X-000627Y-001345D02*
G01X-000508Y-001395D01*
G01X-000508Y-001395D02*
G01X-000384Y-001434D01*
G01X-000384Y-001434D02*
G01X-000258Y-001462D01*
G01X-000258Y-001462D02*
G01X-000129Y-001479D01*
G01X-000129Y-001479D02*
G01X0000000Y-001484D01*
G01X0000000Y-001484D02*
G01X0000129Y-001479D01*
G01X0000129Y-001479D02*
G01X0000258Y-001462D01*
G01X0000258Y-001462D02*
G01X0000384Y-001434D01*
G01X0000384Y-001434D02*
G01X0000508Y-001395D01*
G01X0000508Y-001395D02*
G01X0000627Y-001345D01*
G01X0000627Y-001345D02*
G01X0000742Y-001285D01*
G01X0000742Y-001285D02*
G01X0000851Y-001216D01*
G01X0000851Y-001216D02*
G01X0000954Y-001137D01*
G01X0000954Y-001137D02*
G01X0001050Y-001050D01*
G01X0001050Y-001050D02*
G01X0001137Y-000954D01*
G01X0001137Y-000954D02*
G01X0001216Y-000851D01*
G01X0001216Y-000851D02*
G01X0001285Y-000742D01*
G01X0001285Y-000742D02*
G01X0001345Y-000627D01*
G01X0001345Y-000627D02*
G01X0001395Y-000508D01*
G01X0001395Y-000508D02*
G01X0001434Y-000384D01*
G01X0001434Y-000384D02*
G01X0001462Y-000258D01*
G01X0001462Y-000258D02*
G01X0001479Y-000129D01*
G01X0001479Y-000129D02*
G01X0001484Y0000000D01*
G54D11*
G01X0000612Y0003981D02*
G01X0000254Y0004020D01*
G01X0000254Y0004020D02*
G01X-000106Y0004027D01*
G01X-000106Y0004027D02*
G01X-000466Y0004001D01*
G01X-000466Y0004001D02*
G01X-000821Y0003943D01*
G01X-000821Y0003943D02*
G01X-001171Y0003854D01*
G01X-001171Y0003854D02*
G01X-001510Y0003734D01*
G01X-001510Y0003734D02*
G01X-001838Y0003584D01*
G01X-001838Y0003584D02*
G01X-002151Y0003406D01*
G01X-002151Y0003406D02*
G01X-002447Y0003200D01*
G01X-002447Y0003200D02*
G01X-002723Y0002968D01*
G01X-002723Y0002968D02*
G01X-002978Y0002713D01*
G01X-002978Y0002713D02*
G01X-003208Y0002436D01*
G01X-003208Y0002436D02*
G01X-003413Y0002139D01*
G01X-003413Y0002139D02*
G01X-003591Y0001826D01*
G01X0000515Y0003350D02*
G01X0000172Y0003385D01*
G01X0000172Y0003385D02*
G01X-000172Y0003385D01*
G01X-000172Y0003385D02*
G01X-000515Y0003350D01*
G01X0000612Y0003981D02*
G01X0000515Y0003350D01*
G01X-000309Y0002006D02*
G01X-000515Y0003350D01*
G01X0000000Y0000000D02*
G01X-000814Y0000470D01*
G01X-003754Y-001460D02*
G01X-003609Y-001790D01*
G01X-003609Y-001790D02*
G01X-003434Y-002105D01*
G01X-003434Y-002105D02*
G01X-003232Y-002404D01*
G01X-003232Y-002404D02*
G01X-003004Y-002683D01*
G01X-003004Y-002683D02*
G01X-002752Y-002941D01*
G01X-002752Y-002941D02*
G01X-002479Y-003175D01*
G01X-002479Y-003175D02*
G01X-002185Y-003384D01*
G01X-002185Y-003384D02*
G01X-001874Y-003566D01*
G01X-001874Y-003566D02*
G01X-001547Y-003719D01*
G01X-001547Y-003719D02*
G01X-001209Y-003842D01*
G01X-001209Y-003842D02*
G01X-000861Y-003935D01*
G01X-000861Y-003935D02*
G01X-000505Y-003996D01*
G01X-000505Y-003996D02*
G01X-000146Y-004025D01*
G01X-000146Y-004025D02*
G01X0000214Y-004022D01*
G01X-003158Y-001229D02*
G01X-003017Y-001543D01*
G01X-003017Y-001543D02*
G01X-002845Y-001842D01*
G01X-002845Y-001842D02*
G01X-002643Y-002121D01*
G01X-003754Y-001460D02*
G01X-003158Y-001229D01*
G01X-001583Y-001270D02*
G01X-002643Y-002121D01*
G01X0000000Y0000000D02*
G01X0000000Y-000939D01*
G01X0003142Y-002521D02*
G01X0003354Y-002230D01*
G01X0003354Y-002230D02*
G01X0003540Y-001921D01*
G01X0003540Y-001921D02*
G01X0003698Y-001597D01*
G01X0003698Y-001597D02*
G01X0003826Y-001260D01*
G01X0003826Y-001260D02*
G01X0003923Y-000913D01*
G01X0003923Y-000913D02*
G01X0003989Y-000559D01*
G01X0003989Y-000559D02*
G01X0004023Y-000200D01*
G01X0004023Y-000200D02*
G01X0004025Y0000160D01*
G01X0004025Y0000160D02*
G01X0003994Y0000519D01*
G01X0003994Y0000519D02*
G01X0003932Y0000874D01*
G01X0003932Y0000874D02*
G01X0003838Y0001222D01*
G01X0003838Y0001222D02*
G01X0003714Y0001560D01*
G01X0003714Y0001560D02*
G01X0003559Y0001886D01*
G01X0003559Y0001886D02*
G01X0003376Y0002197D01*
G01X0002643Y-002121D02*
G01X0002845Y-001842D01*
G01X0002845Y-001842D02*
G01X0003017Y-001543D01*
G01X0003017Y-001543D02*
G01X0003158Y-001229D01*
G01X0003142Y-002521D02*
G01X0002643Y-002121D01*
G01X0001891Y-000736D02*
G01X0003158Y-001229D01*
G01X0000000Y0000000D02*
G01X0000814Y0000470D01*
G01X0023775Y0029775D02*
G54D12*
G01X0023775Y0029775D03*
G01X0017775Y0029775D02*
G01X0017775Y0029775D03*
G01X0029775Y0023775D02*
G01X0029775Y0023775D03*
G01X0023775Y0023775D02*
G01X0023775Y0023775D03*
G01X0017775Y0023775D02*
G01X0017775Y0023775D03*
G01X0029775Y0017775D02*
G01X0029775Y0017775D03*
G01X0023775Y0017775D02*
G01X0023775Y0017775D03*
G01X0017775Y0017775D02*
G01X0017775Y0017775D03*
G01X0029550Y0009850D02*
G01X0029550Y0009850D03*
G54D13*
G01X0032058Y0009850D02*
G01X0032049Y0010069D01*
G01X0032049Y0010069D02*
G01X0032020Y0010286D01*
G01X0032020Y0010286D02*
G01X0031973Y0010499D01*
G01X0031973Y0010499D02*
G01X0031907Y0010708D01*
G01X0031907Y0010708D02*
G01X0031823Y0010910D01*
G01X0031823Y0010910D02*
G01X0031722Y0011104D01*
G01X0031722Y0011104D02*
G01X0031605Y0011289D01*
G01X0031605Y0011289D02*
G01X0031471Y0011462D01*
G01X0031471Y0011462D02*
G01X0031324Y0011624D01*
G01X0031324Y0011624D02*
G01X0031162Y0011771D01*
G01X0031162Y0011771D02*
G01X0030989Y0011905D01*
G01X0030989Y0011905D02*
G01X0030804Y0012022D01*
G01X0030804Y0012022D02*
G01X0030610Y0012123D01*
G01X0030610Y0012123D02*
G01X0030408Y0012207D01*
G01X0030408Y0012207D02*
G01X0030199Y0012273D01*
G01X0030199Y0012273D02*
G01X0029986Y0012320D01*
G01X0029986Y0012320D02*
G01X0029769Y0012349D01*
G01X0029769Y0012349D02*
G01X0029550Y0012358D01*
G01X0029550Y0012358D02*
G01X0029331Y0012349D01*
G01X0029331Y0012349D02*
G01X0029114Y0012320D01*
G01X0029114Y0012320D02*
G01X0028901Y0012273D01*
G01X0028901Y0012273D02*
G01X0028692Y0012207D01*
G01X0028692Y0012207D02*
G01X0028490Y0012123D01*
G01X0028490Y0012123D02*
G01X0028296Y0012022D01*
G01X0028296Y0012022D02*
G01X0028111Y0011905D01*
G01X0028111Y0011905D02*
G01X0027938Y0011771D01*
G01X0027938Y0011771D02*
G01X0027776Y0011624D01*
G01X0027776Y0011624D02*
G01X0027629Y0011462D01*
G01X0027629Y0011462D02*
G01X0027495Y0011289D01*
G01X0027495Y0011289D02*
G01X0027378Y0011104D01*
G01X0027378Y0011104D02*
G01X0027277Y0010910D01*
G01X0027277Y0010910D02*
G01X0027193Y0010708D01*
G01X0027193Y0010708D02*
G01X0027127Y0010499D01*
G01X0027127Y0010499D02*
G01X0027080Y0010286D01*
G01X0027080Y0010286D02*
G01X0027051Y0010069D01*
G01X0027051Y0010069D02*
G01X0027042Y0009850D01*
G01X0027042Y0009850D02*
G01X0027051Y0009631D01*
G01X0027051Y0009631D02*
G01X0027080Y0009414D01*
G01X0027080Y0009414D02*
G01X0027127Y0009201D01*
G01X0027127Y0009201D02*
G01X0027193Y0008992D01*
G01X0027193Y0008992D02*
G01X0027277Y0008790D01*
G01X0027277Y0008790D02*
G01X0027378Y0008596D01*
G01X0027378Y0008596D02*
G01X0027495Y0008411D01*
G01X0027495Y0008411D02*
G01X0027629Y0008238D01*
G01X0027629Y0008238D02*
G01X0027776Y0008076D01*
G01X0027776Y0008076D02*
G01X0027938Y0007929D01*
G01X0027938Y0007929D02*
G01X0028111Y0007795D01*
G01X0028111Y0007795D02*
G01X0028296Y0007678D01*
G01X0028296Y0007678D02*
G01X0028490Y0007577D01*
G01X0028490Y0007577D02*
G01X0028692Y0007493D01*
G01X0028692Y0007493D02*
G01X0028901Y0007427D01*
G01X0028901Y0007427D02*
G01X0029114Y0007380D01*
G01X0029114Y0007380D02*
G01X0029331Y0007351D01*
G01X0029331Y0007351D02*
G01X0029550Y0007342D01*
G01X0029550Y0007342D02*
G01X0029769Y0007351D01*
G01X0029769Y0007351D02*
G01X0029986Y0007380D01*
G01X0029986Y0007380D02*
G01X0030199Y0007427D01*
G01X0030199Y0007427D02*
G01X0030408Y0007493D01*
G01X0030408Y0007493D02*
G01X0030610Y0007577D01*
G01X0030610Y0007577D02*
G01X0030804Y0007678D01*
G01X0030804Y0007678D02*
G01X0030989Y0007795D01*
G01X0030989Y0007795D02*
G01X0031162Y0007929D01*
G01X0031162Y0007929D02*
G01X0031324Y0008076D01*
G01X0031324Y0008076D02*
G01X0031471Y0008238D01*
G01X0031471Y0008238D02*
G01X0031605Y0008411D01*
G01X0031605Y0008411D02*
G01X0031722Y0008596D01*
G01X0031722Y0008596D02*
G01X0031823Y0008790D01*
G01X0031823Y0008790D02*
G01X0031907Y0008992D01*
G01X0031907Y0008992D02*
G01X0031973Y0009201D01*
G01X0031973Y0009201D02*
G01X0032020Y0009414D01*
G01X0032020Y0009414D02*
G01X0032049Y0009631D01*
G01X0032049Y0009631D02*
G01X0032058Y0009850D01*
G54D11*
G01X0030162Y0013831D02*
G01X0029804Y0013870D01*
G01X0029804Y0013870D02*
G01X0029444Y0013877D01*
G01X0029444Y0013877D02*
G01X0029084Y0013851D01*
G01X0029084Y0013851D02*
G01X0028729Y0013793D01*
G01X0028729Y0013793D02*
G01X0028379Y0013704D01*
G01X0028379Y0013704D02*
G01X0028040Y0013584D01*
G01X0028040Y0013584D02*
G01X0027712Y0013434D01*
G01X0027712Y0013434D02*
G01X0027399Y0013256D01*
G01X0027399Y0013256D02*
G01X0027103Y0013050D01*
G01X0027103Y0013050D02*
G01X0026827Y0012818D01*
G01X0026827Y0012818D02*
G01X0026572Y0012563D01*
G01X0026572Y0012563D02*
G01X0026342Y0012286D01*
G01X0026342Y0012286D02*
G01X0026137Y0011989D01*
G01X0026137Y0011989D02*
G01X0025959Y0011676D01*
G01X0030065Y0013200D02*
G01X0029722Y0013235D01*
G01X0029722Y0013235D02*
G01X0029378Y0013235D01*
G01X0029378Y0013235D02*
G01X0029035Y0013200D01*
G01X0030162Y0013831D02*
G01X0030065Y0013200D01*
G01X0029101Y0012771D02*
G01X0029035Y0013200D01*
G01X0029550Y0009850D02*
G01X0027765Y0010881D01*
G01X0025796Y0008390D02*
G01X0025941Y0008060D01*
G01X0025941Y0008060D02*
G01X0026116Y0007745D01*
G01X0026116Y0007745D02*
G01X0026318Y0007446D01*
G01X0026318Y0007446D02*
G01X0026546Y0007167D01*
G01X0026546Y0007167D02*
G01X0026798Y0006909D01*
G01X0026798Y0006909D02*
G01X0027071Y0006675D01*
G01X0027071Y0006675D02*
G01X0027365Y0006466D01*
G01X0027365Y0006466D02*
G01X0027676Y0006284D01*
G01X0027676Y0006284D02*
G01X0028003Y0006131D01*
G01X0028003Y0006131D02*
G01X0028341Y0006008D01*
G01X0028341Y0006008D02*
G01X0028689Y0005915D01*
G01X0028689Y0005915D02*
G01X0029045Y0005854D01*
G01X0029045Y0005854D02*
G01X0029404Y0005825D01*
G01X0029404Y0005825D02*
G01X0029764Y0005828D01*
G01X0026392Y0008621D02*
G01X0026533Y0008307D01*
G01X0026533Y0008307D02*
G01X0026705Y0008008D01*
G01X0026705Y0008008D02*
G01X0026907Y0007729D01*
G01X0025796Y0008390D02*
G01X0026392Y0008621D01*
G01X0027245Y0008001D02*
G01X0026907Y0007729D01*
G01X0029550Y0009850D02*
G01X0029550Y0007788D01*
G01X0032692Y0007329D02*
G01X0032904Y0007620D01*
G01X0032904Y0007620D02*
G01X0033090Y0007929D01*
G01X0033090Y0007929D02*
G01X0033248Y0008253D01*
G01X0033248Y0008253D02*
G01X0033376Y0008590D01*
G01X0033376Y0008590D02*
G01X0033473Y0008937D01*
G01X0033473Y0008937D02*
G01X0033539Y0009291D01*
G01X0033539Y0009291D02*
G01X0033573Y0009650D01*
G01X0033573Y0009650D02*
G01X0033575Y0010010D01*
G01X0033575Y0010010D02*
G01X0033544Y0010369D01*
G01X0033544Y0010369D02*
G01X0033482Y0010724D01*
G01X0033482Y0010724D02*
G01X0033388Y0011072D01*
G01X0033388Y0011072D02*
G01X0033264Y0011410D01*
G01X0033264Y0011410D02*
G01X0033109Y0011736D01*
G01X0033109Y0011736D02*
G01X0032926Y0012047D01*
G01X0032193Y0007729D02*
G01X0032395Y0008008D01*
G01X0032395Y0008008D02*
G01X0032567Y0008307D01*
G01X0032567Y0008307D02*
G01X0032708Y0008621D01*
G01X0032692Y0007329D02*
G01X0032193Y0007729D01*
G01X0032304Y0008779D02*
G01X0032708Y0008621D01*
G01X0029550Y0009850D02*
G01X0031335Y0010881D01*
G01X0029550Y0000000D02*
G36*
G01X0029967Y0000000D02*
G01X0029966Y0000036D01*
G01X0029961Y0000072D01*
G01X0029953Y0000108D01*
G01X0029942Y0000143D01*
G01X0029928Y0000176D01*
G01X0029911Y0000209D01*
G01X0029892Y0000239D01*
G01X0029870Y0000268D01*
G01X0029845Y0000295D01*
G01X0029818Y0000320D01*
G01X0029789Y0000342D01*
G01X0029759Y0000361D01*
G01X0029726Y0000378D01*
G01X0029693Y0000392D01*
G01X0029658Y0000403D01*
G01X0029622Y0000411D01*
G01X0029586Y0000416D01*
G01X0029550Y0000417D01*
G01X0029514Y0000416D01*
G01X0029478Y0000411D01*
G01X0029442Y0000403D01*
G01X0029407Y0000392D01*
G01X0029374Y0000378D01*
G01X0029341Y0000361D01*
G01X0029311Y0000342D01*
G01X0029282Y0000320D01*
G01X0029255Y0000295D01*
G01X0029230Y0000268D01*
G01X0029208Y0000239D01*
G01X0029189Y0000209D01*
G01X0029172Y0000176D01*
G01X0029158Y0000143D01*
G01X0029147Y0000108D01*
G01X0029139Y0000072D01*
G01X0029134Y0000036D01*
G01X0029133Y0000000D01*
G01X0029134Y-000036D01*
G01X0029139Y-000072D01*
G01X0029147Y-000108D01*
G01X0029158Y-000143D01*
G01X0029172Y-000176D01*
G01X0029189Y-000209D01*
G01X0029208Y-000239D01*
G01X0029230Y-000268D01*
G01X0029255Y-000295D01*
G01X0029282Y-000320D01*
G01X0029311Y-000342D01*
G01X0029341Y-000361D01*
G01X0029374Y-000378D01*
G01X0029407Y-000392D01*
G01X0029442Y-000403D01*
G01X0029478Y-000411D01*
G01X0029514Y-000416D01*
G01X0029550Y-000417D01*
G01X0029586Y-000416D01*
G01X0029622Y-000411D01*
G01X0029658Y-000403D01*
G01X0029693Y-000392D01*
G01X0029726Y-000378D01*
G01X0029759Y-000361D01*
G01X0029789Y-000342D01*
G01X0029818Y-000320D01*
G01X0029845Y-000295D01*
G01X0029870Y-000268D01*
G01X0029892Y-000239D01*
G01X0029911Y-000209D01*
G01X0029928Y-000176D01*
G01X0029942Y-000143D01*
G01X0029953Y-000108D01*
G01X0029961Y-000072D01*
G01X0029966Y-000036D01*
G01X0029967Y0000000D01*
G37*
G36*
G01X0029967Y0000000D02*
G37*
G54D10*
G01X0031034Y0000000D02*
G01X0031029Y0000129D01*
G01X0031029Y0000129D02*
G01X0031012Y0000258D01*
G01X0031012Y0000258D02*
G01X0030984Y0000384D01*
G01X0030984Y0000384D02*
G01X0030945Y0000508D01*
G01X0030945Y0000508D02*
G01X0030895Y0000627D01*
G01X0030895Y0000627D02*
G01X0030835Y0000742D01*
G01X0030835Y0000742D02*
G01X0030766Y0000851D01*
G01X0030766Y0000851D02*
G01X0030687Y0000954D01*
G01X0030687Y0000954D02*
G01X0030600Y0001050D01*
G01X0030600Y0001050D02*
G01X0030504Y0001137D01*
G01X0030504Y0001137D02*
G01X0030401Y0001216D01*
G01X0030401Y0001216D02*
G01X0030292Y0001285D01*
G01X0030292Y0001285D02*
G01X0030177Y0001345D01*
G01X0030177Y0001345D02*
G01X0030058Y0001395D01*
G01X0030058Y0001395D02*
G01X0029934Y0001434D01*
G01X0029934Y0001434D02*
G01X0029808Y0001462D01*
G01X0029808Y0001462D02*
G01X0029679Y0001479D01*
G01X0029679Y0001479D02*
G01X0029550Y0001484D01*
G01X0029550Y0001484D02*
G01X0029421Y0001479D01*
G01X0029421Y0001479D02*
G01X0029292Y0001462D01*
G01X0029292Y0001462D02*
G01X0029166Y0001434D01*
G01X0029166Y0001434D02*
G01X0029042Y0001395D01*
G01X0029042Y0001395D02*
G01X0028923Y0001345D01*
G01X0028923Y0001345D02*
G01X0028808Y0001285D01*
G01X0028808Y0001285D02*
G01X0028699Y0001216D01*
G01X0028699Y0001216D02*
G01X0028596Y0001137D01*
G01X0028596Y0001137D02*
G01X0028500Y0001050D01*
G01X0028500Y0001050D02*
G01X0028413Y0000954D01*
G01X0028413Y0000954D02*
G01X0028334Y0000851D01*
G01X0028334Y0000851D02*
G01X0028265Y0000742D01*
G01X0028265Y0000742D02*
G01X0028205Y0000627D01*
G01X0028205Y0000627D02*
G01X0028155Y0000508D01*
G01X0028155Y0000508D02*
G01X0028116Y0000384D01*
G01X0028116Y0000384D02*
G01X0028088Y0000258D01*
G01X0028088Y0000258D02*
G01X0028071Y0000129D01*
G01X0028071Y0000129D02*
G01X0028066Y0000000D01*
G01X0028066Y0000000D02*
G01X0028071Y-000129D01*
G01X0028071Y-000129D02*
G01X0028088Y-000258D01*
G01X0028088Y-000258D02*
G01X0028116Y-000384D01*
G01X0028116Y-000384D02*
G01X0028155Y-000508D01*
G01X0028155Y-000508D02*
G01X0028205Y-000627D01*
G01X0028205Y-000627D02*
G01X0028265Y-000742D01*
G01X0028265Y-000742D02*
G01X0028334Y-000851D01*
G01X0028334Y-000851D02*
G01X0028413Y-000954D01*
G01X0028413Y-000954D02*
G01X0028500Y-001050D01*
G01X0028500Y-001050D02*
G01X0028596Y-001137D01*
G01X0028596Y-001137D02*
G01X0028699Y-001216D01*
G01X0028699Y-001216D02*
G01X0028808Y-001285D01*
G01X0028808Y-001285D02*
G01X0028923Y-001345D01*
G01X0028923Y-001345D02*
G01X0029042Y-001395D01*
G01X0029042Y-001395D02*
G01X0029166Y-001434D01*
G01X0029166Y-001434D02*
G01X0029292Y-001462D01*
G01X0029292Y-001462D02*
G01X0029421Y-001479D01*
G01X0029421Y-001479D02*
G01X0029550Y-001484D01*
G01X0029550Y-001484D02*
G01X0029679Y-001479D01*
G01X0029679Y-001479D02*
G01X0029808Y-001462D01*
G01X0029808Y-001462D02*
G01X0029934Y-001434D01*
G01X0029934Y-001434D02*
G01X0030058Y-001395D01*
G01X0030058Y-001395D02*
G01X0030177Y-001345D01*
G01X0030177Y-001345D02*
G01X0030292Y-001285D01*
G01X0030292Y-001285D02*
G01X0030401Y-001216D01*
G01X0030401Y-001216D02*
G01X0030504Y-001137D01*
G01X0030504Y-001137D02*
G01X0030600Y-001050D01*
G01X0030600Y-001050D02*
G01X0030687Y-000954D01*
G01X0030687Y-000954D02*
G01X0030766Y-000851D01*
G01X0030766Y-000851D02*
G01X0030835Y-000742D01*
G01X0030835Y-000742D02*
G01X0030895Y-000627D01*
G01X0030895Y-000627D02*
G01X0030945Y-000508D01*
G01X0030945Y-000508D02*
G01X0030984Y-000384D01*
G01X0030984Y-000384D02*
G01X0031012Y-000258D01*
G01X0031012Y-000258D02*
G01X0031029Y-000129D01*
G01X0031029Y-000129D02*
G01X0031034Y0000000D01*
G54D11*
G01X0028938Y0003981D02*
G01X0029296Y0004020D01*
G01X0029296Y0004020D02*
G01X0029656Y0004027D01*
G01X0029656Y0004027D02*
G01X0030016Y0004001D01*
G01X0030016Y0004001D02*
G01X0030371Y0003943D01*
G01X0030371Y0003943D02*
G01X0030721Y0003854D01*
G01X0030721Y0003854D02*
G01X0031060Y0003734D01*
G01X0031060Y0003734D02*
G01X0031388Y0003584D01*
G01X0031388Y0003584D02*
G01X0031701Y0003406D01*
G01X0031701Y0003406D02*
G01X0031997Y0003200D01*
G01X0031997Y0003200D02*
G01X0032273Y0002968D01*
G01X0032273Y0002968D02*
G01X0032528Y0002713D01*
G01X0032528Y0002713D02*
G01X0032758Y0002436D01*
G01X0032758Y0002436D02*
G01X0032963Y0002139D01*
G01X0032963Y0002139D02*
G01X0033141Y0001826D01*
G01X0029035Y0003350D02*
G01X0029378Y0003385D01*
G01X0029378Y0003385D02*
G01X0029722Y0003385D01*
G01X0029722Y0003385D02*
G01X0030065Y0003350D01*
G01X0028938Y0003981D02*
G01X0029035Y0003350D01*
G01X0029859Y0002006D02*
G01X0030065Y0003350D01*
G01X0029550Y0000000D02*
G01X0028736Y0000470D01*
G01X0026408Y-002521D02*
G01X0026196Y-002230D01*
G01X0026196Y-002230D02*
G01X0026010Y-001921D01*
G01X0026010Y-001921D02*
G01X0025852Y-001597D01*
G01X0025852Y-001597D02*
G01X0025724Y-001260D01*
G01X0025724Y-001260D02*
G01X0025627Y-000913D01*
G01X0025627Y-000913D02*
G01X0025561Y-000559D01*
G01X0025561Y-000559D02*
G01X0025527Y-000200D01*
G01X0025527Y-000200D02*
G01X0025525Y0000160D01*
G01X0025525Y0000160D02*
G01X0025556Y0000519D01*
G01X0025556Y0000519D02*
G01X0025618Y0000874D01*
G01X0025618Y0000874D02*
G01X0025712Y0001222D01*
G01X0025712Y0001222D02*
G01X0025836Y0001560D01*
G01X0025836Y0001560D02*
G01X0025991Y0001886D01*
G01X0025991Y0001886D02*
G01X0026174Y0002197D01*
G01X0026907Y-002121D02*
G01X0026705Y-001842D01*
G01X0026705Y-001842D02*
G01X0026533Y-001543D01*
G01X0026533Y-001543D02*
G01X0026392Y-001229D01*
G01X0026408Y-002521D02*
G01X0026907Y-002121D01*
G01X0027659Y-000736D02*
G01X0026392Y-001229D01*
G01X0029550Y0000000D02*
G01X0029550Y-000939D01*
G01X0033304Y-001460D02*
G01X0033159Y-001790D01*
G01X0033159Y-001790D02*
G01X0032984Y-002105D01*
G01X0032984Y-002105D02*
G01X0032782Y-002404D01*
G01X0032782Y-002404D02*
G01X0032554Y-002683D01*
G01X0032554Y-002683D02*
G01X0032302Y-002941D01*
G01X0032302Y-002941D02*
G01X0032029Y-003175D01*
G01X0032029Y-003175D02*
G01X0031735Y-003384D01*
G01X0031735Y-003384D02*
G01X0031424Y-003566D01*
G01X0031424Y-003566D02*
G01X0031097Y-003719D01*
G01X0031097Y-003719D02*
G01X0030759Y-003842D01*
G01X0030759Y-003842D02*
G01X0030411Y-003935D01*
G01X0030411Y-003935D02*
G01X0030055Y-003996D01*
G01X0030055Y-003996D02*
G01X0029696Y-004025D01*
G01X0029696Y-004025D02*
G01X0029336Y-004022D01*
G01X0032708Y-001229D02*
G01X0032567Y-001543D01*
G01X0032567Y-001543D02*
G01X0032395Y-001842D01*
G01X0032395Y-001842D02*
G01X0032193Y-002121D01*
G01X0033304Y-001460D02*
G01X0032708Y-001229D01*
G01X0031133Y-001270D02*
G01X0032193Y-002121D01*
G01X0029550Y0000000D02*
G01X0030364Y0000470D01*
G01X0019700Y0009850D02*
G54D12*
G01X0019700Y0009850D03*
G54D13*
G01X0022208Y0009850D02*
G01X0022199Y0010069D01*
G01X0022199Y0010069D02*
G01X0022170Y0010286D01*
G01X0022170Y0010286D02*
G01X0022123Y0010499D01*
G01X0022123Y0010499D02*
G01X0022057Y0010708D01*
G01X0022057Y0010708D02*
G01X0021973Y0010910D01*
G01X0021973Y0010910D02*
G01X0021872Y0011104D01*
G01X0021872Y0011104D02*
G01X0021755Y0011289D01*
G01X0021755Y0011289D02*
G01X0021621Y0011462D01*
G01X0021621Y0011462D02*
G01X0021474Y0011624D01*
G01X0021474Y0011624D02*
G01X0021312Y0011771D01*
G01X0021312Y0011771D02*
G01X0021139Y0011905D01*
G01X0021139Y0011905D02*
G01X0020954Y0012022D01*
G01X0020954Y0012022D02*
G01X0020760Y0012123D01*
G01X0020760Y0012123D02*
G01X0020558Y0012207D01*
G01X0020558Y0012207D02*
G01X0020349Y0012273D01*
G01X0020349Y0012273D02*
G01X0020136Y0012320D01*
G01X0020136Y0012320D02*
G01X0019919Y0012349D01*
G01X0019919Y0012349D02*
G01X0019700Y0012358D01*
G01X0019700Y0012358D02*
G01X0019481Y0012349D01*
G01X0019481Y0012349D02*
G01X0019264Y0012320D01*
G01X0019264Y0012320D02*
G01X0019051Y0012273D01*
G01X0019051Y0012273D02*
G01X0018842Y0012207D01*
G01X0018842Y0012207D02*
G01X0018640Y0012123D01*
G01X0018640Y0012123D02*
G01X0018446Y0012022D01*
G01X0018446Y0012022D02*
G01X0018261Y0011905D01*
G01X0018261Y0011905D02*
G01X0018088Y0011771D01*
G01X0018088Y0011771D02*
G01X0017926Y0011624D01*
G01X0017926Y0011624D02*
G01X0017779Y0011462D01*
G01X0017779Y0011462D02*
G01X0017645Y0011289D01*
G01X0017645Y0011289D02*
G01X0017528Y0011104D01*
G01X0017528Y0011104D02*
G01X0017427Y0010910D01*
G01X0017427Y0010910D02*
G01X0017343Y0010708D01*
G01X0017343Y0010708D02*
G01X0017277Y0010499D01*
G01X0017277Y0010499D02*
G01X0017230Y0010286D01*
G01X0017230Y0010286D02*
G01X0017201Y0010069D01*
G01X0017201Y0010069D02*
G01X0017192Y0009850D01*
G01X0017192Y0009850D02*
G01X0017201Y0009631D01*
G01X0017201Y0009631D02*
G01X0017230Y0009414D01*
G01X0017230Y0009414D02*
G01X0017277Y0009201D01*
G01X0017277Y0009201D02*
G01X0017343Y0008992D01*
G01X0017343Y0008992D02*
G01X0017427Y0008790D01*
G01X0017427Y0008790D02*
G01X0017528Y0008596D01*
G01X0017528Y0008596D02*
G01X0017645Y0008411D01*
G01X0017645Y0008411D02*
G01X0017779Y0008238D01*
G01X0017779Y0008238D02*
G01X0017926Y0008076D01*
G01X0017926Y0008076D02*
G01X0018088Y0007929D01*
G01X0018088Y0007929D02*
G01X0018261Y0007795D01*
G01X0018261Y0007795D02*
G01X0018446Y0007678D01*
G01X0018446Y0007678D02*
G01X0018640Y0007577D01*
G01X0018640Y0007577D02*
G01X0018842Y0007493D01*
G01X0018842Y0007493D02*
G01X0019051Y0007427D01*
G01X0019051Y0007427D02*
G01X0019264Y0007380D01*
G01X0019264Y0007380D02*
G01X0019481Y0007351D01*
G01X0019481Y0007351D02*
G01X0019700Y0007342D01*
G01X0019700Y0007342D02*
G01X0019919Y0007351D01*
G01X0019919Y0007351D02*
G01X0020136Y0007380D01*
G01X0020136Y0007380D02*
G01X0020349Y0007427D01*
G01X0020349Y0007427D02*
G01X0020558Y0007493D01*
G01X0020558Y0007493D02*
G01X0020760Y0007577D01*
G01X0020760Y0007577D02*
G01X0020954Y0007678D01*
G01X0020954Y0007678D02*
G01X0021139Y0007795D01*
G01X0021139Y0007795D02*
G01X0021312Y0007929D01*
G01X0021312Y0007929D02*
G01X0021474Y0008076D01*
G01X0021474Y0008076D02*
G01X0021621Y0008238D01*
G01X0021621Y0008238D02*
G01X0021755Y0008411D01*
G01X0021755Y0008411D02*
G01X0021872Y0008596D01*
G01X0021872Y0008596D02*
G01X0021973Y0008790D01*
G01X0021973Y0008790D02*
G01X0022057Y0008992D01*
G01X0022057Y0008992D02*
G01X0022123Y0009201D01*
G01X0022123Y0009201D02*
G01X0022170Y0009414D01*
G01X0022170Y0009414D02*
G01X0022199Y0009631D01*
G01X0022199Y0009631D02*
G01X0022208Y0009850D01*
G54D11*
G01X0019088Y0013831D02*
G01X0019446Y0013870D01*
G01X0019446Y0013870D02*
G01X0019806Y0013877D01*
G01X0019806Y0013877D02*
G01X0020166Y0013851D01*
G01X0020166Y0013851D02*
G01X0020521Y0013793D01*
G01X0020521Y0013793D02*
G01X0020871Y0013704D01*
G01X0020871Y0013704D02*
G01X0021210Y0013584D01*
G01X0021210Y0013584D02*
G01X0021538Y0013434D01*
G01X0021538Y0013434D02*
G01X0021851Y0013256D01*
G01X0021851Y0013256D02*
G01X0022147Y0013050D01*
G01X0022147Y0013050D02*
G01X0022423Y0012818D01*
G01X0022423Y0012818D02*
G01X0022678Y0012563D01*
G01X0022678Y0012563D02*
G01X0022908Y0012286D01*
G01X0022908Y0012286D02*
G01X0023113Y0011989D01*
G01X0023113Y0011989D02*
G01X0023291Y0011676D01*
G01X0019185Y0013200D02*
G01X0019528Y0013235D01*
G01X0019528Y0013235D02*
G01X0019872Y0013235D01*
G01X0019872Y0013235D02*
G01X0020215Y0013200D01*
G01X0019088Y0013831D02*
G01X0019185Y0013200D01*
G01X0020149Y0012771D02*
G01X0020215Y0013200D01*
G01X0019700Y0009850D02*
G01X0017915Y0010881D01*
G01X0016558Y0007329D02*
G01X0016346Y0007620D01*
G01X0016346Y0007620D02*
G01X0016160Y0007929D01*
G01X0016160Y0007929D02*
G01X0016002Y0008253D01*
G01X0016002Y0008253D02*
G01X0015874Y0008590D01*
G01X0015874Y0008590D02*
G01X0015777Y0008937D01*
G01X0015777Y0008937D02*
G01X0015711Y0009291D01*
G01X0015711Y0009291D02*
G01X0015677Y0009650D01*
G01X0015677Y0009650D02*
G01X0015675Y0010010D01*
G01X0015675Y0010010D02*
G01X0015706Y0010369D01*
G01X0015706Y0010369D02*
G01X0015768Y0010724D01*
G01X0015768Y0010724D02*
G01X0015862Y0011072D01*
G01X0015862Y0011072D02*
G01X0015986Y0011410D01*
G01X0015986Y0011410D02*
G01X0016141Y0011736D01*
G01X0016141Y0011736D02*
G01X0016324Y0012047D01*
G01X0017057Y0007729D02*
G01X0016855Y0008008D01*
G01X0016855Y0008008D02*
G01X0016683Y0008307D01*
G01X0016683Y0008307D02*
G01X0016542Y0008621D01*
G01X0016558Y0007329D02*
G01X0017057Y0007729D01*
G01X0016946Y0008779D02*
G01X0016542Y0008621D01*
G01X0019700Y0009850D02*
G01X0019700Y0007788D01*
G01X0023454Y0008390D02*
G01X0023309Y0008060D01*
G01X0023309Y0008060D02*
G01X0023134Y0007745D01*
G01X0023134Y0007745D02*
G01X0022932Y0007446D01*
G01X0022932Y0007446D02*
G01X0022704Y0007167D01*
G01X0022704Y0007167D02*
G01X0022452Y0006909D01*
G01X0022452Y0006909D02*
G01X0022179Y0006675D01*
G01X0022179Y0006675D02*
G01X0021885Y0006466D01*
G01X0021885Y0006466D02*
G01X0021574Y0006284D01*
G01X0021574Y0006284D02*
G01X0021247Y0006131D01*
G01X0021247Y0006131D02*
G01X0020909Y0006008D01*
G01X0020909Y0006008D02*
G01X0020561Y0005915D01*
G01X0020561Y0005915D02*
G01X0020205Y0005854D01*
G01X0020205Y0005854D02*
G01X0019846Y0005825D01*
G01X0019846Y0005825D02*
G01X0019486Y0005828D01*
G01X0022858Y0008621D02*
G01X0022717Y0008307D01*
G01X0022717Y0008307D02*
G01X0022545Y0008008D01*
G01X0022545Y0008008D02*
G01X0022343Y0007729D01*
G01X0023454Y0008390D02*
G01X0022858Y0008621D01*
G01X0022005Y0008001D02*
G01X0022343Y0007729D01*
G01X0019700Y0009850D02*
G01X0021485Y0010881D01*
G01X0019700Y0000000D02*
G36*
G01X0020117Y0000000D02*
G01X0020116Y0000036D01*
G01X0020111Y0000072D01*
G01X0020103Y0000108D01*
G01X0020092Y0000143D01*
G01X0020078Y0000176D01*
G01X0020061Y0000209D01*
G01X0020042Y0000239D01*
G01X0020020Y0000268D01*
G01X0019995Y0000295D01*
G01X0019968Y0000320D01*
G01X0019939Y0000342D01*
G01X0019909Y0000361D01*
G01X0019876Y0000378D01*
G01X0019843Y0000392D01*
G01X0019808Y0000403D01*
G01X0019772Y0000411D01*
G01X0019736Y0000416D01*
G01X0019700Y0000417D01*
G01X0019664Y0000416D01*
G01X0019628Y0000411D01*
G01X0019592Y0000403D01*
G01X0019557Y0000392D01*
G01X0019524Y0000378D01*
G01X0019491Y0000361D01*
G01X0019461Y0000342D01*
G01X0019432Y0000320D01*
G01X0019405Y0000295D01*
G01X0019380Y0000268D01*
G01X0019358Y0000239D01*
G01X0019339Y0000209D01*
G01X0019322Y0000176D01*
G01X0019308Y0000143D01*
G01X0019297Y0000108D01*
G01X0019289Y0000072D01*
G01X0019284Y0000036D01*
G01X0019283Y0000000D01*
G01X0019284Y-000036D01*
G01X0019289Y-000072D01*
G01X0019297Y-000108D01*
G01X0019308Y-000143D01*
G01X0019322Y-000176D01*
G01X0019339Y-000209D01*
G01X0019358Y-000239D01*
G01X0019380Y-000268D01*
G01X0019405Y-000295D01*
G01X0019432Y-000320D01*
G01X0019461Y-000342D01*
G01X0019491Y-000361D01*
G01X0019524Y-000378D01*
G01X0019557Y-000392D01*
G01X0019592Y-000403D01*
G01X0019628Y-000411D01*
G01X0019664Y-000416D01*
G01X0019700Y-000417D01*
G01X0019736Y-000416D01*
G01X0019772Y-000411D01*
G01X0019808Y-000403D01*
G01X0019843Y-000392D01*
G01X0019876Y-000378D01*
G01X0019909Y-000361D01*
G01X0019939Y-000342D01*
G01X0019968Y-000320D01*
G01X0019995Y-000295D01*
G01X0020020Y-000268D01*
G01X0020042Y-000239D01*
G01X0020061Y-000209D01*
G01X0020078Y-000176D01*
G01X0020092Y-000143D01*
G01X0020103Y-000108D01*
G01X0020111Y-000072D01*
G01X0020116Y-000036D01*
G01X0020117Y0000000D01*
G37*
G36*
G01X0020117Y0000000D02*
G37*
G54D10*
G01X0021184Y0000000D02*
G01X0021179Y0000129D01*
G01X0021179Y0000129D02*
G01X0021162Y0000258D01*
G01X0021162Y0000258D02*
G01X0021134Y0000384D01*
G01X0021134Y0000384D02*
G01X0021095Y0000508D01*
G01X0021095Y0000508D02*
G01X0021045Y0000627D01*
G01X0021045Y0000627D02*
G01X0020985Y0000742D01*
G01X0020985Y0000742D02*
G01X0020916Y0000851D01*
G01X0020916Y0000851D02*
G01X0020837Y0000954D01*
G01X0020837Y0000954D02*
G01X0020750Y0001050D01*
G01X0020750Y0001050D02*
G01X0020654Y0001137D01*
G01X0020654Y0001137D02*
G01X0020551Y0001216D01*
G01X0020551Y0001216D02*
G01X0020442Y0001285D01*
G01X0020442Y0001285D02*
G01X0020327Y0001345D01*
G01X0020327Y0001345D02*
G01X0020208Y0001395D01*
G01X0020208Y0001395D02*
G01X0020084Y0001434D01*
G01X0020084Y0001434D02*
G01X0019958Y0001462D01*
G01X0019958Y0001462D02*
G01X0019829Y0001479D01*
G01X0019829Y0001479D02*
G01X0019700Y0001484D01*
G01X0019700Y0001484D02*
G01X0019571Y0001479D01*
G01X0019571Y0001479D02*
G01X0019442Y0001462D01*
G01X0019442Y0001462D02*
G01X0019316Y0001434D01*
G01X0019316Y0001434D02*
G01X0019192Y0001395D01*
G01X0019192Y0001395D02*
G01X0019073Y0001345D01*
G01X0019073Y0001345D02*
G01X0018958Y0001285D01*
G01X0018958Y0001285D02*
G01X0018849Y0001216D01*
G01X0018849Y0001216D02*
G01X0018746Y0001137D01*
G01X0018746Y0001137D02*
G01X0018650Y0001050D01*
G01X0018650Y0001050D02*
G01X0018563Y0000954D01*
G01X0018563Y0000954D02*
G01X0018484Y0000851D01*
G01X0018484Y0000851D02*
G01X0018415Y0000742D01*
G01X0018415Y0000742D02*
G01X0018355Y0000627D01*
G01X0018355Y0000627D02*
G01X0018305Y0000508D01*
G01X0018305Y0000508D02*
G01X0018266Y0000384D01*
G01X0018266Y0000384D02*
G01X0018238Y0000258D01*
G01X0018238Y0000258D02*
G01X0018221Y0000129D01*
G01X0018221Y0000129D02*
G01X0018216Y0000000D01*
G01X0018216Y0000000D02*
G01X0018221Y-000129D01*
G01X0018221Y-000129D02*
G01X0018238Y-000258D01*
G01X0018238Y-000258D02*
G01X0018266Y-000384D01*
G01X0018266Y-000384D02*
G01X0018305Y-000508D01*
G01X0018305Y-000508D02*
G01X0018355Y-000627D01*
G01X0018355Y-000627D02*
G01X0018415Y-000742D01*
G01X0018415Y-000742D02*
G01X0018484Y-000851D01*
G01X0018484Y-000851D02*
G01X0018563Y-000954D01*
G01X0018563Y-000954D02*
G01X0018650Y-001050D01*
G01X0018650Y-001050D02*
G01X0018746Y-001137D01*
G01X0018746Y-001137D02*
G01X0018849Y-001216D01*
G01X0018849Y-001216D02*
G01X0018958Y-001285D01*
G01X0018958Y-001285D02*
G01X0019073Y-001345D01*
G01X0019073Y-001345D02*
G01X0019192Y-001395D01*
G01X0019192Y-001395D02*
G01X0019316Y-001434D01*
G01X0019316Y-001434D02*
G01X0019442Y-001462D01*
G01X0019442Y-001462D02*
G01X0019571Y-001479D01*
G01X0019571Y-001479D02*
G01X0019700Y-001484D01*
G01X0019700Y-001484D02*
G01X0019829Y-001479D01*
G01X0019829Y-001479D02*
G01X0019958Y-001462D01*
G01X0019958Y-001462D02*
G01X0020084Y-001434D01*
G01X0020084Y-001434D02*
G01X0020208Y-001395D01*
G01X0020208Y-001395D02*
G01X0020327Y-001345D01*
G01X0020327Y-001345D02*
G01X0020442Y-001285D01*
G01X0020442Y-001285D02*
G01X0020551Y-001216D01*
G01X0020551Y-001216D02*
G01X0020654Y-001137D01*
G01X0020654Y-001137D02*
G01X0020750Y-001050D01*
G01X0020750Y-001050D02*
G01X0020837Y-000954D01*
G01X0020837Y-000954D02*
G01X0020916Y-000851D01*
G01X0020916Y-000851D02*
G01X0020985Y-000742D01*
G01X0020985Y-000742D02*
G01X0021045Y-000627D01*
G01X0021045Y-000627D02*
G01X0021095Y-000508D01*
G01X0021095Y-000508D02*
G01X0021134Y-000384D01*
G01X0021134Y-000384D02*
G01X0021162Y-000258D01*
G01X0021162Y-000258D02*
G01X0021179Y-000129D01*
G01X0021179Y-000129D02*
G01X0021184Y0000000D01*
G54D11*
G01X0020312Y0003981D02*
G01X0019954Y0004020D01*
G01X0019954Y0004020D02*
G01X0019594Y0004027D01*
G01X0019594Y0004027D02*
G01X0019234Y0004001D01*
G01X0019234Y0004001D02*
G01X0018879Y0003943D01*
G01X0018879Y0003943D02*
G01X0018529Y0003854D01*
G01X0018529Y0003854D02*
G01X0018190Y0003734D01*
G01X0018190Y0003734D02*
G01X0017862Y0003584D01*
G01X0017862Y0003584D02*
G01X0017549Y0003406D01*
G01X0017549Y0003406D02*
G01X0017253Y0003200D01*
G01X0017253Y0003200D02*
G01X0016977Y0002968D01*
G01X0016977Y0002968D02*
G01X0016722Y0002713D01*
G01X0016722Y0002713D02*
G01X0016492Y0002436D01*
G01X0016492Y0002436D02*
G01X0016287Y0002139D01*
G01X0016287Y0002139D02*
G01X0016109Y0001826D01*
G01X0020215Y0003350D02*
G01X0019872Y0003385D01*
G01X0019872Y0003385D02*
G01X0019528Y0003385D01*
G01X0019528Y0003385D02*
G01X0019185Y0003350D01*
G01X0020312Y0003981D02*
G01X0020215Y0003350D01*
G01X0019391Y0002006D02*
G01X0019185Y0003350D01*
G01X0019700Y0000000D02*
G01X0018886Y0000470D01*
G01X0015946Y-001460D02*
G01X0016091Y-001790D01*
G01X0016091Y-001790D02*
G01X0016266Y-002105D01*
G01X0016266Y-002105D02*
G01X0016468Y-002404D01*
G01X0016468Y-002404D02*
G01X0016696Y-002683D01*
G01X0016696Y-002683D02*
G01X0016948Y-002941D01*
G01X0016948Y-002941D02*
G01X0017221Y-003175D01*
G01X0017221Y-003175D02*
G01X0017515Y-003384D01*
G01X0017515Y-003384D02*
G01X0017826Y-003566D01*
G01X0017826Y-003566D02*
G01X0018153Y-003719D01*
G01X0018153Y-003719D02*
G01X0018491Y-003842D01*
G01X0018491Y-003842D02*
G01X0018839Y-003935D01*
G01X0018839Y-003935D02*
G01X0019195Y-003996D01*
G01X0019195Y-003996D02*
G01X0019554Y-004025D01*
G01X0019554Y-004025D02*
G01X0019914Y-004022D01*
G01X0016542Y-001229D02*
G01X0016683Y-001543D01*
G01X0016683Y-001543D02*
G01X0016855Y-001842D01*
G01X0016855Y-001842D02*
G01X0017057Y-002121D01*
G01X0015946Y-001460D02*
G01X0016542Y-001229D01*
G01X0018117Y-001270D02*
G01X0017057Y-002121D01*
G01X0019700Y0000000D02*
G01X0019700Y-000939D01*
G01X0022842Y-002521D02*
G01X0023054Y-002230D01*
G01X0023054Y-002230D02*
G01X0023240Y-001921D01*
G01X0023240Y-001921D02*
G01X0023398Y-001597D01*
G01X0023398Y-001597D02*
G01X0023526Y-001260D01*
G01X0023526Y-001260D02*
G01X0023623Y-000913D01*
G01X0023623Y-000913D02*
G01X0023689Y-000559D01*
G01X0023689Y-000559D02*
G01X0023723Y-000200D01*
G01X0023723Y-000200D02*
G01X0023725Y0000160D01*
G01X0023725Y0000160D02*
G01X0023694Y0000519D01*
G01X0023694Y0000519D02*
G01X0023632Y0000874D01*
G01X0023632Y0000874D02*
G01X0023538Y0001222D01*
G01X0023538Y0001222D02*
G01X0023414Y0001560D01*
G01X0023414Y0001560D02*
G01X0023259Y0001886D01*
G01X0023259Y0001886D02*
G01X0023076Y0002197D01*
G01X0022343Y-002121D02*
G01X0022545Y-001842D01*
G01X0022545Y-001842D02*
G01X0022717Y-001543D01*
G01X0022717Y-001543D02*
G01X0022858Y-001229D01*
G01X0022842Y-002521D02*
G01X0022343Y-002121D01*
G01X0021591Y-000736D02*
G01X0022858Y-001229D01*
G01X0019700Y0000000D02*
G01X0020514Y0000470D01*
G01X0009850Y0029550D02*
G54D12*
G01X0009850Y0029550D03*
G54D13*
G01X0012358Y0029550D02*
G01X0012349Y0029769D01*
G01X0012349Y0029769D02*
G01X0012320Y0029986D01*
G01X0012320Y0029986D02*
G01X0012273Y0030199D01*
G01X0012273Y0030199D02*
G01X0012207Y0030408D01*
G01X0012207Y0030408D02*
G01X0012123Y0030610D01*
G01X0012123Y0030610D02*
G01X0012022Y0030804D01*
G01X0012022Y0030804D02*
G01X0011905Y0030989D01*
G01X0011905Y0030989D02*
G01X0011771Y0031162D01*
G01X0011771Y0031162D02*
G01X0011624Y0031324D01*
G01X0011624Y0031324D02*
G01X0011462Y0031471D01*
G01X0011462Y0031471D02*
G01X0011289Y0031605D01*
G01X0011289Y0031605D02*
G01X0011104Y0031722D01*
G01X0011104Y0031722D02*
G01X0010910Y0031823D01*
G01X0010910Y0031823D02*
G01X0010708Y0031907D01*
G01X0010708Y0031907D02*
G01X0010499Y0031973D01*
G01X0010499Y0031973D02*
G01X0010286Y0032020D01*
G01X0010286Y0032020D02*
G01X0010069Y0032049D01*
G01X0010069Y0032049D02*
G01X0009850Y0032058D01*
G01X0009850Y0032058D02*
G01X0009631Y0032049D01*
G01X0009631Y0032049D02*
G01X0009414Y0032020D01*
G01X0009414Y0032020D02*
G01X0009201Y0031973D01*
G01X0009201Y0031973D02*
G01X0008992Y0031907D01*
G01X0008992Y0031907D02*
G01X0008790Y0031823D01*
G01X0008790Y0031823D02*
G01X0008596Y0031722D01*
G01X0008596Y0031722D02*
G01X0008411Y0031605D01*
G01X0008411Y0031605D02*
G01X0008238Y0031471D01*
G01X0008238Y0031471D02*
G01X0008076Y0031324D01*
G01X0008076Y0031324D02*
G01X0007929Y0031162D01*
G01X0007929Y0031162D02*
G01X0007795Y0030989D01*
G01X0007795Y0030989D02*
G01X0007678Y0030804D01*
G01X0007678Y0030804D02*
G01X0007577Y0030610D01*
G01X0007577Y0030610D02*
G01X0007493Y0030408D01*
G01X0007493Y0030408D02*
G01X0007427Y0030199D01*
G01X0007427Y0030199D02*
G01X0007380Y0029986D01*
G01X0007380Y0029986D02*
G01X0007351Y0029769D01*
G01X0007351Y0029769D02*
G01X0007342Y0029550D01*
G01X0007342Y0029550D02*
G01X0007351Y0029331D01*
G01X0007351Y0029331D02*
G01X0007380Y0029114D01*
G01X0007380Y0029114D02*
G01X0007427Y0028901D01*
G01X0007427Y0028901D02*
G01X0007493Y0028692D01*
G01X0007493Y0028692D02*
G01X0007577Y0028490D01*
G01X0007577Y0028490D02*
G01X0007678Y0028296D01*
G01X0007678Y0028296D02*
G01X0007795Y0028111D01*
G01X0007795Y0028111D02*
G01X0007929Y0027938D01*
G01X0007929Y0027938D02*
G01X0008076Y0027776D01*
G01X0008076Y0027776D02*
G01X0008238Y0027629D01*
G01X0008238Y0027629D02*
G01X0008411Y0027495D01*
G01X0008411Y0027495D02*
G01X0008596Y0027378D01*
G01X0008596Y0027378D02*
G01X0008790Y0027277D01*
G01X0008790Y0027277D02*
G01X0008992Y0027193D01*
G01X0008992Y0027193D02*
G01X0009201Y0027127D01*
G01X0009201Y0027127D02*
G01X0009414Y0027080D01*
G01X0009414Y0027080D02*
G01X0009631Y0027051D01*
G01X0009631Y0027051D02*
G01X0009850Y0027042D01*
G01X0009850Y0027042D02*
G01X0010069Y0027051D01*
G01X0010069Y0027051D02*
G01X0010286Y0027080D01*
G01X0010286Y0027080D02*
G01X0010499Y0027127D01*
G01X0010499Y0027127D02*
G01X0010708Y0027193D01*
G01X0010708Y0027193D02*
G01X0010910Y0027277D01*
G01X0010910Y0027277D02*
G01X0011104Y0027378D01*
G01X0011104Y0027378D02*
G01X0011289Y0027495D01*
G01X0011289Y0027495D02*
G01X0011462Y0027629D01*
G01X0011462Y0027629D02*
G01X0011624Y0027776D01*
G01X0011624Y0027776D02*
G01X0011771Y0027938D01*
G01X0011771Y0027938D02*
G01X0011905Y0028111D01*
G01X0011905Y0028111D02*
G01X0012022Y0028296D01*
G01X0012022Y0028296D02*
G01X0012123Y0028490D01*
G01X0012123Y0028490D02*
G01X0012207Y0028692D01*
G01X0012207Y0028692D02*
G01X0012273Y0028901D01*
G01X0012273Y0028901D02*
G01X0012320Y0029114D01*
G01X0012320Y0029114D02*
G01X0012349Y0029331D01*
G01X0012349Y0029331D02*
G01X0012358Y0029550D01*
G54D11*
G01X0010462Y0033531D02*
G01X0010104Y0033570D01*
G01X0010104Y0033570D02*
G01X0009744Y0033577D01*
G01X0009744Y0033577D02*
G01X0009384Y0033551D01*
G01X0009384Y0033551D02*
G01X0009029Y0033493D01*
G01X0009029Y0033493D02*
G01X0008679Y0033404D01*
G01X0008679Y0033404D02*
G01X0008340Y0033284D01*
G01X0008340Y0033284D02*
G01X0008012Y0033134D01*
G01X0008012Y0033134D02*
G01X0007699Y0032956D01*
G01X0007699Y0032956D02*
G01X0007403Y0032750D01*
G01X0007403Y0032750D02*
G01X0007127Y0032518D01*
G01X0007127Y0032518D02*
G01X0006872Y0032263D01*
G01X0006872Y0032263D02*
G01X0006642Y0031986D01*
G01X0006642Y0031986D02*
G01X0006437Y0031689D01*
G01X0006437Y0031689D02*
G01X0006259Y0031376D01*
G01X0010365Y0032900D02*
G01X0010022Y0032935D01*
G01X0010022Y0032935D02*
G01X0009678Y0032935D01*
G01X0009678Y0032935D02*
G01X0009335Y0032900D01*
G01X0010462Y0033531D02*
G01X0010365Y0032900D01*
G01X0009401Y0032471D02*
G01X0009335Y0032900D01*
G01X0009850Y0029550D02*
G01X0008065Y0030581D01*
G01X0006096Y0028090D02*
G01X0006241Y0027760D01*
G01X0006241Y0027760D02*
G01X0006416Y0027445D01*
G01X0006416Y0027445D02*
G01X0006618Y0027146D01*
G01X0006618Y0027146D02*
G01X0006846Y0026867D01*
G01X0006846Y0026867D02*
G01X0007098Y0026609D01*
G01X0007098Y0026609D02*
G01X0007371Y0026375D01*
G01X0007371Y0026375D02*
G01X0007665Y0026166D01*
G01X0007665Y0026166D02*
G01X0007976Y0025984D01*
G01X0007976Y0025984D02*
G01X0008303Y0025831D01*
G01X0008303Y0025831D02*
G01X0008641Y0025708D01*
G01X0008641Y0025708D02*
G01X0008989Y0025615D01*
G01X0008989Y0025615D02*
G01X0009345Y0025554D01*
G01X0009345Y0025554D02*
G01X0009704Y0025525D01*
G01X0009704Y0025525D02*
G01X0010064Y0025528D01*
G01X0006692Y0028321D02*
G01X0006833Y0028007D01*
G01X0006833Y0028007D02*
G01X0007005Y0027708D01*
G01X0007005Y0027708D02*
G01X0007207Y0027429D01*
G01X0006096Y0028090D02*
G01X0006692Y0028321D01*
G01X0007545Y0027701D02*
G01X0007207Y0027429D01*
G01X0009850Y0029550D02*
G01X0009850Y0027488D01*
G01X0012992Y0027029D02*
G01X0013204Y0027320D01*
G01X0013204Y0027320D02*
G01X0013390Y0027629D01*
G01X0013390Y0027629D02*
G01X0013548Y0027953D01*
G01X0013548Y0027953D02*
G01X0013676Y0028290D01*
G01X0013676Y0028290D02*
G01X0013773Y0028637D01*
G01X0013773Y0028637D02*
G01X0013839Y0028991D01*
G01X0013839Y0028991D02*
G01X0013873Y0029350D01*
G01X0013873Y0029350D02*
G01X0013875Y0029710D01*
G01X0013875Y0029710D02*
G01X0013844Y0030069D01*
G01X0013844Y0030069D02*
G01X0013782Y0030424D01*
G01X0013782Y0030424D02*
G01X0013688Y0030772D01*
G01X0013688Y0030772D02*
G01X0013564Y0031110D01*
G01X0013564Y0031110D02*
G01X0013409Y0031436D01*
G01X0013409Y0031436D02*
G01X0013226Y0031747D01*
G01X0012493Y0027429D02*
G01X0012695Y0027708D01*
G01X0012695Y0027708D02*
G01X0012867Y0028007D01*
G01X0012867Y0028007D02*
G01X0013008Y0028321D01*
G01X0012992Y0027029D02*
G01X0012493Y0027429D01*
G01X0012604Y0028479D02*
G01X0013008Y0028321D01*
G01X0009850Y0029550D02*
G01X0011635Y0030581D01*
G01X0009850Y0019700D02*
G54D12*
G01X0009850Y0019700D03*
G54D13*
G01X0012358Y0019700D02*
G01X0012349Y0019919D01*
G01X0012349Y0019919D02*
G01X0012320Y0020136D01*
G01X0012320Y0020136D02*
G01X0012273Y0020349D01*
G01X0012273Y0020349D02*
G01X0012207Y0020558D01*
G01X0012207Y0020558D02*
G01X0012123Y0020760D01*
G01X0012123Y0020760D02*
G01X0012022Y0020954D01*
G01X0012022Y0020954D02*
G01X0011905Y0021139D01*
G01X0011905Y0021139D02*
G01X0011771Y0021312D01*
G01X0011771Y0021312D02*
G01X0011624Y0021474D01*
G01X0011624Y0021474D02*
G01X0011462Y0021621D01*
G01X0011462Y0021621D02*
G01X0011289Y0021755D01*
G01X0011289Y0021755D02*
G01X0011104Y0021872D01*
G01X0011104Y0021872D02*
G01X0010910Y0021973D01*
G01X0010910Y0021973D02*
G01X0010708Y0022057D01*
G01X0010708Y0022057D02*
G01X0010499Y0022123D01*
G01X0010499Y0022123D02*
G01X0010286Y0022170D01*
G01X0010286Y0022170D02*
G01X0010069Y0022199D01*
G01X0010069Y0022199D02*
G01X0009850Y0022208D01*
G01X0009850Y0022208D02*
G01X0009631Y0022199D01*
G01X0009631Y0022199D02*
G01X0009414Y0022170D01*
G01X0009414Y0022170D02*
G01X0009201Y0022123D01*
G01X0009201Y0022123D02*
G01X0008992Y0022057D01*
G01X0008992Y0022057D02*
G01X0008790Y0021973D01*
G01X0008790Y0021973D02*
G01X0008596Y0021872D01*
G01X0008596Y0021872D02*
G01X0008411Y0021755D01*
G01X0008411Y0021755D02*
G01X0008238Y0021621D01*
G01X0008238Y0021621D02*
G01X0008076Y0021474D01*
G01X0008076Y0021474D02*
G01X0007929Y0021312D01*
G01X0007929Y0021312D02*
G01X0007795Y0021139D01*
G01X0007795Y0021139D02*
G01X0007678Y0020954D01*
G01X0007678Y0020954D02*
G01X0007577Y0020760D01*
G01X0007577Y0020760D02*
G01X0007493Y0020558D01*
G01X0007493Y0020558D02*
G01X0007427Y0020349D01*
G01X0007427Y0020349D02*
G01X0007380Y0020136D01*
G01X0007380Y0020136D02*
G01X0007351Y0019919D01*
G01X0007351Y0019919D02*
G01X0007342Y0019700D01*
G01X0007342Y0019700D02*
G01X0007351Y0019481D01*
G01X0007351Y0019481D02*
G01X0007380Y0019264D01*
G01X0007380Y0019264D02*
G01X0007427Y0019051D01*
G01X0007427Y0019051D02*
G01X0007493Y0018842D01*
G01X0007493Y0018842D02*
G01X0007577Y0018640D01*
G01X0007577Y0018640D02*
G01X0007678Y0018446D01*
G01X0007678Y0018446D02*
G01X0007795Y0018261D01*
G01X0007795Y0018261D02*
G01X0007929Y0018088D01*
G01X0007929Y0018088D02*
G01X0008076Y0017926D01*
G01X0008076Y0017926D02*
G01X0008238Y0017779D01*
G01X0008238Y0017779D02*
G01X0008411Y0017645D01*
G01X0008411Y0017645D02*
G01X0008596Y0017528D01*
G01X0008596Y0017528D02*
G01X0008790Y0017427D01*
G01X0008790Y0017427D02*
G01X0008992Y0017343D01*
G01X0008992Y0017343D02*
G01X0009201Y0017277D01*
G01X0009201Y0017277D02*
G01X0009414Y0017230D01*
G01X0009414Y0017230D02*
G01X0009631Y0017201D01*
G01X0009631Y0017201D02*
G01X0009850Y0017192D01*
G01X0009850Y0017192D02*
G01X0010069Y0017201D01*
G01X0010069Y0017201D02*
G01X0010286Y0017230D01*
G01X0010286Y0017230D02*
G01X0010499Y0017277D01*
G01X0010499Y0017277D02*
G01X0010708Y0017343D01*
G01X0010708Y0017343D02*
G01X0010910Y0017427D01*
G01X0010910Y0017427D02*
G01X0011104Y0017528D01*
G01X0011104Y0017528D02*
G01X0011289Y0017645D01*
G01X0011289Y0017645D02*
G01X0011462Y0017779D01*
G01X0011462Y0017779D02*
G01X0011624Y0017926D01*
G01X0011624Y0017926D02*
G01X0011771Y0018088D01*
G01X0011771Y0018088D02*
G01X0011905Y0018261D01*
G01X0011905Y0018261D02*
G01X0012022Y0018446D01*
G01X0012022Y0018446D02*
G01X0012123Y0018640D01*
G01X0012123Y0018640D02*
G01X0012207Y0018842D01*
G01X0012207Y0018842D02*
G01X0012273Y0019051D01*
G01X0012273Y0019051D02*
G01X0012320Y0019264D01*
G01X0012320Y0019264D02*
G01X0012349Y0019481D01*
G01X0012349Y0019481D02*
G01X0012358Y0019700D01*
G54D11*
G01X0010462Y0023681D02*
G01X0010104Y0023720D01*
G01X0010104Y0023720D02*
G01X0009744Y0023727D01*
G01X0009744Y0023727D02*
G01X0009384Y0023701D01*
G01X0009384Y0023701D02*
G01X0009029Y0023643D01*
G01X0009029Y0023643D02*
G01X0008679Y0023554D01*
G01X0008679Y0023554D02*
G01X0008340Y0023434D01*
G01X0008340Y0023434D02*
G01X0008012Y0023284D01*
G01X0008012Y0023284D02*
G01X0007699Y0023106D01*
G01X0007699Y0023106D02*
G01X0007403Y0022900D01*
G01X0007403Y0022900D02*
G01X0007127Y0022668D01*
G01X0007127Y0022668D02*
G01X0006872Y0022413D01*
G01X0006872Y0022413D02*
G01X0006642Y0022136D01*
G01X0006642Y0022136D02*
G01X0006437Y0021839D01*
G01X0006437Y0021839D02*
G01X0006259Y0021526D01*
G01X0010365Y0023050D02*
G01X0010022Y0023085D01*
G01X0010022Y0023085D02*
G01X0009678Y0023085D01*
G01X0009678Y0023085D02*
G01X0009335Y0023050D01*
G01X0010462Y0023681D02*
G01X0010365Y0023050D01*
G01X0009401Y0022621D02*
G01X0009335Y0023050D01*
G01X0009850Y0019700D02*
G01X0008065Y0020731D01*
G01X0006096Y0018240D02*
G01X0006241Y0017910D01*
G01X0006241Y0017910D02*
G01X0006416Y0017595D01*
G01X0006416Y0017595D02*
G01X0006618Y0017296D01*
G01X0006618Y0017296D02*
G01X0006846Y0017017D01*
G01X0006846Y0017017D02*
G01X0007098Y0016759D01*
G01X0007098Y0016759D02*
G01X0007371Y0016525D01*
G01X0007371Y0016525D02*
G01X0007665Y0016316D01*
G01X0007665Y0016316D02*
G01X0007976Y0016134D01*
G01X0007976Y0016134D02*
G01X0008303Y0015981D01*
G01X0008303Y0015981D02*
G01X0008641Y0015858D01*
G01X0008641Y0015858D02*
G01X0008989Y0015765D01*
G01X0008989Y0015765D02*
G01X0009345Y0015704D01*
G01X0009345Y0015704D02*
G01X0009704Y0015675D01*
G01X0009704Y0015675D02*
G01X0010064Y0015678D01*
G01X0006692Y0018471D02*
G01X0006833Y0018157D01*
G01X0006833Y0018157D02*
G01X0007005Y0017858D01*
G01X0007005Y0017858D02*
G01X0007207Y0017579D01*
G01X0006096Y0018240D02*
G01X0006692Y0018471D01*
G01X0007545Y0017851D02*
G01X0007207Y0017579D01*
G01X0009850Y0019700D02*
G01X0009850Y0017638D01*
G01X0012992Y0017179D02*
G01X0013204Y0017470D01*
G01X0013204Y0017470D02*
G01X0013390Y0017779D01*
G01X0013390Y0017779D02*
G01X0013548Y0018103D01*
G01X0013548Y0018103D02*
G01X0013676Y0018440D01*
G01X0013676Y0018440D02*
G01X0013773Y0018787D01*
G01X0013773Y0018787D02*
G01X0013839Y0019141D01*
G01X0013839Y0019141D02*
G01X0013873Y0019500D01*
G01X0013873Y0019500D02*
G01X0013875Y0019860D01*
G01X0013875Y0019860D02*
G01X0013844Y0020219D01*
G01X0013844Y0020219D02*
G01X0013782Y0020574D01*
G01X0013782Y0020574D02*
G01X0013688Y0020922D01*
G01X0013688Y0020922D02*
G01X0013564Y0021260D01*
G01X0013564Y0021260D02*
G01X0013409Y0021586D01*
G01X0013409Y0021586D02*
G01X0013226Y0021897D01*
G01X0012493Y0017579D02*
G01X0012695Y0017858D01*
G01X0012695Y0017858D02*
G01X0012867Y0018157D01*
G01X0012867Y0018157D02*
G01X0013008Y0018471D01*
G01X0012992Y0017179D02*
G01X0012493Y0017579D01*
G01X0012604Y0018629D02*
G01X0013008Y0018471D01*
G01X0009850Y0019700D02*
G01X0011635Y0020731D01*
G01X0009850Y0009850D02*
G36*
G01X0010267Y0009850D02*
G01X0010266Y0009886D01*
G01X0010261Y0009922D01*
G01X0010253Y0009958D01*
G01X0010242Y0009993D01*
G01X0010228Y0010026D01*
G01X0010211Y0010059D01*
G01X0010192Y0010089D01*
G01X0010170Y0010118D01*
G01X0010145Y0010145D01*
G01X0010118Y0010170D01*
G01X0010089Y0010192D01*
G01X0010059Y0010211D01*
G01X0010026Y0010228D01*
G01X0009993Y0010242D01*
G01X0009958Y0010253D01*
G01X0009922Y0010261D01*
G01X0009886Y0010266D01*
G01X0009850Y0010267D01*
G01X0009814Y0010266D01*
G01X0009778Y0010261D01*
G01X0009742Y0010253D01*
G01X0009707Y0010242D01*
G01X0009674Y0010228D01*
G01X0009641Y0010211D01*
G01X0009611Y0010192D01*
G01X0009582Y0010170D01*
G01X0009555Y0010145D01*
G01X0009530Y0010118D01*
G01X0009508Y0010089D01*
G01X0009489Y0010059D01*
G01X0009472Y0010026D01*
G01X0009458Y0009993D01*
G01X0009447Y0009958D01*
G01X0009439Y0009922D01*
G01X0009434Y0009886D01*
G01X0009433Y0009850D01*
G01X0009434Y0009814D01*
G01X0009439Y0009778D01*
G01X0009447Y0009742D01*
G01X0009458Y0009707D01*
G01X0009472Y0009674D01*
G01X0009489Y0009641D01*
G01X0009508Y0009611D01*
G01X0009530Y0009582D01*
G01X0009555Y0009555D01*
G01X0009582Y0009530D01*
G01X0009611Y0009508D01*
G01X0009641Y0009489D01*
G01X0009674Y0009472D01*
G01X0009707Y0009458D01*
G01X0009742Y0009447D01*
G01X0009778Y0009439D01*
G01X0009814Y0009434D01*
G01X0009850Y0009433D01*
G01X0009886Y0009434D01*
G01X0009922Y0009439D01*
G01X0009958Y0009447D01*
G01X0009993Y0009458D01*
G01X0010026Y0009472D01*
G01X0010059Y0009489D01*
G01X0010089Y0009508D01*
G01X0010118Y0009530D01*
G01X0010145Y0009555D01*
G01X0010170Y0009582D01*
G01X0010192Y0009611D01*
G01X0010211Y0009641D01*
G01X0010228Y0009674D01*
G01X0010242Y0009707D01*
G01X0010253Y0009742D01*
G01X0010261Y0009778D01*
G01X0010266Y0009814D01*
G01X0010267Y0009850D01*
G37*
G36*
G01X0010267Y0009850D02*
G37*
G54D10*
G01X0011334Y0009850D02*
G01X0011329Y0009979D01*
G01X0011329Y0009979D02*
G01X0011312Y0010108D01*
G01X0011312Y0010108D02*
G01X0011284Y0010234D01*
G01X0011284Y0010234D02*
G01X0011245Y0010358D01*
G01X0011245Y0010358D02*
G01X0011195Y0010477D01*
G01X0011195Y0010477D02*
G01X0011135Y0010592D01*
G01X0011135Y0010592D02*
G01X0011066Y0010701D01*
G01X0011066Y0010701D02*
G01X0010987Y0010804D01*
G01X0010987Y0010804D02*
G01X0010900Y0010900D01*
G01X0010900Y0010900D02*
G01X0010804Y0010987D01*
G01X0010804Y0010987D02*
G01X0010701Y0011066D01*
G01X0010701Y0011066D02*
G01X0010592Y0011135D01*
G01X0010592Y0011135D02*
G01X0010477Y0011195D01*
G01X0010477Y0011195D02*
G01X0010358Y0011245D01*
G01X0010358Y0011245D02*
G01X0010234Y0011284D01*
G01X0010234Y0011284D02*
G01X0010108Y0011312D01*
G01X0010108Y0011312D02*
G01X0009979Y0011329D01*
G01X0009979Y0011329D02*
G01X0009850Y0011334D01*
G01X0009850Y0011334D02*
G01X0009721Y0011329D01*
G01X0009721Y0011329D02*
G01X0009592Y0011312D01*
G01X0009592Y0011312D02*
G01X0009466Y0011284D01*
G01X0009466Y0011284D02*
G01X0009342Y0011245D01*
G01X0009342Y0011245D02*
G01X0009223Y0011195D01*
G01X0009223Y0011195D02*
G01X0009108Y0011135D01*
G01X0009108Y0011135D02*
G01X0008999Y0011066D01*
G01X0008999Y0011066D02*
G01X0008896Y0010987D01*
G01X0008896Y0010987D02*
G01X0008800Y0010900D01*
G01X0008800Y0010900D02*
G01X0008713Y0010804D01*
G01X0008713Y0010804D02*
G01X0008634Y0010701D01*
G01X0008634Y0010701D02*
G01X0008565Y0010592D01*
G01X0008565Y0010592D02*
G01X0008505Y0010477D01*
G01X0008505Y0010477D02*
G01X0008455Y0010358D01*
G01X0008455Y0010358D02*
G01X0008416Y0010234D01*
G01X0008416Y0010234D02*
G01X0008388Y0010108D01*
G01X0008388Y0010108D02*
G01X0008371Y0009979D01*
G01X0008371Y0009979D02*
G01X0008366Y0009850D01*
G01X0008366Y0009850D02*
G01X0008371Y0009721D01*
G01X0008371Y0009721D02*
G01X0008388Y0009592D01*
G01X0008388Y0009592D02*
G01X0008416Y0009466D01*
G01X0008416Y0009466D02*
G01X0008455Y0009342D01*
G01X0008455Y0009342D02*
G01X0008505Y0009223D01*
G01X0008505Y0009223D02*
G01X0008565Y0009108D01*
G01X0008565Y0009108D02*
G01X0008634Y0008999D01*
G01X0008634Y0008999D02*
G01X0008713Y0008896D01*
G01X0008713Y0008896D02*
G01X0008800Y0008800D01*
G01X0008800Y0008800D02*
G01X0008896Y0008713D01*
G01X0008896Y0008713D02*
G01X0008999Y0008634D01*
G01X0008999Y0008634D02*
G01X0009108Y0008565D01*
G01X0009108Y0008565D02*
G01X0009223Y0008505D01*
G01X0009223Y0008505D02*
G01X0009342Y0008455D01*
G01X0009342Y0008455D02*
G01X0009466Y0008416D01*
G01X0009466Y0008416D02*
G01X0009592Y0008388D01*
G01X0009592Y0008388D02*
G01X0009721Y0008371D01*
G01X0009721Y0008371D02*
G01X0009850Y0008366D01*
G01X0009850Y0008366D02*
G01X0009979Y0008371D01*
G01X0009979Y0008371D02*
G01X0010108Y0008388D01*
G01X0010108Y0008388D02*
G01X0010234Y0008416D01*
G01X0010234Y0008416D02*
G01X0010358Y0008455D01*
G01X0010358Y0008455D02*
G01X0010477Y0008505D01*
G01X0010477Y0008505D02*
G01X0010592Y0008565D01*
G01X0010592Y0008565D02*
G01X0010701Y0008634D01*
G01X0010701Y0008634D02*
G01X0010804Y0008713D01*
G01X0010804Y0008713D02*
G01X0010900Y0008800D01*
G01X0010900Y0008800D02*
G01X0010987Y0008896D01*
G01X0010987Y0008896D02*
G01X0011066Y0008999D01*
G01X0011066Y0008999D02*
G01X0011135Y0009108D01*
G01X0011135Y0009108D02*
G01X0011195Y0009223D01*
G01X0011195Y0009223D02*
G01X0011245Y0009342D01*
G01X0011245Y0009342D02*
G01X0011284Y0009466D01*
G01X0011284Y0009466D02*
G01X0011312Y0009592D01*
G01X0011312Y0009592D02*
G01X0011329Y0009721D01*
G01X0011329Y0009721D02*
G01X0011334Y0009850D01*
G54D11*
G01X0009238Y0013831D02*
G01X0009596Y0013870D01*
G01X0009596Y0013870D02*
G01X0009956Y0013877D01*
G01X0009956Y0013877D02*
G01X0010316Y0013851D01*
G01X0010316Y0013851D02*
G01X0010671Y0013793D01*
G01X0010671Y0013793D02*
G01X0011021Y0013704D01*
G01X0011021Y0013704D02*
G01X0011360Y0013584D01*
G01X0011360Y0013584D02*
G01X0011688Y0013434D01*
G01X0011688Y0013434D02*
G01X0012001Y0013256D01*
G01X0012001Y0013256D02*
G01X0012297Y0013050D01*
G01X0012297Y0013050D02*
G01X0012573Y0012818D01*
G01X0012573Y0012818D02*
G01X0012828Y0012563D01*
G01X0012828Y0012563D02*
G01X0013058Y0012286D01*
G01X0013058Y0012286D02*
G01X0013263Y0011989D01*
G01X0013263Y0011989D02*
G01X0013441Y0011676D01*
G01X0009335Y0013200D02*
G01X0009678Y0013235D01*
G01X0009678Y0013235D02*
G01X0010022Y0013235D01*
G01X0010022Y0013235D02*
G01X0010365Y0013200D01*
G01X0009238Y0013831D02*
G01X0009335Y0013200D01*
G01X0010159Y0011856D02*
G01X0010365Y0013200D01*
G01X0009850Y0009850D02*
G01X0009036Y0010320D01*
G01X0006708Y0007329D02*
G01X0006496Y0007620D01*
G01X0006496Y0007620D02*
G01X0006310Y0007929D01*
G01X0006310Y0007929D02*
G01X0006152Y0008253D01*
G01X0006152Y0008253D02*
G01X0006024Y0008590D01*
G01X0006024Y0008590D02*
G01X0005927Y0008937D01*
G01X0005927Y0008937D02*
G01X0005861Y0009291D01*
G01X0005861Y0009291D02*
G01X0005827Y0009650D01*
G01X0005827Y0009650D02*
G01X0005825Y0010010D01*
G01X0005825Y0010010D02*
G01X0005856Y0010369D01*
G01X0005856Y0010369D02*
G01X0005918Y0010724D01*
G01X0005918Y0010724D02*
G01X0006012Y0011072D01*
G01X0006012Y0011072D02*
G01X0006136Y0011410D01*
G01X0006136Y0011410D02*
G01X0006291Y0011736D01*
G01X0006291Y0011736D02*
G01X0006474Y0012047D01*
G01X0007207Y0007729D02*
G01X0007005Y0008008D01*
G01X0007005Y0008008D02*
G01X0006833Y0008307D01*
G01X0006833Y0008307D02*
G01X0006692Y0008621D01*
G01X0006708Y0007329D02*
G01X0007207Y0007729D01*
G01X0007959Y0009114D02*
G01X0006692Y0008621D01*
G01X0009850Y0009850D02*
G01X0009850Y0008911D01*
G01X0013604Y0008390D02*
G01X0013459Y0008060D01*
G01X0013459Y0008060D02*
G01X0013284Y0007745D01*
G01X0013284Y0007745D02*
G01X0013082Y0007446D01*
G01X0013082Y0007446D02*
G01X0012854Y0007167D01*
G01X0012854Y0007167D02*
G01X0012602Y0006909D01*
G01X0012602Y0006909D02*
G01X0012329Y0006675D01*
G01X0012329Y0006675D02*
G01X0012035Y0006466D01*
G01X0012035Y0006466D02*
G01X0011724Y0006284D01*
G01X0011724Y0006284D02*
G01X0011397Y0006131D01*
G01X0011397Y0006131D02*
G01X0011059Y0006008D01*
G01X0011059Y0006008D02*
G01X0010711Y0005915D01*
G01X0010711Y0005915D02*
G01X0010355Y0005854D01*
G01X0010355Y0005854D02*
G01X0009996Y0005825D01*
G01X0009996Y0005825D02*
G01X0009636Y0005828D01*
G01X0013008Y0008621D02*
G01X0012867Y0008307D01*
G01X0012867Y0008307D02*
G01X0012695Y0008008D01*
G01X0012695Y0008008D02*
G01X0012493Y0007729D01*
G01X0013604Y0008390D02*
G01X0013008Y0008621D01*
G01X0011433Y0008580D02*
G01X0012493Y0007729D01*
G01X0009850Y0009850D02*
G01X0010664Y0010320D01*
G01X0009850Y0000000D02*
G36*
G01X0010267Y0000000D02*
G01X0010266Y0000036D01*
G01X0010261Y0000072D01*
G01X0010253Y0000108D01*
G01X0010242Y0000143D01*
G01X0010228Y0000176D01*
G01X0010211Y0000209D01*
G01X0010192Y0000239D01*
G01X0010170Y0000268D01*
G01X0010145Y0000295D01*
G01X0010118Y0000320D01*
G01X0010089Y0000342D01*
G01X0010059Y0000361D01*
G01X0010026Y0000378D01*
G01X0009993Y0000392D01*
G01X0009958Y0000403D01*
G01X0009922Y0000411D01*
G01X0009886Y0000416D01*
G01X0009850Y0000417D01*
G01X0009814Y0000416D01*
G01X0009778Y0000411D01*
G01X0009742Y0000403D01*
G01X0009707Y0000392D01*
G01X0009674Y0000378D01*
G01X0009641Y0000361D01*
G01X0009611Y0000342D01*
G01X0009582Y0000320D01*
G01X0009555Y0000295D01*
G01X0009530Y0000268D01*
G01X0009508Y0000239D01*
G01X0009489Y0000209D01*
G01X0009472Y0000176D01*
G01X0009458Y0000143D01*
G01X0009447Y0000108D01*
G01X0009439Y0000072D01*
G01X0009434Y0000036D01*
G01X0009433Y0000000D01*
G01X0009434Y-000036D01*
G01X0009439Y-000072D01*
G01X0009447Y-000108D01*
G01X0009458Y-000143D01*
G01X0009472Y-000176D01*
G01X0009489Y-000209D01*
G01X0009508Y-000239D01*
G01X0009530Y-000268D01*
G01X0009555Y-000295D01*
G01X0009582Y-000320D01*
G01X0009611Y-000342D01*
G01X0009641Y-000361D01*
G01X0009674Y-000378D01*
G01X0009707Y-000392D01*
G01X0009742Y-000403D01*
G01X0009778Y-000411D01*
G01X0009814Y-000416D01*
G01X0009850Y-000417D01*
G01X0009886Y-000416D01*
G01X0009922Y-000411D01*
G01X0009958Y-000403D01*
G01X0009993Y-000392D01*
G01X0010026Y-000378D01*
G01X0010059Y-000361D01*
G01X0010089Y-000342D01*
G01X0010118Y-000320D01*
G01X0010145Y-000295D01*
G01X0010170Y-000268D01*
G01X0010192Y-000239D01*
G01X0010211Y-000209D01*
G01X0010228Y-000176D01*
G01X0010242Y-000143D01*
G01X0010253Y-000108D01*
G01X0010261Y-000072D01*
G01X0010266Y-000036D01*
G01X0010267Y0000000D01*
G37*
G36*
G01X0010267Y0000000D02*
G37*
G54D10*
G01X0011334Y0000000D02*
G01X0011329Y0000129D01*
G01X0011329Y0000129D02*
G01X0011312Y0000258D01*
G01X0011312Y0000258D02*
G01X0011284Y0000384D01*
G01X0011284Y0000384D02*
G01X0011245Y0000508D01*
G01X0011245Y0000508D02*
G01X0011195Y0000627D01*
G01X0011195Y0000627D02*
G01X0011135Y0000742D01*
G01X0011135Y0000742D02*
G01X0011066Y0000851D01*
G01X0011066Y0000851D02*
G01X0010987Y0000954D01*
G01X0010987Y0000954D02*
G01X0010900Y0001050D01*
G01X0010900Y0001050D02*
G01X0010804Y0001137D01*
G01X0010804Y0001137D02*
G01X0010701Y0001216D01*
G01X0010701Y0001216D02*
G01X0010592Y0001285D01*
G01X0010592Y0001285D02*
G01X0010477Y0001345D01*
G01X0010477Y0001345D02*
G01X0010358Y0001395D01*
G01X0010358Y0001395D02*
G01X0010234Y0001434D01*
G01X0010234Y0001434D02*
G01X0010108Y0001462D01*
G01X0010108Y0001462D02*
G01X0009979Y0001479D01*
G01X0009979Y0001479D02*
G01X0009850Y0001484D01*
G01X0009850Y0001484D02*
G01X0009721Y0001479D01*
G01X0009721Y0001479D02*
G01X0009592Y0001462D01*
G01X0009592Y0001462D02*
G01X0009466Y0001434D01*
G01X0009466Y0001434D02*
G01X0009342Y0001395D01*
G01X0009342Y0001395D02*
G01X0009223Y0001345D01*
G01X0009223Y0001345D02*
G01X0009108Y0001285D01*
G01X0009108Y0001285D02*
G01X0008999Y0001216D01*
G01X0008999Y0001216D02*
G01X0008896Y0001137D01*
G01X0008896Y0001137D02*
G01X0008800Y0001050D01*
G01X0008800Y0001050D02*
G01X0008713Y0000954D01*
G01X0008713Y0000954D02*
G01X0008634Y0000851D01*
G01X0008634Y0000851D02*
G01X0008565Y0000742D01*
G01X0008565Y0000742D02*
G01X0008505Y0000627D01*
G01X0008505Y0000627D02*
G01X0008455Y0000508D01*
G01X0008455Y0000508D02*
G01X0008416Y0000384D01*
G01X0008416Y0000384D02*
G01X0008388Y0000258D01*
G01X0008388Y0000258D02*
G01X0008371Y0000129D01*
G01X0008371Y0000129D02*
G01X0008366Y0000000D01*
G01X0008366Y0000000D02*
G01X0008371Y-000129D01*
G01X0008371Y-000129D02*
G01X0008388Y-000258D01*
G01X0008388Y-000258D02*
G01X0008416Y-000384D01*
G01X0008416Y-000384D02*
G01X0008455Y-000508D01*
G01X0008455Y-000508D02*
G01X0008505Y-000627D01*
G01X0008505Y-000627D02*
G01X0008565Y-000742D01*
G01X0008565Y-000742D02*
G01X0008634Y-000851D01*
G01X0008634Y-000851D02*
G01X0008713Y-000954D01*
G01X0008713Y-000954D02*
G01X0008800Y-001050D01*
G01X0008800Y-001050D02*
G01X0008896Y-001137D01*
G01X0008896Y-001137D02*
G01X0008999Y-001216D01*
G01X0008999Y-001216D02*
G01X0009108Y-001285D01*
G01X0009108Y-001285D02*
G01X0009223Y-001345D01*
G01X0009223Y-001345D02*
G01X0009342Y-001395D01*
G01X0009342Y-001395D02*
G01X0009466Y-001434D01*
G01X0009466Y-001434D02*
G01X0009592Y-001462D01*
G01X0009592Y-001462D02*
G01X0009721Y-001479D01*
G01X0009721Y-001479D02*
G01X0009850Y-001484D01*
G01X0009850Y-001484D02*
G01X0009979Y-001479D01*
G01X0009979Y-001479D02*
G01X0010108Y-001462D01*
G01X0010108Y-001462D02*
G01X0010234Y-001434D01*
G01X0010234Y-001434D02*
G01X0010358Y-001395D01*
G01X0010358Y-001395D02*
G01X0010477Y-001345D01*
G01X0010477Y-001345D02*
G01X0010592Y-001285D01*
G01X0010592Y-001285D02*
G01X0010701Y-001216D01*
G01X0010701Y-001216D02*
G01X0010804Y-001137D01*
G01X0010804Y-001137D02*
G01X0010900Y-001050D01*
G01X0010900Y-001050D02*
G01X0010987Y-000954D01*
G01X0010987Y-000954D02*
G01X0011066Y-000851D01*
G01X0011066Y-000851D02*
G01X0011135Y-000742D01*
G01X0011135Y-000742D02*
G01X0011195Y-000627D01*
G01X0011195Y-000627D02*
G01X0011245Y-000508D01*
G01X0011245Y-000508D02*
G01X0011284Y-000384D01*
G01X0011284Y-000384D02*
G01X0011312Y-000258D01*
G01X0011312Y-000258D02*
G01X0011329Y-000129D01*
G01X0011329Y-000129D02*
G01X0011334Y0000000D01*
G54D11*
G01X0009238Y0003981D02*
G01X0009596Y0004020D01*
G01X0009596Y0004020D02*
G01X0009956Y0004027D01*
G01X0009956Y0004027D02*
G01X0010316Y0004001D01*
G01X0010316Y0004001D02*
G01X0010671Y0003943D01*
G01X0010671Y0003943D02*
G01X0011021Y0003854D01*
G01X0011021Y0003854D02*
G01X0011360Y0003734D01*
G01X0011360Y0003734D02*
G01X0011688Y0003584D01*
G01X0011688Y0003584D02*
G01X0012001Y0003406D01*
G01X0012001Y0003406D02*
G01X0012297Y0003200D01*
G01X0012297Y0003200D02*
G01X0012573Y0002968D01*
G01X0012573Y0002968D02*
G01X0012828Y0002713D01*
G01X0012828Y0002713D02*
G01X0013058Y0002436D01*
G01X0013058Y0002436D02*
G01X0013263Y0002139D01*
G01X0013263Y0002139D02*
G01X0013441Y0001826D01*
G01X0009335Y0003350D02*
G01X0009678Y0003385D01*
G01X0009678Y0003385D02*
G01X0010022Y0003385D01*
G01X0010022Y0003385D02*
G01X0010365Y0003350D01*
G01X0009238Y0003981D02*
G01X0009335Y0003350D01*
G01X0010159Y0002006D02*
G01X0010365Y0003350D01*
G01X0009850Y0000000D02*
G01X0009036Y0000470D01*
G01X0006708Y-002521D02*
G01X0006496Y-002230D01*
G01X0006496Y-002230D02*
G01X0006310Y-001921D01*
G01X0006310Y-001921D02*
G01X0006152Y-001597D01*
G01X0006152Y-001597D02*
G01X0006024Y-001260D01*
G01X0006024Y-001260D02*
G01X0005927Y-000913D01*
G01X0005927Y-000913D02*
G01X0005861Y-000559D01*
G01X0005861Y-000559D02*
G01X0005827Y-000200D01*
G01X0005827Y-000200D02*
G01X0005825Y0000160D01*
G01X0005825Y0000160D02*
G01X0005856Y0000519D01*
G01X0005856Y0000519D02*
G01X0005918Y0000874D01*
G01X0005918Y0000874D02*
G01X0006012Y0001222D01*
G01X0006012Y0001222D02*
G01X0006136Y0001560D01*
G01X0006136Y0001560D02*
G01X0006291Y0001886D01*
G01X0006291Y0001886D02*
G01X0006474Y0002197D01*
G01X0007207Y-002121D02*
G01X0007005Y-001842D01*
G01X0007005Y-001842D02*
G01X0006833Y-001543D01*
G01X0006833Y-001543D02*
G01X0006692Y-001229D01*
G01X0006708Y-002521D02*
G01X0007207Y-002121D01*
G01X0007959Y-000736D02*
G01X0006692Y-001229D01*
G01X0009850Y0000000D02*
G01X0009850Y-000939D01*
G01X0013604Y-001460D02*
G01X0013459Y-001790D01*
G01X0013459Y-001790D02*
G01X0013284Y-002105D01*
G01X0013284Y-002105D02*
G01X0013082Y-002404D01*
G01X0013082Y-002404D02*
G01X0012854Y-002683D01*
G01X0012854Y-002683D02*
G01X0012602Y-002941D01*
G01X0012602Y-002941D02*
G01X0012329Y-003175D01*
G01X0012329Y-003175D02*
G01X0012035Y-003384D01*
G01X0012035Y-003384D02*
G01X0011724Y-003566D01*
G01X0011724Y-003566D02*
G01X0011397Y-003719D01*
G01X0011397Y-003719D02*
G01X0011059Y-003842D01*
G01X0011059Y-003842D02*
G01X0010711Y-003935D01*
G01X0010711Y-003935D02*
G01X0010355Y-003996D01*
G01X0010355Y-003996D02*
G01X0009996Y-004025D01*
G01X0009996Y-004025D02*
G01X0009636Y-004022D01*
G01X0013008Y-001229D02*
G01X0012867Y-001543D01*
G01X0012867Y-001543D02*
G01X0012695Y-001842D01*
G01X0012695Y-001842D02*
G01X0012493Y-002121D01*
G01X0013604Y-001460D02*
G01X0013008Y-001229D01*
G01X0011433Y-001270D02*
G01X0012493Y-002121D01*
G01X0009850Y0000000D02*
G01X0010664Y0000470D01*
G01X0000000Y0029550D02*
G54D12*
G01X0000000Y0029550D03*
G54D13*
G01X0002508Y0029550D02*
G01X0002499Y0029769D01*
G01X0002499Y0029769D02*
G01X0002470Y0029986D01*
G01X0002470Y0029986D02*
G01X0002423Y0030199D01*
G01X0002423Y0030199D02*
G01X0002357Y0030408D01*
G01X0002357Y0030408D02*
G01X0002273Y0030610D01*
G01X0002273Y0030610D02*
G01X0002172Y0030804D01*
G01X0002172Y0030804D02*
G01X0002055Y0030989D01*
G01X0002055Y0030989D02*
G01X0001921Y0031162D01*
G01X0001921Y0031162D02*
G01X0001774Y0031324D01*
G01X0001774Y0031324D02*
G01X0001612Y0031471D01*
G01X0001612Y0031471D02*
G01X0001439Y0031605D01*
G01X0001439Y0031605D02*
G01X0001254Y0031722D01*
G01X0001254Y0031722D02*
G01X0001060Y0031823D01*
G01X0001060Y0031823D02*
G01X0000858Y0031907D01*
G01X0000858Y0031907D02*
G01X0000649Y0031973D01*
G01X0000649Y0031973D02*
G01X0000436Y0032020D01*
G01X0000436Y0032020D02*
G01X0000219Y0032049D01*
G01X0000219Y0032049D02*
G01X0000000Y0032058D01*
G01X0000000Y0032058D02*
G01X-000219Y0032049D01*
G01X-000219Y0032049D02*
G01X-000436Y0032020D01*
G01X-000436Y0032020D02*
G01X-000649Y0031973D01*
G01X-000649Y0031973D02*
G01X-000858Y0031907D01*
G01X-000858Y0031907D02*
G01X-001060Y0031823D01*
G01X-001060Y0031823D02*
G01X-001254Y0031722D01*
G01X-001254Y0031722D02*
G01X-001439Y0031605D01*
G01X-001439Y0031605D02*
G01X-001612Y0031471D01*
G01X-001612Y0031471D02*
G01X-001774Y0031324D01*
G01X-001774Y0031324D02*
G01X-001921Y0031162D01*
G01X-001921Y0031162D02*
G01X-002055Y0030989D01*
G01X-002055Y0030989D02*
G01X-002172Y0030804D01*
G01X-002172Y0030804D02*
G01X-002273Y0030610D01*
G01X-002273Y0030610D02*
G01X-002357Y0030408D01*
G01X-002357Y0030408D02*
G01X-002423Y0030199D01*
G01X-002423Y0030199D02*
G01X-002470Y0029986D01*
G01X-002470Y0029986D02*
G01X-002499Y0029769D01*
G01X-002499Y0029769D02*
G01X-002508Y0029550D01*
G01X-002508Y0029550D02*
G01X-002499Y0029331D01*
G01X-002499Y0029331D02*
G01X-002470Y0029114D01*
G01X-002470Y0029114D02*
G01X-002423Y0028901D01*
G01X-002423Y0028901D02*
G01X-002357Y0028692D01*
G01X-002357Y0028692D02*
G01X-002273Y0028490D01*
G01X-002273Y0028490D02*
G01X-002172Y0028296D01*
G01X-002172Y0028296D02*
G01X-002055Y0028111D01*
G01X-002055Y0028111D02*
G01X-001921Y0027938D01*
G01X-001921Y0027938D02*
G01X-001774Y0027776D01*
G01X-001774Y0027776D02*
G01X-001612Y0027629D01*
G01X-001612Y0027629D02*
G01X-001439Y0027495D01*
G01X-001439Y0027495D02*
G01X-001254Y0027378D01*
G01X-001254Y0027378D02*
G01X-001060Y0027277D01*
G01X-001060Y0027277D02*
G01X-000858Y0027193D01*
G01X-000858Y0027193D02*
G01X-000649Y0027127D01*
G01X-000649Y0027127D02*
G01X-000436Y0027080D01*
G01X-000436Y0027080D02*
G01X-000219Y0027051D01*
G01X-000219Y0027051D02*
G01X0000000Y0027042D01*
G01X0000000Y0027042D02*
G01X0000219Y0027051D01*
G01X0000219Y0027051D02*
G01X0000436Y0027080D01*
G01X0000436Y0027080D02*
G01X0000649Y0027127D01*
G01X0000649Y0027127D02*
G01X0000858Y0027193D01*
G01X0000858Y0027193D02*
G01X0001060Y0027277D01*
G01X0001060Y0027277D02*
G01X0001254Y0027378D01*
G01X0001254Y0027378D02*
G01X0001439Y0027495D01*
G01X0001439Y0027495D02*
G01X0001612Y0027629D01*
G01X0001612Y0027629D02*
G01X0001774Y0027776D01*
G01X0001774Y0027776D02*
G01X0001921Y0027938D01*
G01X0001921Y0027938D02*
G01X0002055Y0028111D01*
G01X0002055Y0028111D02*
G01X0002172Y0028296D01*
G01X0002172Y0028296D02*
G01X0002273Y0028490D01*
G01X0002273Y0028490D02*
G01X0002357Y0028692D01*
G01X0002357Y0028692D02*
G01X0002423Y0028901D01*
G01X0002423Y0028901D02*
G01X0002470Y0029114D01*
G01X0002470Y0029114D02*
G01X0002499Y0029331D01*
G01X0002499Y0029331D02*
G01X0002508Y0029550D01*
G54D11*
G01X-000612Y0033531D02*
G01X-000254Y0033570D01*
G01X-000254Y0033570D02*
G01X0000106Y0033577D01*
G01X0000106Y0033577D02*
G01X0000466Y0033551D01*
G01X0000466Y0033551D02*
G01X0000821Y0033493D01*
G01X0000821Y0033493D02*
G01X0001171Y0033404D01*
G01X0001171Y0033404D02*
G01X0001510Y0033284D01*
G01X0001510Y0033284D02*
G01X0001838Y0033134D01*
G01X0001838Y0033134D02*
G01X0002151Y0032956D01*
G01X0002151Y0032956D02*
G01X0002447Y0032750D01*
G01X0002447Y0032750D02*
G01X0002723Y0032518D01*
G01X0002723Y0032518D02*
G01X0002978Y0032263D01*
G01X0002978Y0032263D02*
G01X0003208Y0031986D01*
G01X0003208Y0031986D02*
G01X0003413Y0031689D01*
G01X0003413Y0031689D02*
G01X0003591Y0031376D01*
G01X-000515Y0032900D02*
G01X-000172Y0032935D01*
G01X-000172Y0032935D02*
G01X0000172Y0032935D01*
G01X0000172Y0032935D02*
G01X0000515Y0032900D01*
G01X-000612Y0033531D02*
G01X-000515Y0032900D01*
G01X0000449Y0032471D02*
G01X0000515Y0032900D01*
G01X0000000Y0029550D02*
G01X-001785Y0030581D01*
G01X-003142Y0027029D02*
G01X-003354Y0027320D01*
G01X-003354Y0027320D02*
G01X-003540Y0027629D01*
G01X-003540Y0027629D02*
G01X-003698Y0027953D01*
G01X-003698Y0027953D02*
G01X-003826Y0028290D01*
G01X-003826Y0028290D02*
G01X-003923Y0028637D01*
G01X-003923Y0028637D02*
G01X-003989Y0028991D01*
G01X-003989Y0028991D02*
G01X-004023Y0029350D01*
G01X-004023Y0029350D02*
G01X-004025Y0029710D01*
G01X-004025Y0029710D02*
G01X-003994Y0030069D01*
G01X-003994Y0030069D02*
G01X-003932Y0030424D01*
G01X-003932Y0030424D02*
G01X-003838Y0030772D01*
G01X-003838Y0030772D02*
G01X-003714Y0031110D01*
G01X-003714Y0031110D02*
G01X-003559Y0031436D01*
G01X-003559Y0031436D02*
G01X-003376Y0031747D01*
G01X-002643Y0027429D02*
G01X-002845Y0027708D01*
G01X-002845Y0027708D02*
G01X-003017Y0028007D01*
G01X-003017Y0028007D02*
G01X-003158Y0028321D01*
G01X-003142Y0027029D02*
G01X-002643Y0027429D01*
G01X-002754Y0028479D02*
G01X-003158Y0028321D01*
G01X0000000Y0029550D02*
G01X0000000Y0027488D01*
G01X0003754Y0028090D02*
G01X0003609Y0027760D01*
G01X0003609Y0027760D02*
G01X0003434Y0027445D01*
G01X0003434Y0027445D02*
G01X0003232Y0027146D01*
G01X0003232Y0027146D02*
G01X0003004Y0026867D01*
G01X0003004Y0026867D02*
G01X0002752Y0026609D01*
G01X0002752Y0026609D02*
G01X0002479Y0026375D01*
G01X0002479Y0026375D02*
G01X0002185Y0026166D01*
G01X0002185Y0026166D02*
G01X0001874Y0025984D01*
G01X0001874Y0025984D02*
G01X0001547Y0025831D01*
G01X0001547Y0025831D02*
G01X0001209Y0025708D01*
G01X0001209Y0025708D02*
G01X0000861Y0025615D01*
G01X0000861Y0025615D02*
G01X0000505Y0025554D01*
G01X0000505Y0025554D02*
G01X0000146Y0025525D01*
G01X0000146Y0025525D02*
G01X-000214Y0025528D01*
G01X0003158Y0028321D02*
G01X0003017Y0028007D01*
G01X0003017Y0028007D02*
G01X0002845Y0027708D01*
G01X0002845Y0027708D02*
G01X0002643Y0027429D01*
G01X0003754Y0028090D02*
G01X0003158Y0028321D01*
G01X0002305Y0027701D02*
G01X0002643Y0027429D01*
G01X0000000Y0029550D02*
G01X0001785Y0030581D01*
G01X0000000Y0019700D02*
G54D12*
G01X0000000Y0019700D03*
G54D13*
G01X0002508Y0019700D02*
G01X0002499Y0019919D01*
G01X0002499Y0019919D02*
G01X0002470Y0020136D01*
G01X0002470Y0020136D02*
G01X0002423Y0020349D01*
G01X0002423Y0020349D02*
G01X0002357Y0020558D01*
G01X0002357Y0020558D02*
G01X0002273Y0020760D01*
G01X0002273Y0020760D02*
G01X0002172Y0020954D01*
G01X0002172Y0020954D02*
G01X0002055Y0021139D01*
G01X0002055Y0021139D02*
G01X0001921Y0021312D01*
G01X0001921Y0021312D02*
G01X0001774Y0021474D01*
G01X0001774Y0021474D02*
G01X0001612Y0021621D01*
G01X0001612Y0021621D02*
G01X0001439Y0021755D01*
G01X0001439Y0021755D02*
G01X0001254Y0021872D01*
G01X0001254Y0021872D02*
G01X0001060Y0021973D01*
G01X0001060Y0021973D02*
G01X0000858Y0022057D01*
G01X0000858Y0022057D02*
G01X0000649Y0022123D01*
G01X0000649Y0022123D02*
G01X0000436Y0022170D01*
G01X0000436Y0022170D02*
G01X0000219Y0022199D01*
G01X0000219Y0022199D02*
G01X0000000Y0022208D01*
G01X0000000Y0022208D02*
G01X-000219Y0022199D01*
G01X-000219Y0022199D02*
G01X-000436Y0022170D01*
G01X-000436Y0022170D02*
G01X-000649Y0022123D01*
G01X-000649Y0022123D02*
G01X-000858Y0022057D01*
G01X-000858Y0022057D02*
G01X-001060Y0021973D01*
G01X-001060Y0021973D02*
G01X-001254Y0021872D01*
G01X-001254Y0021872D02*
G01X-001439Y0021755D01*
G01X-001439Y0021755D02*
G01X-001612Y0021621D01*
G01X-001612Y0021621D02*
G01X-001774Y0021474D01*
G01X-001774Y0021474D02*
G01X-001921Y0021312D01*
G01X-001921Y0021312D02*
G01X-002055Y0021139D01*
G01X-002055Y0021139D02*
G01X-002172Y0020954D01*
G01X-002172Y0020954D02*
G01X-002273Y0020760D01*
G01X-002273Y0020760D02*
G01X-002357Y0020558D01*
G01X-002357Y0020558D02*
G01X-002423Y0020349D01*
G01X-002423Y0020349D02*
G01X-002470Y0020136D01*
G01X-002470Y0020136D02*
G01X-002499Y0019919D01*
G01X-002499Y0019919D02*
G01X-002508Y0019700D01*
G01X-002508Y0019700D02*
G01X-002499Y0019481D01*
G01X-002499Y0019481D02*
G01X-002470Y0019264D01*
G01X-002470Y0019264D02*
G01X-002423Y0019051D01*
G01X-002423Y0019051D02*
G01X-002357Y0018842D01*
G01X-002357Y0018842D02*
G01X-002273Y0018640D01*
G01X-002273Y0018640D02*
G01X-002172Y0018446D01*
G01X-002172Y0018446D02*
G01X-002055Y0018261D01*
G01X-002055Y0018261D02*
G01X-001921Y0018088D01*
G01X-001921Y0018088D02*
G01X-001774Y0017926D01*
G01X-001774Y0017926D02*
G01X-001612Y0017779D01*
G01X-001612Y0017779D02*
G01X-001439Y0017645D01*
G01X-001439Y0017645D02*
G01X-001254Y0017528D01*
G01X-001254Y0017528D02*
G01X-001060Y0017427D01*
G01X-001060Y0017427D02*
G01X-000858Y0017343D01*
G01X-000858Y0017343D02*
G01X-000649Y0017277D01*
G01X-000649Y0017277D02*
G01X-000436Y0017230D01*
G01X-000436Y0017230D02*
G01X-000219Y0017201D01*
G01X-000219Y0017201D02*
G01X0000000Y0017192D01*
G01X0000000Y0017192D02*
G01X0000219Y0017201D01*
G01X0000219Y0017201D02*
G01X0000436Y0017230D01*
G01X0000436Y0017230D02*
G01X0000649Y0017277D01*
G01X0000649Y0017277D02*
G01X0000858Y0017343D01*
G01X0000858Y0017343D02*
G01X0001060Y0017427D01*
G01X0001060Y0017427D02*
G01X0001254Y0017528D01*
G01X0001254Y0017528D02*
G01X0001439Y0017645D01*
G01X0001439Y0017645D02*
G01X0001612Y0017779D01*
G01X0001612Y0017779D02*
G01X0001774Y0017926D01*
G01X0001774Y0017926D02*
G01X0001921Y0018088D01*
G01X0001921Y0018088D02*
G01X0002055Y0018261D01*
G01X0002055Y0018261D02*
G01X0002172Y0018446D01*
G01X0002172Y0018446D02*
G01X0002273Y0018640D01*
G01X0002273Y0018640D02*
G01X0002357Y0018842D01*
G01X0002357Y0018842D02*
G01X0002423Y0019051D01*
G01X0002423Y0019051D02*
G01X0002470Y0019264D01*
G01X0002470Y0019264D02*
G01X0002499Y0019481D01*
G01X0002499Y0019481D02*
G01X0002508Y0019700D01*
G54D11*
G01X-000612Y0023681D02*
G01X-000254Y0023720D01*
G01X-000254Y0023720D02*
G01X0000106Y0023727D01*
G01X0000106Y0023727D02*
G01X0000466Y0023701D01*
G01X0000466Y0023701D02*
G01X0000821Y0023643D01*
G01X0000821Y0023643D02*
G01X0001171Y0023554D01*
G01X0001171Y0023554D02*
G01X0001510Y0023434D01*
G01X0001510Y0023434D02*
G01X0001838Y0023284D01*
G01X0001838Y0023284D02*
G01X0002151Y0023106D01*
G01X0002151Y0023106D02*
G01X0002447Y0022900D01*
G01X0002447Y0022900D02*
G01X0002723Y0022668D01*
G01X0002723Y0022668D02*
G01X0002978Y0022413D01*
G01X0002978Y0022413D02*
G01X0003208Y0022136D01*
G01X0003208Y0022136D02*
G01X0003413Y0021839D01*
G01X0003413Y0021839D02*
G01X0003591Y0021526D01*
G01X-000515Y0023050D02*
G01X-000172Y0023085D01*
G01X-000172Y0023085D02*
G01X0000172Y0023085D01*
G01X0000172Y0023085D02*
G01X0000515Y0023050D01*
G01X-000612Y0023681D02*
G01X-000515Y0023050D01*
G01X0000449Y0022621D02*
G01X0000515Y0023050D01*
G01X0000000Y0019700D02*
G01X-001785Y0020731D01*
G01X-003142Y0017179D02*
G01X-003354Y0017470D01*
G01X-003354Y0017470D02*
G01X-003540Y0017779D01*
G01X-003540Y0017779D02*
G01X-003698Y0018103D01*
G01X-003698Y0018103D02*
G01X-003826Y0018440D01*
G01X-003826Y0018440D02*
G01X-003923Y0018787D01*
G01X-003923Y0018787D02*
G01X-003989Y0019141D01*
G01X-003989Y0019141D02*
G01X-004023Y0019500D01*
G01X-004023Y0019500D02*
G01X-004025Y0019860D01*
G01X-004025Y0019860D02*
G01X-003994Y0020219D01*
G01X-003994Y0020219D02*
G01X-003932Y0020574D01*
G01X-003932Y0020574D02*
G01X-003838Y0020922D01*
G01X-003838Y0020922D02*
G01X-003714Y0021260D01*
G01X-003714Y0021260D02*
G01X-003559Y0021586D01*
G01X-003559Y0021586D02*
G01X-003376Y0021897D01*
G01X-002643Y0017579D02*
G01X-002845Y0017858D01*
G01X-002845Y0017858D02*
G01X-003017Y0018157D01*
G01X-003017Y0018157D02*
G01X-003158Y0018471D01*
G01X-003142Y0017179D02*
G01X-002643Y0017579D01*
G01X-002754Y0018629D02*
G01X-003158Y0018471D01*
G01X0000000Y0019700D02*
G01X0000000Y0017638D01*
G01X0003754Y0018240D02*
G01X0003609Y0017910D01*
G01X0003609Y0017910D02*
G01X0003434Y0017595D01*
G01X0003434Y0017595D02*
G01X0003232Y0017296D01*
G01X0003232Y0017296D02*
G01X0003004Y0017017D01*
G01X0003004Y0017017D02*
G01X0002752Y0016759D01*
G01X0002752Y0016759D02*
G01X0002479Y0016525D01*
G01X0002479Y0016525D02*
G01X0002185Y0016316D01*
G01X0002185Y0016316D02*
G01X0001874Y0016134D01*
G01X0001874Y0016134D02*
G01X0001547Y0015981D01*
G01X0001547Y0015981D02*
G01X0001209Y0015858D01*
G01X0001209Y0015858D02*
G01X0000861Y0015765D01*
G01X0000861Y0015765D02*
G01X0000505Y0015704D01*
G01X0000505Y0015704D02*
G01X0000146Y0015675D01*
G01X0000146Y0015675D02*
G01X-000214Y0015678D01*
G01X0003158Y0018471D02*
G01X0003017Y0018157D01*
G01X0003017Y0018157D02*
G01X0002845Y0017858D01*
G01X0002845Y0017858D02*
G01X0002643Y0017579D01*
G01X0003754Y0018240D02*
G01X0003158Y0018471D01*
G01X0002305Y0017851D02*
G01X0002643Y0017579D01*
G01X0000000Y0019700D02*
G01X0001785Y0020731D01*
G01X0000000Y0009850D02*
G36*
G01X0000417Y0009850D02*
G01X0000416Y0009886D01*
G01X0000411Y0009922D01*
G01X0000403Y0009958D01*
G01X0000392Y0009993D01*
G01X0000378Y0010026D01*
G01X0000361Y0010059D01*
G01X0000342Y0010089D01*
G01X0000320Y0010118D01*
G01X0000295Y0010145D01*
G01X0000268Y0010170D01*
G01X0000239Y0010192D01*
G01X0000209Y0010211D01*
G01X0000176Y0010228D01*
G01X0000143Y0010242D01*
G01X0000108Y0010253D01*
G01X0000072Y0010261D01*
G01X0000036Y0010266D01*
G01X0000000Y0010267D01*
G01X-000036Y0010266D01*
G01X-000072Y0010261D01*
G01X-000108Y0010253D01*
G01X-000143Y0010242D01*
G01X-000176Y0010228D01*
G01X-000209Y0010211D01*
G01X-000239Y0010192D01*
G01X-000268Y0010170D01*
G01X-000295Y0010145D01*
G01X-000320Y0010118D01*
G01X-000342Y0010089D01*
G01X-000361Y0010059D01*
G01X-000378Y0010026D01*
G01X-000392Y0009993D01*
G01X-000403Y0009958D01*
G01X-000411Y0009922D01*
G01X-000416Y0009886D01*
G01X-000417Y0009850D01*
G01X-000416Y0009814D01*
G01X-000411Y0009778D01*
G01X-000403Y0009742D01*
G01X-000392Y0009707D01*
G01X-000378Y0009674D01*
G01X-000361Y0009641D01*
G01X-000342Y0009611D01*
G01X-000320Y0009582D01*
G01X-000295Y0009555D01*
G01X-000268Y0009530D01*
G01X-000239Y0009508D01*
G01X-000209Y0009489D01*
G01X-000176Y0009472D01*
G01X-000143Y0009458D01*
G01X-000108Y0009447D01*
G01X-000072Y0009439D01*
G01X-000036Y0009434D01*
G01X0000000Y0009433D01*
G01X0000036Y0009434D01*
G01X0000072Y0009439D01*
G01X0000108Y0009447D01*
G01X0000143Y0009458D01*
G01X0000176Y0009472D01*
G01X0000209Y0009489D01*
G01X0000239Y0009508D01*
G01X0000268Y0009530D01*
G01X0000295Y0009555D01*
G01X0000320Y0009582D01*
G01X0000342Y0009611D01*
G01X0000361Y0009641D01*
G01X0000378Y0009674D01*
G01X0000392Y0009707D01*
G01X0000403Y0009742D01*
G01X0000411Y0009778D01*
G01X0000416Y0009814D01*
G01X0000417Y0009850D01*
G37*
G36*
G01X0000417Y0009850D02*
G37*
G54D10*
G01X0001484Y0009850D02*
G01X0001479Y0009979D01*
G01X0001479Y0009979D02*
G01X0001462Y0010108D01*
G01X0001462Y0010108D02*
G01X0001434Y0010234D01*
G01X0001434Y0010234D02*
G01X0001395Y0010358D01*
G01X0001395Y0010358D02*
G01X0001345Y0010477D01*
G01X0001345Y0010477D02*
G01X0001285Y0010592D01*
G01X0001285Y0010592D02*
G01X0001216Y0010701D01*
G01X0001216Y0010701D02*
G01X0001137Y0010804D01*
G01X0001137Y0010804D02*
G01X0001050Y0010900D01*
G01X0001050Y0010900D02*
G01X0000954Y0010987D01*
G01X0000954Y0010987D02*
G01X0000851Y0011066D01*
G01X0000851Y0011066D02*
G01X0000742Y0011135D01*
G01X0000742Y0011135D02*
G01X0000627Y0011195D01*
G01X0000627Y0011195D02*
G01X0000508Y0011245D01*
G01X0000508Y0011245D02*
G01X0000384Y0011284D01*
G01X0000384Y0011284D02*
G01X0000258Y0011312D01*
G01X0000258Y0011312D02*
G01X0000129Y0011329D01*
G01X0000129Y0011329D02*
G01X0000000Y0011334D01*
G01X0000000Y0011334D02*
G01X-000129Y0011329D01*
G01X-000129Y0011329D02*
G01X-000258Y0011312D01*
G01X-000258Y0011312D02*
G01X-000384Y0011284D01*
G01X-000384Y0011284D02*
G01X-000508Y0011245D01*
G01X-000508Y0011245D02*
G01X-000627Y0011195D01*
G01X-000627Y0011195D02*
G01X-000742Y0011135D01*
G01X-000742Y0011135D02*
G01X-000851Y0011066D01*
G01X-000851Y0011066D02*
G01X-000954Y0010987D01*
G01X-000954Y0010987D02*
G01X-001050Y0010900D01*
G01X-001050Y0010900D02*
G01X-001137Y0010804D01*
G01X-001137Y0010804D02*
G01X-001216Y0010701D01*
G01X-001216Y0010701D02*
G01X-001285Y0010592D01*
G01X-001285Y0010592D02*
G01X-001345Y0010477D01*
G01X-001345Y0010477D02*
G01X-001395Y0010358D01*
G01X-001395Y0010358D02*
G01X-001434Y0010234D01*
G01X-001434Y0010234D02*
G01X-001462Y0010108D01*
G01X-001462Y0010108D02*
G01X-001479Y0009979D01*
G01X-001479Y0009979D02*
G01X-001484Y0009850D01*
G01X-001484Y0009850D02*
G01X-001479Y0009721D01*
G01X-001479Y0009721D02*
G01X-001462Y0009592D01*
G01X-001462Y0009592D02*
G01X-001434Y0009466D01*
G01X-001434Y0009466D02*
G01X-001395Y0009342D01*
G01X-001395Y0009342D02*
G01X-001345Y0009223D01*
G01X-001345Y0009223D02*
G01X-001285Y0009108D01*
G01X-001285Y0009108D02*
G01X-001216Y0008999D01*
G01X-001216Y0008999D02*
G01X-001137Y0008896D01*
G01X-001137Y0008896D02*
G01X-001050Y0008800D01*
G01X-001050Y0008800D02*
G01X-000954Y0008713D01*
G01X-000954Y0008713D02*
G01X-000851Y0008634D01*
G01X-000851Y0008634D02*
G01X-000742Y0008565D01*
G01X-000742Y0008565D02*
G01X-000627Y0008505D01*
G01X-000627Y0008505D02*
G01X-000508Y0008455D01*
G01X-000508Y0008455D02*
G01X-000384Y0008416D01*
G01X-000384Y0008416D02*
G01X-000258Y0008388D01*
G01X-000258Y0008388D02*
G01X-000129Y0008371D01*
G01X-000129Y0008371D02*
G01X0000000Y0008366D01*
G01X0000000Y0008366D02*
G01X0000129Y0008371D01*
G01X0000129Y0008371D02*
G01X0000258Y0008388D01*
G01X0000258Y0008388D02*
G01X0000384Y0008416D01*
G01X0000384Y0008416D02*
G01X0000508Y0008455D01*
G01X0000508Y0008455D02*
G01X0000627Y0008505D01*
G01X0000627Y0008505D02*
G01X0000742Y0008565D01*
G01X0000742Y0008565D02*
G01X0000851Y0008634D01*
G01X0000851Y0008634D02*
G01X0000954Y0008713D01*
G01X0000954Y0008713D02*
G01X0001050Y0008800D01*
G01X0001050Y0008800D02*
G01X0001137Y0008896D01*
G01X0001137Y0008896D02*
G01X0001216Y0008999D01*
G01X0001216Y0008999D02*
G01X0001285Y0009108D01*
G01X0001285Y0009108D02*
G01X0001345Y0009223D01*
G01X0001345Y0009223D02*
G01X0001395Y0009342D01*
G01X0001395Y0009342D02*
G01X0001434Y0009466D01*
G01X0001434Y0009466D02*
G01X0001462Y0009592D01*
G01X0001462Y0009592D02*
G01X0001479Y0009721D01*
G01X0001479Y0009721D02*
G01X0001484Y0009850D01*
G54D11*
G01X0000612Y0013831D02*
G01X0000254Y0013870D01*
G01X0000254Y0013870D02*
G01X-000106Y0013877D01*
G01X-000106Y0013877D02*
G01X-000466Y0013851D01*
G01X-000466Y0013851D02*
G01X-000821Y0013793D01*
G01X-000821Y0013793D02*
G01X-001171Y0013704D01*
G01X-001171Y0013704D02*
G01X-001510Y0013584D01*
G01X-001510Y0013584D02*
G01X-001838Y0013434D01*
G01X-001838Y0013434D02*
G01X-002151Y0013256D01*
G01X-002151Y0013256D02*
G01X-002447Y0013050D01*
G01X-002447Y0013050D02*
G01X-002723Y0012818D01*
G01X-002723Y0012818D02*
G01X-002978Y0012563D01*
G01X-002978Y0012563D02*
G01X-003208Y0012286D01*
G01X-003208Y0012286D02*
G01X-003413Y0011989D01*
G01X-003413Y0011989D02*
G01X-003591Y0011676D01*
G01X0000515Y0013200D02*
G01X0000172Y0013235D01*
G01X0000172Y0013235D02*
G01X-000172Y0013235D01*
G01X-000172Y0013235D02*
G01X-000515Y0013200D01*
G01X0000612Y0013831D02*
G01X0000515Y0013200D01*
G01X-000309Y0011856D02*
G01X-000515Y0013200D01*
G01X0000000Y0009850D02*
G01X-000814Y0010320D01*
G01X-003754Y0008390D02*
G01X-003609Y0008060D01*
G01X-003609Y0008060D02*
G01X-003434Y0007745D01*
G01X-003434Y0007745D02*
G01X-003232Y0007446D01*
G01X-003232Y0007446D02*
G01X-003004Y0007167D01*
G01X-003004Y0007167D02*
G01X-002752Y0006909D01*
G01X-002752Y0006909D02*
G01X-002479Y0006675D01*
G01X-002479Y0006675D02*
G01X-002185Y0006466D01*
G01X-002185Y0006466D02*
G01X-001874Y0006284D01*
G01X-001874Y0006284D02*
G01X-001547Y0006131D01*
G01X-001547Y0006131D02*
G01X-001209Y0006008D01*
G01X-001209Y0006008D02*
G01X-000861Y0005915D01*
G01X-000861Y0005915D02*
G01X-000505Y0005854D01*
G01X-000505Y0005854D02*
G01X-000146Y0005825D01*
G01X-000146Y0005825D02*
G01X0000214Y0005828D01*
G01X-003158Y0008621D02*
G01X-003017Y0008307D01*
G01X-003017Y0008307D02*
G01X-002845Y0008008D01*
G01X-002845Y0008008D02*
G01X-002643Y0007729D01*
G01X-003754Y0008390D02*
G01X-003158Y0008621D01*
G01X-001583Y0008580D02*
G01X-002643Y0007729D01*
G01X0000000Y0009850D02*
G01X0000000Y0008911D01*
G01X0003142Y0007329D02*
G01X0003354Y0007620D01*
G01X0003354Y0007620D02*
G01X0003540Y0007929D01*
G01X0003540Y0007929D02*
G01X0003698Y0008253D01*
G01X0003698Y0008253D02*
G01X0003826Y0008590D01*
G01X0003826Y0008590D02*
G01X0003923Y0008937D01*
G01X0003923Y0008937D02*
G01X0003989Y0009291D01*
G01X0003989Y0009291D02*
G01X0004023Y0009650D01*
G01X0004023Y0009650D02*
G01X0004025Y0010010D01*
G01X0004025Y0010010D02*
G01X0003994Y0010369D01*
G01X0003994Y0010369D02*
G01X0003932Y0010724D01*
G01X0003932Y0010724D02*
G01X0003838Y0011072D01*
G01X0003838Y0011072D02*
G01X0003714Y0011410D01*
G01X0003714Y0011410D02*
G01X0003559Y0011736D01*
G01X0003559Y0011736D02*
G01X0003376Y0012047D01*
G01X0002643Y0007729D02*
G01X0002845Y0008008D01*
G01X0002845Y0008008D02*
G01X0003017Y0008307D01*
G01X0003017Y0008307D02*
G01X0003158Y0008621D01*
G01X0003142Y0007329D02*
G01X0002643Y0007729D01*
G01X0001891Y0009114D02*
G01X0003158Y0008621D01*
G01X0000000Y0009850D02*
G01X0000814Y0010320D01*
M02*
