G04 This is an RS-274x file exported by *
G04 gerbv version 2.6.0 *
G04 More information is available about gerbv at *
G04 http://gerbv.gpleda.org/ *
G04 --End of header info--*
%MOIN*%
%FSLAX34Y34*%
%IPPOS*%
G04 --Define apertures--*
%ADD10C,0.1890*%
%ADD11C,0.1181*%
%ADD12C,0.0598*%
G04 --Start main section--*
G54D10*
G01X0000000Y0000000D03*
%LPC*%
G54D11*
G01X0000000Y0000000D03*
%LPD*%
G54D12*
G01X0000000Y0000000D03*
G01X0023775Y0029775D02*
G54D10*
G01X0023775Y0029775D03*
G36*
G01X0025998Y0029775D02*
G01X0025989Y0029969D01*
G01X0025964Y0030161D01*
G01X0025922Y0030350D01*
G01X0025864Y0030535D01*
G01X0025790Y0030714D01*
G01X0025700Y0030886D01*
G01X0025596Y0031050D01*
G01X0025478Y0031204D01*
G01X0025347Y0031347D01*
G01X0025204Y0031478D01*
G01X0025050Y0031596D01*
G01X0024886Y0031700D01*
G01X0024714Y0031790D01*
G01X0024535Y0031864D01*
G01X0024350Y0031922D01*
G01X0024161Y0031964D01*
G01X0023969Y0031989D01*
G01X0023775Y0031998D01*
G01X0023581Y0031989D01*
G01X0023389Y0031964D01*
G01X0023200Y0031922D01*
G01X0023015Y0031864D01*
G01X0022836Y0031790D01*
G01X0022664Y0031700D01*
G01X0022500Y0031596D01*
G01X0022346Y0031478D01*
G01X0022203Y0031347D01*
G01X0022072Y0031204D01*
G01X0021954Y0031050D01*
G01X0021850Y0030886D01*
G01X0021760Y0030714D01*
G01X0021686Y0030535D01*
G01X0021628Y0030350D01*
G01X0021586Y0030161D01*
G01X0021561Y0029969D01*
G01X0021552Y0029775D01*
G01X0021561Y0029581D01*
G01X0021586Y0029389D01*
G01X0021628Y0029200D01*
G01X0021686Y0029015D01*
G01X0021760Y0028836D01*
G01X0021850Y0028664D01*
G01X0021954Y0028500D01*
G01X0022072Y0028346D01*
G01X0022203Y0028203D01*
G01X0022346Y0028072D01*
G01X0022500Y0027954D01*
G01X0022664Y0027850D01*
G01X0022836Y0027760D01*
G01X0023015Y0027686D01*
G01X0023200Y0027628D01*
G01X0023389Y0027586D01*
G01X0023581Y0027561D01*
G01X0023775Y0027552D01*
G01X0023969Y0027561D01*
G01X0024161Y0027586D01*
G01X0024350Y0027628D01*
G01X0024535Y0027686D01*
G01X0024714Y0027760D01*
G01X0024886Y0027850D01*
G01X0025050Y0027954D01*
G01X0025204Y0028072D01*
G01X0025347Y0028203D01*
G01X0025478Y0028346D01*
G01X0025596Y0028500D01*
G01X0025700Y0028664D01*
G01X0025790Y0028836D01*
G01X0025864Y0029015D01*
G01X0025922Y0029200D01*
G01X0025964Y0029389D01*
G01X0025989Y0029581D01*
G01X0025998Y0029775D01*
G37*
G36*
G01X0025998Y0029775D02*
G37*
G01X0017775Y0029775D02*
G01X0017775Y0029775D03*
G36*
G01X0019998Y0029775D02*
G01X0019989Y0029969D01*
G01X0019964Y0030161D01*
G01X0019922Y0030350D01*
G01X0019864Y0030535D01*
G01X0019790Y0030714D01*
G01X0019700Y0030886D01*
G01X0019596Y0031050D01*
G01X0019478Y0031204D01*
G01X0019347Y0031347D01*
G01X0019204Y0031478D01*
G01X0019050Y0031596D01*
G01X0018886Y0031700D01*
G01X0018714Y0031790D01*
G01X0018535Y0031864D01*
G01X0018350Y0031922D01*
G01X0018161Y0031964D01*
G01X0017969Y0031989D01*
G01X0017775Y0031998D01*
G01X0017581Y0031989D01*
G01X0017389Y0031964D01*
G01X0017200Y0031922D01*
G01X0017015Y0031864D01*
G01X0016836Y0031790D01*
G01X0016664Y0031700D01*
G01X0016500Y0031596D01*
G01X0016346Y0031478D01*
G01X0016203Y0031347D01*
G01X0016072Y0031204D01*
G01X0015954Y0031050D01*
G01X0015850Y0030886D01*
G01X0015760Y0030714D01*
G01X0015686Y0030535D01*
G01X0015628Y0030350D01*
G01X0015586Y0030161D01*
G01X0015561Y0029969D01*
G01X0015552Y0029775D01*
G01X0015561Y0029581D01*
G01X0015586Y0029389D01*
G01X0015628Y0029200D01*
G01X0015686Y0029015D01*
G01X0015760Y0028836D01*
G01X0015850Y0028664D01*
G01X0015954Y0028500D01*
G01X0016072Y0028346D01*
G01X0016203Y0028203D01*
G01X0016346Y0028072D01*
G01X0016500Y0027954D01*
G01X0016664Y0027850D01*
G01X0016836Y0027760D01*
G01X0017015Y0027686D01*
G01X0017200Y0027628D01*
G01X0017389Y0027586D01*
G01X0017581Y0027561D01*
G01X0017775Y0027552D01*
G01X0017969Y0027561D01*
G01X0018161Y0027586D01*
G01X0018350Y0027628D01*
G01X0018535Y0027686D01*
G01X0018714Y0027760D01*
G01X0018886Y0027850D01*
G01X0019050Y0027954D01*
G01X0019204Y0028072D01*
G01X0019347Y0028203D01*
G01X0019478Y0028346D01*
G01X0019596Y0028500D01*
G01X0019700Y0028664D01*
G01X0019790Y0028836D01*
G01X0019864Y0029015D01*
G01X0019922Y0029200D01*
G01X0019964Y0029389D01*
G01X0019989Y0029581D01*
G01X0019998Y0029775D01*
G37*
G36*
G01X0019998Y0029775D02*
G37*
G01X0029775Y0023775D02*
G01X0029775Y0023775D03*
G36*
G01X0031998Y0023775D02*
G01X0031989Y0023969D01*
G01X0031964Y0024161D01*
G01X0031922Y0024350D01*
G01X0031864Y0024535D01*
G01X0031790Y0024714D01*
G01X0031700Y0024886D01*
G01X0031596Y0025050D01*
G01X0031478Y0025204D01*
G01X0031347Y0025347D01*
G01X0031204Y0025478D01*
G01X0031050Y0025596D01*
G01X0030886Y0025700D01*
G01X0030714Y0025790D01*
G01X0030535Y0025864D01*
G01X0030350Y0025922D01*
G01X0030161Y0025964D01*
G01X0029969Y0025989D01*
G01X0029775Y0025998D01*
G01X0029581Y0025989D01*
G01X0029389Y0025964D01*
G01X0029200Y0025922D01*
G01X0029015Y0025864D01*
G01X0028836Y0025790D01*
G01X0028664Y0025700D01*
G01X0028500Y0025596D01*
G01X0028346Y0025478D01*
G01X0028203Y0025347D01*
G01X0028072Y0025204D01*
G01X0027954Y0025050D01*
G01X0027850Y0024886D01*
G01X0027760Y0024714D01*
G01X0027686Y0024535D01*
G01X0027628Y0024350D01*
G01X0027586Y0024161D01*
G01X0027561Y0023969D01*
G01X0027552Y0023775D01*
G01X0027561Y0023581D01*
G01X0027586Y0023389D01*
G01X0027628Y0023200D01*
G01X0027686Y0023015D01*
G01X0027760Y0022836D01*
G01X0027850Y0022664D01*
G01X0027954Y0022500D01*
G01X0028072Y0022346D01*
G01X0028203Y0022203D01*
G01X0028346Y0022072D01*
G01X0028500Y0021954D01*
G01X0028664Y0021850D01*
G01X0028836Y0021760D01*
G01X0029015Y0021686D01*
G01X0029200Y0021628D01*
G01X0029389Y0021586D01*
G01X0029581Y0021561D01*
G01X0029775Y0021552D01*
G01X0029969Y0021561D01*
G01X0030161Y0021586D01*
G01X0030350Y0021628D01*
G01X0030535Y0021686D01*
G01X0030714Y0021760D01*
G01X0030886Y0021850D01*
G01X0031050Y0021954D01*
G01X0031204Y0022072D01*
G01X0031347Y0022203D01*
G01X0031478Y0022346D01*
G01X0031596Y0022500D01*
G01X0031700Y0022664D01*
G01X0031790Y0022836D01*
G01X0031864Y0023015D01*
G01X0031922Y0023200D01*
G01X0031964Y0023389D01*
G01X0031989Y0023581D01*
G01X0031998Y0023775D01*
G37*
G36*
G01X0031998Y0023775D02*
G37*
G01X0023775Y0023775D02*
G01X0023775Y0023775D03*
G36*
G01X0025998Y0023775D02*
G01X0025989Y0023969D01*
G01X0025964Y0024161D01*
G01X0025922Y0024350D01*
G01X0025864Y0024535D01*
G01X0025790Y0024714D01*
G01X0025700Y0024886D01*
G01X0025596Y0025050D01*
G01X0025478Y0025204D01*
G01X0025347Y0025347D01*
G01X0025204Y0025478D01*
G01X0025050Y0025596D01*
G01X0024886Y0025700D01*
G01X0024714Y0025790D01*
G01X0024535Y0025864D01*
G01X0024350Y0025922D01*
G01X0024161Y0025964D01*
G01X0023969Y0025989D01*
G01X0023775Y0025998D01*
G01X0023581Y0025989D01*
G01X0023389Y0025964D01*
G01X0023200Y0025922D01*
G01X0023015Y0025864D01*
G01X0022836Y0025790D01*
G01X0022664Y0025700D01*
G01X0022500Y0025596D01*
G01X0022346Y0025478D01*
G01X0022203Y0025347D01*
G01X0022072Y0025204D01*
G01X0021954Y0025050D01*
G01X0021850Y0024886D01*
G01X0021760Y0024714D01*
G01X0021686Y0024535D01*
G01X0021628Y0024350D01*
G01X0021586Y0024161D01*
G01X0021561Y0023969D01*
G01X0021552Y0023775D01*
G01X0021561Y0023581D01*
G01X0021586Y0023389D01*
G01X0021628Y0023200D01*
G01X0021686Y0023015D01*
G01X0021760Y0022836D01*
G01X0021850Y0022664D01*
G01X0021954Y0022500D01*
G01X0022072Y0022346D01*
G01X0022203Y0022203D01*
G01X0022346Y0022072D01*
G01X0022500Y0021954D01*
G01X0022664Y0021850D01*
G01X0022836Y0021760D01*
G01X0023015Y0021686D01*
G01X0023200Y0021628D01*
G01X0023389Y0021586D01*
G01X0023581Y0021561D01*
G01X0023775Y0021552D01*
G01X0023969Y0021561D01*
G01X0024161Y0021586D01*
G01X0024350Y0021628D01*
G01X0024535Y0021686D01*
G01X0024714Y0021760D01*
G01X0024886Y0021850D01*
G01X0025050Y0021954D01*
G01X0025204Y0022072D01*
G01X0025347Y0022203D01*
G01X0025478Y0022346D01*
G01X0025596Y0022500D01*
G01X0025700Y0022664D01*
G01X0025790Y0022836D01*
G01X0025864Y0023015D01*
G01X0025922Y0023200D01*
G01X0025964Y0023389D01*
G01X0025989Y0023581D01*
G01X0025998Y0023775D01*
G37*
G36*
G01X0025998Y0023775D02*
G37*
G01X0017775Y0023775D02*
G01X0017775Y0023775D03*
G36*
G01X0019998Y0023775D02*
G01X0019989Y0023969D01*
G01X0019964Y0024161D01*
G01X0019922Y0024350D01*
G01X0019864Y0024535D01*
G01X0019790Y0024714D01*
G01X0019700Y0024886D01*
G01X0019596Y0025050D01*
G01X0019478Y0025204D01*
G01X0019347Y0025347D01*
G01X0019204Y0025478D01*
G01X0019050Y0025596D01*
G01X0018886Y0025700D01*
G01X0018714Y0025790D01*
G01X0018535Y0025864D01*
G01X0018350Y0025922D01*
G01X0018161Y0025964D01*
G01X0017969Y0025989D01*
G01X0017775Y0025998D01*
G01X0017581Y0025989D01*
G01X0017389Y0025964D01*
G01X0017200Y0025922D01*
G01X0017015Y0025864D01*
G01X0016836Y0025790D01*
G01X0016664Y0025700D01*
G01X0016500Y0025596D01*
G01X0016346Y0025478D01*
G01X0016203Y0025347D01*
G01X0016072Y0025204D01*
G01X0015954Y0025050D01*
G01X0015850Y0024886D01*
G01X0015760Y0024714D01*
G01X0015686Y0024535D01*
G01X0015628Y0024350D01*
G01X0015586Y0024161D01*
G01X0015561Y0023969D01*
G01X0015552Y0023775D01*
G01X0015561Y0023581D01*
G01X0015586Y0023389D01*
G01X0015628Y0023200D01*
G01X0015686Y0023015D01*
G01X0015760Y0022836D01*
G01X0015850Y0022664D01*
G01X0015954Y0022500D01*
G01X0016072Y0022346D01*
G01X0016203Y0022203D01*
G01X0016346Y0022072D01*
G01X0016500Y0021954D01*
G01X0016664Y0021850D01*
G01X0016836Y0021760D01*
G01X0017015Y0021686D01*
G01X0017200Y0021628D01*
G01X0017389Y0021586D01*
G01X0017581Y0021561D01*
G01X0017775Y0021552D01*
G01X0017969Y0021561D01*
G01X0018161Y0021586D01*
G01X0018350Y0021628D01*
G01X0018535Y0021686D01*
G01X0018714Y0021760D01*
G01X0018886Y0021850D01*
G01X0019050Y0021954D01*
G01X0019204Y0022072D01*
G01X0019347Y0022203D01*
G01X0019478Y0022346D01*
G01X0019596Y0022500D01*
G01X0019700Y0022664D01*
G01X0019790Y0022836D01*
G01X0019864Y0023015D01*
G01X0019922Y0023200D01*
G01X0019964Y0023389D01*
G01X0019989Y0023581D01*
G01X0019998Y0023775D01*
G37*
G36*
G01X0019998Y0023775D02*
G37*
G01X0029775Y0017775D02*
G01X0029775Y0017775D03*
G36*
G01X0031998Y0017775D02*
G01X0031989Y0017969D01*
G01X0031964Y0018161D01*
G01X0031922Y0018350D01*
G01X0031864Y0018535D01*
G01X0031790Y0018714D01*
G01X0031700Y0018886D01*
G01X0031596Y0019050D01*
G01X0031478Y0019204D01*
G01X0031347Y0019347D01*
G01X0031204Y0019478D01*
G01X0031050Y0019596D01*
G01X0030886Y0019700D01*
G01X0030714Y0019790D01*
G01X0030535Y0019864D01*
G01X0030350Y0019922D01*
G01X0030161Y0019964D01*
G01X0029969Y0019989D01*
G01X0029775Y0019998D01*
G01X0029581Y0019989D01*
G01X0029389Y0019964D01*
G01X0029200Y0019922D01*
G01X0029015Y0019864D01*
G01X0028836Y0019790D01*
G01X0028664Y0019700D01*
G01X0028500Y0019596D01*
G01X0028346Y0019478D01*
G01X0028203Y0019347D01*
G01X0028072Y0019204D01*
G01X0027954Y0019050D01*
G01X0027850Y0018886D01*
G01X0027760Y0018714D01*
G01X0027686Y0018535D01*
G01X0027628Y0018350D01*
G01X0027586Y0018161D01*
G01X0027561Y0017969D01*
G01X0027552Y0017775D01*
G01X0027561Y0017581D01*
G01X0027586Y0017389D01*
G01X0027628Y0017200D01*
G01X0027686Y0017015D01*
G01X0027760Y0016836D01*
G01X0027850Y0016664D01*
G01X0027954Y0016500D01*
G01X0028072Y0016346D01*
G01X0028203Y0016203D01*
G01X0028346Y0016072D01*
G01X0028500Y0015954D01*
G01X0028664Y0015850D01*
G01X0028836Y0015760D01*
G01X0029015Y0015686D01*
G01X0029200Y0015628D01*
G01X0029389Y0015586D01*
G01X0029581Y0015561D01*
G01X0029775Y0015552D01*
G01X0029969Y0015561D01*
G01X0030161Y0015586D01*
G01X0030350Y0015628D01*
G01X0030535Y0015686D01*
G01X0030714Y0015760D01*
G01X0030886Y0015850D01*
G01X0031050Y0015954D01*
G01X0031204Y0016072D01*
G01X0031347Y0016203D01*
G01X0031478Y0016346D01*
G01X0031596Y0016500D01*
G01X0031700Y0016664D01*
G01X0031790Y0016836D01*
G01X0031864Y0017015D01*
G01X0031922Y0017200D01*
G01X0031964Y0017389D01*
G01X0031989Y0017581D01*
G01X0031998Y0017775D01*
G37*
G36*
G01X0031998Y0017775D02*
G37*
G01X0023775Y0017775D02*
G01X0023775Y0017775D03*
G36*
G01X0025998Y0017775D02*
G01X0025989Y0017969D01*
G01X0025964Y0018161D01*
G01X0025922Y0018350D01*
G01X0025864Y0018535D01*
G01X0025790Y0018714D01*
G01X0025700Y0018886D01*
G01X0025596Y0019050D01*
G01X0025478Y0019204D01*
G01X0025347Y0019347D01*
G01X0025204Y0019478D01*
G01X0025050Y0019596D01*
G01X0024886Y0019700D01*
G01X0024714Y0019790D01*
G01X0024535Y0019864D01*
G01X0024350Y0019922D01*
G01X0024161Y0019964D01*
G01X0023969Y0019989D01*
G01X0023775Y0019998D01*
G01X0023581Y0019989D01*
G01X0023389Y0019964D01*
G01X0023200Y0019922D01*
G01X0023015Y0019864D01*
G01X0022836Y0019790D01*
G01X0022664Y0019700D01*
G01X0022500Y0019596D01*
G01X0022346Y0019478D01*
G01X0022203Y0019347D01*
G01X0022072Y0019204D01*
G01X0021954Y0019050D01*
G01X0021850Y0018886D01*
G01X0021760Y0018714D01*
G01X0021686Y0018535D01*
G01X0021628Y0018350D01*
G01X0021586Y0018161D01*
G01X0021561Y0017969D01*
G01X0021552Y0017775D01*
G01X0021561Y0017581D01*
G01X0021586Y0017389D01*
G01X0021628Y0017200D01*
G01X0021686Y0017015D01*
G01X0021760Y0016836D01*
G01X0021850Y0016664D01*
G01X0021954Y0016500D01*
G01X0022072Y0016346D01*
G01X0022203Y0016203D01*
G01X0022346Y0016072D01*
G01X0022500Y0015954D01*
G01X0022664Y0015850D01*
G01X0022836Y0015760D01*
G01X0023015Y0015686D01*
G01X0023200Y0015628D01*
G01X0023389Y0015586D01*
G01X0023581Y0015561D01*
G01X0023775Y0015552D01*
G01X0023969Y0015561D01*
G01X0024161Y0015586D01*
G01X0024350Y0015628D01*
G01X0024535Y0015686D01*
G01X0024714Y0015760D01*
G01X0024886Y0015850D01*
G01X0025050Y0015954D01*
G01X0025204Y0016072D01*
G01X0025347Y0016203D01*
G01X0025478Y0016346D01*
G01X0025596Y0016500D01*
G01X0025700Y0016664D01*
G01X0025790Y0016836D01*
G01X0025864Y0017015D01*
G01X0025922Y0017200D01*
G01X0025964Y0017389D01*
G01X0025989Y0017581D01*
G01X0025998Y0017775D01*
G37*
G36*
G01X0025998Y0017775D02*
G37*
G01X0017775Y0017775D02*
G01X0017775Y0017775D03*
G36*
G01X0019998Y0017775D02*
G01X0019989Y0017969D01*
G01X0019964Y0018161D01*
G01X0019922Y0018350D01*
G01X0019864Y0018535D01*
G01X0019790Y0018714D01*
G01X0019700Y0018886D01*
G01X0019596Y0019050D01*
G01X0019478Y0019204D01*
G01X0019347Y0019347D01*
G01X0019204Y0019478D01*
G01X0019050Y0019596D01*
G01X0018886Y0019700D01*
G01X0018714Y0019790D01*
G01X0018535Y0019864D01*
G01X0018350Y0019922D01*
G01X0018161Y0019964D01*
G01X0017969Y0019989D01*
G01X0017775Y0019998D01*
G01X0017581Y0019989D01*
G01X0017389Y0019964D01*
G01X0017200Y0019922D01*
G01X0017015Y0019864D01*
G01X0016836Y0019790D01*
G01X0016664Y0019700D01*
G01X0016500Y0019596D01*
G01X0016346Y0019478D01*
G01X0016203Y0019347D01*
G01X0016072Y0019204D01*
G01X0015954Y0019050D01*
G01X0015850Y0018886D01*
G01X0015760Y0018714D01*
G01X0015686Y0018535D01*
G01X0015628Y0018350D01*
G01X0015586Y0018161D01*
G01X0015561Y0017969D01*
G01X0015552Y0017775D01*
G01X0015561Y0017581D01*
G01X0015586Y0017389D01*
G01X0015628Y0017200D01*
G01X0015686Y0017015D01*
G01X0015760Y0016836D01*
G01X0015850Y0016664D01*
G01X0015954Y0016500D01*
G01X0016072Y0016346D01*
G01X0016203Y0016203D01*
G01X0016346Y0016072D01*
G01X0016500Y0015954D01*
G01X0016664Y0015850D01*
G01X0016836Y0015760D01*
G01X0017015Y0015686D01*
G01X0017200Y0015628D01*
G01X0017389Y0015586D01*
G01X0017581Y0015561D01*
G01X0017775Y0015552D01*
G01X0017969Y0015561D01*
G01X0018161Y0015586D01*
G01X0018350Y0015628D01*
G01X0018535Y0015686D01*
G01X0018714Y0015760D01*
G01X0018886Y0015850D01*
G01X0019050Y0015954D01*
G01X0019204Y0016072D01*
G01X0019347Y0016203D01*
G01X0019478Y0016346D01*
G01X0019596Y0016500D01*
G01X0019700Y0016664D01*
G01X0019790Y0016836D01*
G01X0019864Y0017015D01*
G01X0019922Y0017200D01*
G01X0019964Y0017389D01*
G01X0019989Y0017581D01*
G01X0019998Y0017775D01*
G37*
G36*
G01X0019998Y0017775D02*
G37*
G01X0029550Y0009850D02*
G01X0029550Y0009850D03*
G01X0029550Y0000000D02*
G01X0029550Y0000000D03*
%LPC*%
G54D11*
G01X0029550Y0000000D03*
%LPD*%
G54D12*
G01X0029550Y0000000D03*
G01X0019700Y0009850D02*
G54D10*
G01X0019700Y0009850D03*
G01X0019700Y0000000D02*
G01X0019700Y0000000D03*
%LPC*%
G54D11*
G01X0019700Y0000000D03*
%LPD*%
G54D12*
G01X0019700Y0000000D03*
G01X0009850Y0029550D02*
G54D10*
G01X0009850Y0029550D03*
G01X0009850Y0019700D02*
G01X0009850Y0019700D03*
G01X0009850Y0009850D02*
G01X0009850Y0009850D03*
%LPC*%
G54D11*
G01X0009850Y0009850D03*
%LPD*%
G54D12*
G01X0009850Y0009850D03*
G01X0009850Y0000000D02*
G54D10*
G01X0009850Y0000000D03*
%LPC*%
G54D11*
G01X0009850Y0000000D03*
%LPD*%
G54D12*
G01X0009850Y0000000D03*
G01X0000000Y0029550D02*
G54D10*
G01X0000000Y0029550D03*
G01X0000000Y0019700D02*
G01X0000000Y0019700D03*
G01X0000000Y0009850D02*
G01X0000000Y0009850D03*
%LPC*%
G54D11*
G01X0000000Y0009850D03*
%LPD*%
G54D12*
G01X0000000Y0009850D03*
M02*
