G04 This is an RS-274x file exported by *
G04 gerbv version 2.6.0 *
G04 More information is available about gerbv at *
G04 http://gerbv.gpleda.org/ *
G04 --End of header info--*
%MOIN*%
%FSLAX34Y34*%
%IPPOS*%
G04 --Define apertures--*
%ADD10C,0.1969*%
%ADD11C,0.1102*%
%ADD12C,0.0677*%
G04 --Start main section--*
G54D10*
G01X0000000Y0000000D03*
%LPC*%
G54D11*
G01X0000000Y0000000D03*
%LPD*%
G54D12*
G01X0000000Y0000000D03*
G01X0023775Y0029775D02*
G54D10*
G01X0023775Y0029775D03*
G01X0017775Y0029775D02*
G01X0017775Y0029775D03*
G01X0029775Y0023775D02*
G01X0029775Y0023775D03*
G01X0023775Y0023775D02*
G01X0023775Y0023775D03*
G01X0017775Y0023775D02*
G01X0017775Y0023775D03*
G01X0029775Y0017775D02*
G01X0029775Y0017775D03*
G01X0023775Y0017775D02*
G01X0023775Y0017775D03*
G01X0017775Y0017775D02*
G01X0017775Y0017775D03*
G01X0029550Y0009850D02*
G01X0029550Y0009850D03*
G01X0029550Y0000000D02*
G01X0029550Y0000000D03*
%LPC*%
G54D11*
G01X0029550Y0000000D03*
%LPD*%
G54D12*
G01X0029550Y0000000D03*
G01X0019700Y0009850D02*
G54D10*
G01X0019700Y0009850D03*
G01X0019700Y0000000D02*
G01X0019700Y0000000D03*
%LPC*%
G54D11*
G01X0019700Y0000000D03*
%LPD*%
G54D12*
G01X0019700Y0000000D03*
G01X0009850Y0029550D02*
G54D10*
G01X0009850Y0029550D03*
G01X0009850Y0019700D02*
G01X0009850Y0019700D03*
G01X0009850Y0009850D02*
G01X0009850Y0009850D03*
%LPC*%
G54D11*
G01X0009850Y0009850D03*
%LPD*%
G54D12*
G01X0009850Y0009850D03*
G01X0009850Y0000000D02*
G54D10*
G01X0009850Y0000000D03*
%LPC*%
G54D11*
G01X0009850Y0000000D03*
%LPD*%
G54D12*
G01X0009850Y0000000D03*
G01X0000000Y0029550D02*
G54D10*
G01X0000000Y0029550D03*
G01X0000000Y0019700D02*
G01X0000000Y0019700D03*
G01X0000000Y0009850D02*
G01X0000000Y0009850D03*
%LPC*%
G54D11*
G01X0000000Y0009850D03*
%LPD*%
G54D12*
G01X0000000Y0009850D03*
M02*
