G04 This is an RS-274x file exported by *
G04 gerbv version 2.6.0 *
G04 More information is available about gerbv at *
G04 http://gerbv.gpleda.org/ *
G04 --End of header info--*
%MOIN*%
%FSLAX34Y34*%
%IPPOS*%
G04 --Define apertures--*
%ADD10C,0.1332*%
%ADD11C,0.0394*%
%ADD12C,0.1890*%
%ADD13C,0.1264*%
G04 --Start main section--*
G36*
G01X0000417Y0000000D02*
G01X0000416Y0000036D01*
G01X0000411Y0000072D01*
G01X0000403Y0000108D01*
G01X0000392Y0000143D01*
G01X0000378Y0000176D01*
G01X0000361Y0000209D01*
G01X0000342Y0000239D01*
G01X0000320Y0000268D01*
G01X0000295Y0000295D01*
G01X0000268Y0000320D01*
G01X0000239Y0000342D01*
G01X0000209Y0000361D01*
G01X0000176Y0000378D01*
G01X0000143Y0000392D01*
G01X0000108Y0000403D01*
G01X0000072Y0000411D01*
G01X0000036Y0000416D01*
G01X0000000Y0000417D01*
G01X-000036Y0000416D01*
G01X-000072Y0000411D01*
G01X-000108Y0000403D01*
G01X-000143Y0000392D01*
G01X-000176Y0000378D01*
G01X-000209Y0000361D01*
G01X-000239Y0000342D01*
G01X-000268Y0000320D01*
G01X-000295Y0000295D01*
G01X-000320Y0000268D01*
G01X-000342Y0000239D01*
G01X-000361Y0000209D01*
G01X-000378Y0000176D01*
G01X-000392Y0000143D01*
G01X-000403Y0000108D01*
G01X-000411Y0000072D01*
G01X-000416Y0000036D01*
G01X-000417Y0000000D01*
G01X-000416Y-000036D01*
G01X-000411Y-000072D01*
G01X-000403Y-000108D01*
G01X-000392Y-000143D01*
G01X-000378Y-000176D01*
G01X-000361Y-000209D01*
G01X-000342Y-000239D01*
G01X-000320Y-000268D01*
G01X-000295Y-000295D01*
G01X-000268Y-000320D01*
G01X-000239Y-000342D01*
G01X-000209Y-000361D01*
G01X-000176Y-000378D01*
G01X-000143Y-000392D01*
G01X-000108Y-000403D01*
G01X-000072Y-000411D01*
G01X-000036Y-000416D01*
G01X0000000Y-000417D01*
G01X0000036Y-000416D01*
G01X0000072Y-000411D01*
G01X0000108Y-000403D01*
G01X0000143Y-000392D01*
G01X0000176Y-000378D01*
G01X0000209Y-000361D01*
G01X0000239Y-000342D01*
G01X0000268Y-000320D01*
G01X0000295Y-000295D01*
G01X0000320Y-000268D01*
G01X0000342Y-000239D01*
G01X0000361Y-000209D01*
G01X0000378Y-000176D01*
G01X0000392Y-000143D01*
G01X0000403Y-000108D01*
G01X0000411Y-000072D01*
G01X0000416Y-000036D01*
G01X0000417Y0000000D01*
G37*
G36*
G01X0000417Y0000000D02*
G37*
G54D10*
G01X0001682Y0000000D02*
G01X0001676Y0000147D01*
G01X0001676Y0000147D02*
G01X0001657Y0000292D01*
G01X0001657Y0000292D02*
G01X0001625Y0000435D01*
G01X0001625Y0000435D02*
G01X0001581Y0000575D01*
G01X0001581Y0000575D02*
G01X0001525Y0000711D01*
G01X0001525Y0000711D02*
G01X0001457Y0000841D01*
G01X0001457Y0000841D02*
G01X0001378Y0000965D01*
G01X0001378Y0000965D02*
G01X0001289Y0001081D01*
G01X0001289Y0001081D02*
G01X0001190Y0001190D01*
G01X0001190Y0001190D02*
G01X0001081Y0001289D01*
G01X0001081Y0001289D02*
G01X0000965Y0001378D01*
G01X0000965Y0001378D02*
G01X0000841Y0001457D01*
G01X0000841Y0001457D02*
G01X0000711Y0001525D01*
G01X0000711Y0001525D02*
G01X0000575Y0001581D01*
G01X0000575Y0001581D02*
G01X0000435Y0001625D01*
G01X0000435Y0001625D02*
G01X0000292Y0001657D01*
G01X0000292Y0001657D02*
G01X0000147Y0001676D01*
G01X0000147Y0001676D02*
G01X0000000Y0001682D01*
G01X0000000Y0001682D02*
G01X-000147Y0001676D01*
G01X-000147Y0001676D02*
G01X-000292Y0001657D01*
G01X-000292Y0001657D02*
G01X-000435Y0001625D01*
G01X-000435Y0001625D02*
G01X-000575Y0001581D01*
G01X-000575Y0001581D02*
G01X-000711Y0001525D01*
G01X-000711Y0001525D02*
G01X-000841Y0001457D01*
G01X-000841Y0001457D02*
G01X-000965Y0001378D01*
G01X-000965Y0001378D02*
G01X-001081Y0001289D01*
G01X-001081Y0001289D02*
G01X-001190Y0001190D01*
G01X-001190Y0001190D02*
G01X-001289Y0001081D01*
G01X-001289Y0001081D02*
G01X-001378Y0000965D01*
G01X-001378Y0000965D02*
G01X-001457Y0000841D01*
G01X-001457Y0000841D02*
G01X-001525Y0000711D01*
G01X-001525Y0000711D02*
G01X-001581Y0000575D01*
G01X-001581Y0000575D02*
G01X-001625Y0000435D01*
G01X-001625Y0000435D02*
G01X-001657Y0000292D01*
G01X-001657Y0000292D02*
G01X-001676Y0000147D01*
G01X-001676Y0000147D02*
G01X-001682Y0000000D01*
G01X-001682Y0000000D02*
G01X-001676Y-000147D01*
G01X-001676Y-000147D02*
G01X-001657Y-000292D01*
G01X-001657Y-000292D02*
G01X-001625Y-000435D01*
G01X-001625Y-000435D02*
G01X-001581Y-000575D01*
G01X-001581Y-000575D02*
G01X-001525Y-000711D01*
G01X-001525Y-000711D02*
G01X-001457Y-000841D01*
G01X-001457Y-000841D02*
G01X-001378Y-000965D01*
G01X-001378Y-000965D02*
G01X-001289Y-001081D01*
G01X-001289Y-001081D02*
G01X-001190Y-001190D01*
G01X-001190Y-001190D02*
G01X-001081Y-001289D01*
G01X-001081Y-001289D02*
G01X-000965Y-001378D01*
G01X-000965Y-001378D02*
G01X-000841Y-001457D01*
G01X-000841Y-001457D02*
G01X-000711Y-001525D01*
G01X-000711Y-001525D02*
G01X-000575Y-001581D01*
G01X-000575Y-001581D02*
G01X-000435Y-001625D01*
G01X-000435Y-001625D02*
G01X-000292Y-001657D01*
G01X-000292Y-001657D02*
G01X-000147Y-001676D01*
G01X-000147Y-001676D02*
G01X0000000Y-001682D01*
G01X0000000Y-001682D02*
G01X0000147Y-001676D01*
G01X0000147Y-001676D02*
G01X0000292Y-001657D01*
G01X0000292Y-001657D02*
G01X0000435Y-001625D01*
G01X0000435Y-001625D02*
G01X0000575Y-001581D01*
G01X0000575Y-001581D02*
G01X0000711Y-001525D01*
G01X0000711Y-001525D02*
G01X0000841Y-001457D01*
G01X0000841Y-001457D02*
G01X0000965Y-001378D01*
G01X0000965Y-001378D02*
G01X0001081Y-001289D01*
G01X0001081Y-001289D02*
G01X0001190Y-001190D01*
G01X0001190Y-001190D02*
G01X0001289Y-001081D01*
G01X0001289Y-001081D02*
G01X0001378Y-000965D01*
G01X0001378Y-000965D02*
G01X0001457Y-000841D01*
G01X0001457Y-000841D02*
G01X0001525Y-000711D01*
G01X0001525Y-000711D02*
G01X0001581Y-000575D01*
G01X0001581Y-000575D02*
G01X0001625Y-000435D01*
G01X0001625Y-000435D02*
G01X0001657Y-000292D01*
G01X0001657Y-000292D02*
G01X0001676Y-000147D01*
G01X0001676Y-000147D02*
G01X0001682Y0000000D01*
G54D11*
G01X0000875Y0003932D02*
G01X0000516Y0003995D01*
G01X0000516Y0003995D02*
G01X0000153Y0004025D01*
G01X0000153Y0004025D02*
G01X-000211Y0004023D01*
G01X-000211Y0004023D02*
G01X-000574Y0003987D01*
G01X-000574Y0003987D02*
G01X-000932Y0003919D01*
G01X-000932Y0003919D02*
G01X-001282Y0003819D01*
G01X-001282Y0003819D02*
G01X-001622Y0003687D01*
G01X-001622Y0003687D02*
G01X-001948Y0003526D01*
G01X-001948Y0003526D02*
G01X-002259Y0003335D01*
G01X-002259Y0003335D02*
G01X-002551Y0003117D01*
G01X-002551Y0003117D02*
G01X-002822Y0002874D01*
G01X-002822Y0002874D02*
G01X-003071Y0002607D01*
G01X-003071Y0002607D02*
G01X-003294Y0002319D01*
G01X0000757Y0003399D02*
G01X0000456Y0003452D01*
G01X0000456Y0003452D02*
G01X0000152Y0003479D01*
G01X0000152Y0003479D02*
G01X-000152Y0003479D01*
G01X-000152Y0003479D02*
G01X-000456Y0003452D01*
G01X-000456Y0003452D02*
G01X-000757Y0003399D01*
G01X0000875Y0003932D02*
G01X0000757Y0003399D01*
G01X-000510Y0002292D02*
G01X-000757Y0003399D01*
G01X0000000Y0000000D02*
G01X-000880Y0000508D01*
G01X-003843Y-001208D02*
G01X-003718Y-001550D01*
G01X-003718Y-001550D02*
G01X-003563Y-001880D01*
G01X-003563Y-001880D02*
G01X-003378Y-002194D01*
G01X-003378Y-002194D02*
G01X-003166Y-002490D01*
G01X-003166Y-002490D02*
G01X-002928Y-002766D01*
G01X-002928Y-002766D02*
G01X-002666Y-003020D01*
G01X-002666Y-003020D02*
G01X-002382Y-003248D01*
G01X-002382Y-003248D02*
G01X-002079Y-003450D01*
G01X-002079Y-003450D02*
G01X-001759Y-003624D01*
G01X-001759Y-003624D02*
G01X-001424Y-003768D01*
G01X-001424Y-003768D02*
G01X-001078Y-003881D01*
G01X-001078Y-003881D02*
G01X-000723Y-003963D01*
G01X-000723Y-003963D02*
G01X-000361Y-004012D01*
G01X-003322Y-001044D02*
G01X-003218Y-001331D01*
G01X-003218Y-001331D02*
G01X-003089Y-001607D01*
G01X-003089Y-001607D02*
G01X-002936Y-001871D01*
G01X-002936Y-001871D02*
G01X-002761Y-002121D01*
G01X-002761Y-002121D02*
G01X-002565Y-002355D01*
G01X-003843Y-001208D02*
G01X-003322Y-001044D01*
G01X-001730Y-001588D02*
G01X-002565Y-002355D01*
G01X0000000Y0000000D02*
G01X0000000Y-001016D01*
G01X0002967Y-002724D02*
G01X0003201Y-002445D01*
G01X0003201Y-002445D02*
G01X0003409Y-002145D01*
G01X0003409Y-002145D02*
G01X0003589Y-001828D01*
G01X0003589Y-001828D02*
G01X0003740Y-001497D01*
G01X0003740Y-001497D02*
G01X0003860Y-001153D01*
G01X0003860Y-001153D02*
G01X0003948Y-000799D01*
G01X0003948Y-000799D02*
G01X0004004Y-000439D01*
G01X0004004Y-000439D02*
G01X0004027Y-000075D01*
G01X0004027Y-000075D02*
G01X0004018Y0000289D01*
G01X0004018Y0000289D02*
G01X0003975Y0000651D01*
G01X0003975Y0000651D02*
G01X0003900Y0001007D01*
G01X0003900Y0001007D02*
G01X0003793Y0001356D01*
G01X0003793Y0001356D02*
G01X0003655Y0001693D01*
G01X0002565Y-002355D02*
G01X0002761Y-002121D01*
G01X0002761Y-002121D02*
G01X0002936Y-001871D01*
G01X0002936Y-001871D02*
G01X0003089Y-001607D01*
G01X0003089Y-001607D02*
G01X0003218Y-001331D01*
G01X0003218Y-001331D02*
G01X0003322Y-001044D01*
G01X0002967Y-002724D02*
G01X0002565Y-002355D01*
G01X0002240Y-000704D02*
G01X0003322Y-001044D01*
G01X0000000Y0000000D02*
G01X0000880Y0000508D01*
G01X0023775Y0029775D02*
G54D12*
G01X0023775Y0029775D03*
G01X0017775Y0029775D02*
G01X0017775Y0029775D03*
G01X0029775Y0023775D02*
G01X0029775Y0023775D03*
G01X0023775Y0023775D02*
G01X0023775Y0023775D03*
G01X0017775Y0023775D02*
G01X0017775Y0023775D03*
G01X0029775Y0017775D02*
G01X0029775Y0017775D03*
G01X0023775Y0017775D02*
G01X0023775Y0017775D03*
G01X0017775Y0017775D02*
G01X0017775Y0017775D03*
G01X0029550Y0009850D02*
G01X0029550Y0009850D03*
G54D13*
G01X0032051Y0009850D02*
G01X0032041Y0010068D01*
G01X0032041Y0010068D02*
G01X0032013Y0010284D01*
G01X0032013Y0010284D02*
G01X0031966Y0010497D01*
G01X0031966Y0010497D02*
G01X0031900Y0010705D01*
G01X0031900Y0010705D02*
G01X0031817Y0010907D01*
G01X0031817Y0010907D02*
G01X0031716Y0011100D01*
G01X0031716Y0011100D02*
G01X0031599Y0011284D01*
G01X0031599Y0011284D02*
G01X0031466Y0011458D01*
G01X0031466Y0011458D02*
G01X0031318Y0011618D01*
G01X0031318Y0011618D02*
G01X0031158Y0011766D01*
G01X0031158Y0011766D02*
G01X0030984Y0011899D01*
G01X0030984Y0011899D02*
G01X0030800Y0012016D01*
G01X0030800Y0012016D02*
G01X0030607Y0012117D01*
G01X0030607Y0012117D02*
G01X0030405Y0012200D01*
G01X0030405Y0012200D02*
G01X0030197Y0012266D01*
G01X0030197Y0012266D02*
G01X0029984Y0012313D01*
G01X0029984Y0012313D02*
G01X0029768Y0012341D01*
G01X0029768Y0012341D02*
G01X0029550Y0012351D01*
G01X0029550Y0012351D02*
G01X0029332Y0012341D01*
G01X0029332Y0012341D02*
G01X0029116Y0012313D01*
G01X0029116Y0012313D02*
G01X0028903Y0012266D01*
G01X0028903Y0012266D02*
G01X0028695Y0012200D01*
G01X0028695Y0012200D02*
G01X0028493Y0012117D01*
G01X0028493Y0012117D02*
G01X0028300Y0012016D01*
G01X0028300Y0012016D02*
G01X0028116Y0011899D01*
G01X0028116Y0011899D02*
G01X0027942Y0011766D01*
G01X0027942Y0011766D02*
G01X0027782Y0011618D01*
G01X0027782Y0011618D02*
G01X0027634Y0011458D01*
G01X0027634Y0011458D02*
G01X0027501Y0011284D01*
G01X0027501Y0011284D02*
G01X0027384Y0011100D01*
G01X0027384Y0011100D02*
G01X0027283Y0010907D01*
G01X0027283Y0010907D02*
G01X0027200Y0010705D01*
G01X0027200Y0010705D02*
G01X0027134Y0010497D01*
G01X0027134Y0010497D02*
G01X0027087Y0010284D01*
G01X0027087Y0010284D02*
G01X0027059Y0010068D01*
G01X0027059Y0010068D02*
G01X0027049Y0009850D01*
G01X0027049Y0009850D02*
G01X0027059Y0009632D01*
G01X0027059Y0009632D02*
G01X0027087Y0009416D01*
G01X0027087Y0009416D02*
G01X0027134Y0009203D01*
G01X0027134Y0009203D02*
G01X0027200Y0008995D01*
G01X0027200Y0008995D02*
G01X0027283Y0008793D01*
G01X0027283Y0008793D02*
G01X0027384Y0008600D01*
G01X0027384Y0008600D02*
G01X0027501Y0008416D01*
G01X0027501Y0008416D02*
G01X0027634Y0008242D01*
G01X0027634Y0008242D02*
G01X0027782Y0008082D01*
G01X0027782Y0008082D02*
G01X0027942Y0007934D01*
G01X0027942Y0007934D02*
G01X0028116Y0007801D01*
G01X0028116Y0007801D02*
G01X0028300Y0007684D01*
G01X0028300Y0007684D02*
G01X0028493Y0007583D01*
G01X0028493Y0007583D02*
G01X0028695Y0007500D01*
G01X0028695Y0007500D02*
G01X0028903Y0007434D01*
G01X0028903Y0007434D02*
G01X0029116Y0007387D01*
G01X0029116Y0007387D02*
G01X0029332Y0007359D01*
G01X0029332Y0007359D02*
G01X0029550Y0007349D01*
G01X0029550Y0007349D02*
G01X0029768Y0007359D01*
G01X0029768Y0007359D02*
G01X0029984Y0007387D01*
G01X0029984Y0007387D02*
G01X0030197Y0007434D01*
G01X0030197Y0007434D02*
G01X0030405Y0007500D01*
G01X0030405Y0007500D02*
G01X0030607Y0007583D01*
G01X0030607Y0007583D02*
G01X0030800Y0007684D01*
G01X0030800Y0007684D02*
G01X0030984Y0007801D01*
G01X0030984Y0007801D02*
G01X0031158Y0007934D01*
G01X0031158Y0007934D02*
G01X0031318Y0008082D01*
G01X0031318Y0008082D02*
G01X0031466Y0008242D01*
G01X0031466Y0008242D02*
G01X0031599Y0008416D01*
G01X0031599Y0008416D02*
G01X0031716Y0008600D01*
G01X0031716Y0008600D02*
G01X0031817Y0008793D01*
G01X0031817Y0008793D02*
G01X0031900Y0008995D01*
G01X0031900Y0008995D02*
G01X0031966Y0009203D01*
G01X0031966Y0009203D02*
G01X0032013Y0009416D01*
G01X0032013Y0009416D02*
G01X0032041Y0009632D01*
G01X0032041Y0009632D02*
G01X0032051Y0009850D01*
G54D11*
G01X0028675Y0013782D02*
G01X0029034Y0013845D01*
G01X0029034Y0013845D02*
G01X0029397Y0013875D01*
G01X0029397Y0013875D02*
G01X0029761Y0013873D01*
G01X0029761Y0013873D02*
G01X0030124Y0013837D01*
G01X0030124Y0013837D02*
G01X0030482Y0013769D01*
G01X0030482Y0013769D02*
G01X0030832Y0013669D01*
G01X0030832Y0013669D02*
G01X0031172Y0013537D01*
G01X0031172Y0013537D02*
G01X0031498Y0013376D01*
G01X0031498Y0013376D02*
G01X0031809Y0013185D01*
G01X0031809Y0013185D02*
G01X0032101Y0012967D01*
G01X0032101Y0012967D02*
G01X0032372Y0012724D01*
G01X0032372Y0012724D02*
G01X0032621Y0012457D01*
G01X0032621Y0012457D02*
G01X0032844Y0012169D01*
G01X0028793Y0013249D02*
G01X0029094Y0013302D01*
G01X0029094Y0013302D02*
G01X0029398Y0013329D01*
G01X0029398Y0013329D02*
G01X0029702Y0013329D01*
G01X0029702Y0013329D02*
G01X0030006Y0013302D01*
G01X0030006Y0013302D02*
G01X0030307Y0013249D01*
G01X0028675Y0013782D02*
G01X0028793Y0013249D01*
G01X0030231Y0012908D02*
G01X0030307Y0013249D01*
G01X0029550Y0009850D02*
G01X0027932Y0010784D01*
G01X0026583Y0007126D02*
G01X0026349Y0007405D01*
G01X0026349Y0007405D02*
G01X0026141Y0007705D01*
G01X0026141Y0007705D02*
G01X0025961Y0008022D01*
G01X0025961Y0008022D02*
G01X0025810Y0008353D01*
G01X0025810Y0008353D02*
G01X0025690Y0008697D01*
G01X0025690Y0008697D02*
G01X0025602Y0009051D01*
G01X0025602Y0009051D02*
G01X0025546Y0009411D01*
G01X0025546Y0009411D02*
G01X0025523Y0009775D01*
G01X0025523Y0009775D02*
G01X0025532Y0010139D01*
G01X0025532Y0010139D02*
G01X0025575Y0010501D01*
G01X0025575Y0010501D02*
G01X0025650Y0010857D01*
G01X0025650Y0010857D02*
G01X0025757Y0011206D01*
G01X0025757Y0011206D02*
G01X0025895Y0011543D01*
G01X0026985Y0007495D02*
G01X0026789Y0007729D01*
G01X0026789Y0007729D02*
G01X0026614Y0007979D01*
G01X0026614Y0007979D02*
G01X0026461Y0008243D01*
G01X0026461Y0008243D02*
G01X0026332Y0008519D01*
G01X0026332Y0008519D02*
G01X0026228Y0008806D01*
G01X0026583Y0007126D02*
G01X0026985Y0007495D01*
G01X0026561Y0008911D02*
G01X0026228Y0008806D01*
G01X0029550Y0009850D02*
G01X0029550Y0007981D01*
G01X0033393Y0008642D02*
G01X0033268Y0008300D01*
G01X0033268Y0008300D02*
G01X0033113Y0007970D01*
G01X0033113Y0007970D02*
G01X0032928Y0007656D01*
G01X0032928Y0007656D02*
G01X0032716Y0007360D01*
G01X0032716Y0007360D02*
G01X0032478Y0007084D01*
G01X0032478Y0007084D02*
G01X0032216Y0006830D01*
G01X0032216Y0006830D02*
G01X0031932Y0006602D01*
G01X0031932Y0006602D02*
G01X0031629Y0006400D01*
G01X0031629Y0006400D02*
G01X0031309Y0006226D01*
G01X0031309Y0006226D02*
G01X0030974Y0006082D01*
G01X0030974Y0006082D02*
G01X0030628Y0005969D01*
G01X0030628Y0005969D02*
G01X0030273Y0005887D01*
G01X0030273Y0005887D02*
G01X0029911Y0005838D01*
G01X0032872Y0008806D02*
G01X0032768Y0008519D01*
G01X0032768Y0008519D02*
G01X0032639Y0008243D01*
G01X0032639Y0008243D02*
G01X0032486Y0007979D01*
G01X0032486Y0007979D02*
G01X0032311Y0007729D01*
G01X0032311Y0007729D02*
G01X0032115Y0007495D01*
G01X0033393Y0008642D02*
G01X0032872Y0008806D01*
G01X0031858Y0007731D02*
G01X0032115Y0007495D01*
G01X0029550Y0009850D02*
G01X0031168Y0010784D01*
G01X0029550Y0000000D02*
G36*
G01X0029967Y0000000D02*
G01X0029966Y0000036D01*
G01X0029961Y0000072D01*
G01X0029953Y0000108D01*
G01X0029942Y0000143D01*
G01X0029928Y0000176D01*
G01X0029911Y0000209D01*
G01X0029892Y0000239D01*
G01X0029870Y0000268D01*
G01X0029845Y0000295D01*
G01X0029818Y0000320D01*
G01X0029789Y0000342D01*
G01X0029759Y0000361D01*
G01X0029726Y0000378D01*
G01X0029693Y0000392D01*
G01X0029658Y0000403D01*
G01X0029622Y0000411D01*
G01X0029586Y0000416D01*
G01X0029550Y0000417D01*
G01X0029514Y0000416D01*
G01X0029478Y0000411D01*
G01X0029442Y0000403D01*
G01X0029407Y0000392D01*
G01X0029374Y0000378D01*
G01X0029341Y0000361D01*
G01X0029311Y0000342D01*
G01X0029282Y0000320D01*
G01X0029255Y0000295D01*
G01X0029230Y0000268D01*
G01X0029208Y0000239D01*
G01X0029189Y0000209D01*
G01X0029172Y0000176D01*
G01X0029158Y0000143D01*
G01X0029147Y0000108D01*
G01X0029139Y0000072D01*
G01X0029134Y0000036D01*
G01X0029133Y0000000D01*
G01X0029134Y-000036D01*
G01X0029139Y-000072D01*
G01X0029147Y-000108D01*
G01X0029158Y-000143D01*
G01X0029172Y-000176D01*
G01X0029189Y-000209D01*
G01X0029208Y-000239D01*
G01X0029230Y-000268D01*
G01X0029255Y-000295D01*
G01X0029282Y-000320D01*
G01X0029311Y-000342D01*
G01X0029341Y-000361D01*
G01X0029374Y-000378D01*
G01X0029407Y-000392D01*
G01X0029442Y-000403D01*
G01X0029478Y-000411D01*
G01X0029514Y-000416D01*
G01X0029550Y-000417D01*
G01X0029586Y-000416D01*
G01X0029622Y-000411D01*
G01X0029658Y-000403D01*
G01X0029693Y-000392D01*
G01X0029726Y-000378D01*
G01X0029759Y-000361D01*
G01X0029789Y-000342D01*
G01X0029818Y-000320D01*
G01X0029845Y-000295D01*
G01X0029870Y-000268D01*
G01X0029892Y-000239D01*
G01X0029911Y-000209D01*
G01X0029928Y-000176D01*
G01X0029942Y-000143D01*
G01X0029953Y-000108D01*
G01X0029961Y-000072D01*
G01X0029966Y-000036D01*
G01X0029967Y0000000D01*
G37*
G36*
G01X0029967Y0000000D02*
G37*
G54D10*
G01X0031232Y0000000D02*
G01X0031226Y0000147D01*
G01X0031226Y0000147D02*
G01X0031207Y0000292D01*
G01X0031207Y0000292D02*
G01X0031175Y0000435D01*
G01X0031175Y0000435D02*
G01X0031131Y0000575D01*
G01X0031131Y0000575D02*
G01X0031075Y0000711D01*
G01X0031075Y0000711D02*
G01X0031007Y0000841D01*
G01X0031007Y0000841D02*
G01X0030928Y0000965D01*
G01X0030928Y0000965D02*
G01X0030839Y0001081D01*
G01X0030839Y0001081D02*
G01X0030740Y0001190D01*
G01X0030740Y0001190D02*
G01X0030631Y0001289D01*
G01X0030631Y0001289D02*
G01X0030515Y0001378D01*
G01X0030515Y0001378D02*
G01X0030391Y0001457D01*
G01X0030391Y0001457D02*
G01X0030261Y0001525D01*
G01X0030261Y0001525D02*
G01X0030125Y0001581D01*
G01X0030125Y0001581D02*
G01X0029985Y0001625D01*
G01X0029985Y0001625D02*
G01X0029842Y0001657D01*
G01X0029842Y0001657D02*
G01X0029697Y0001676D01*
G01X0029697Y0001676D02*
G01X0029550Y0001682D01*
G01X0029550Y0001682D02*
G01X0029403Y0001676D01*
G01X0029403Y0001676D02*
G01X0029258Y0001657D01*
G01X0029258Y0001657D02*
G01X0029115Y0001625D01*
G01X0029115Y0001625D02*
G01X0028975Y0001581D01*
G01X0028975Y0001581D02*
G01X0028839Y0001525D01*
G01X0028839Y0001525D02*
G01X0028709Y0001457D01*
G01X0028709Y0001457D02*
G01X0028585Y0001378D01*
G01X0028585Y0001378D02*
G01X0028469Y0001289D01*
G01X0028469Y0001289D02*
G01X0028360Y0001190D01*
G01X0028360Y0001190D02*
G01X0028261Y0001081D01*
G01X0028261Y0001081D02*
G01X0028172Y0000965D01*
G01X0028172Y0000965D02*
G01X0028093Y0000841D01*
G01X0028093Y0000841D02*
G01X0028025Y0000711D01*
G01X0028025Y0000711D02*
G01X0027969Y0000575D01*
G01X0027969Y0000575D02*
G01X0027925Y0000435D01*
G01X0027925Y0000435D02*
G01X0027893Y0000292D01*
G01X0027893Y0000292D02*
G01X0027874Y0000147D01*
G01X0027874Y0000147D02*
G01X0027868Y0000000D01*
G01X0027868Y0000000D02*
G01X0027874Y-000147D01*
G01X0027874Y-000147D02*
G01X0027893Y-000292D01*
G01X0027893Y-000292D02*
G01X0027925Y-000435D01*
G01X0027925Y-000435D02*
G01X0027969Y-000575D01*
G01X0027969Y-000575D02*
G01X0028025Y-000711D01*
G01X0028025Y-000711D02*
G01X0028093Y-000841D01*
G01X0028093Y-000841D02*
G01X0028172Y-000965D01*
G01X0028172Y-000965D02*
G01X0028261Y-001081D01*
G01X0028261Y-001081D02*
G01X0028360Y-001190D01*
G01X0028360Y-001190D02*
G01X0028469Y-001289D01*
G01X0028469Y-001289D02*
G01X0028585Y-001378D01*
G01X0028585Y-001378D02*
G01X0028709Y-001457D01*
G01X0028709Y-001457D02*
G01X0028839Y-001525D01*
G01X0028839Y-001525D02*
G01X0028975Y-001581D01*
G01X0028975Y-001581D02*
G01X0029115Y-001625D01*
G01X0029115Y-001625D02*
G01X0029258Y-001657D01*
G01X0029258Y-001657D02*
G01X0029403Y-001676D01*
G01X0029403Y-001676D02*
G01X0029550Y-001682D01*
G01X0029550Y-001682D02*
G01X0029697Y-001676D01*
G01X0029697Y-001676D02*
G01X0029842Y-001657D01*
G01X0029842Y-001657D02*
G01X0029985Y-001625D01*
G01X0029985Y-001625D02*
G01X0030125Y-001581D01*
G01X0030125Y-001581D02*
G01X0030261Y-001525D01*
G01X0030261Y-001525D02*
G01X0030391Y-001457D01*
G01X0030391Y-001457D02*
G01X0030515Y-001378D01*
G01X0030515Y-001378D02*
G01X0030631Y-001289D01*
G01X0030631Y-001289D02*
G01X0030740Y-001190D01*
G01X0030740Y-001190D02*
G01X0030839Y-001081D01*
G01X0030839Y-001081D02*
G01X0030928Y-000965D01*
G01X0030928Y-000965D02*
G01X0031007Y-000841D01*
G01X0031007Y-000841D02*
G01X0031075Y-000711D01*
G01X0031075Y-000711D02*
G01X0031131Y-000575D01*
G01X0031131Y-000575D02*
G01X0031175Y-000435D01*
G01X0031175Y-000435D02*
G01X0031207Y-000292D01*
G01X0031207Y-000292D02*
G01X0031226Y-000147D01*
G01X0031226Y-000147D02*
G01X0031232Y0000000D01*
G54D11*
G01X0030425Y0003932D02*
G01X0030066Y0003995D01*
G01X0030066Y0003995D02*
G01X0029703Y0004025D01*
G01X0029703Y0004025D02*
G01X0029339Y0004023D01*
G01X0029339Y0004023D02*
G01X0028976Y0003987D01*
G01X0028976Y0003987D02*
G01X0028618Y0003919D01*
G01X0028618Y0003919D02*
G01X0028268Y0003819D01*
G01X0028268Y0003819D02*
G01X0027928Y0003687D01*
G01X0027928Y0003687D02*
G01X0027602Y0003526D01*
G01X0027602Y0003526D02*
G01X0027291Y0003335D01*
G01X0027291Y0003335D02*
G01X0026999Y0003117D01*
G01X0026999Y0003117D02*
G01X0026728Y0002874D01*
G01X0026728Y0002874D02*
G01X0026479Y0002607D01*
G01X0026479Y0002607D02*
G01X0026256Y0002319D01*
G01X0030307Y0003399D02*
G01X0030006Y0003452D01*
G01X0030006Y0003452D02*
G01X0029702Y0003479D01*
G01X0029702Y0003479D02*
G01X0029398Y0003479D01*
G01X0029398Y0003479D02*
G01X0029094Y0003452D01*
G01X0029094Y0003452D02*
G01X0028793Y0003399D01*
G01X0030425Y0003932D02*
G01X0030307Y0003399D01*
G01X0029040Y0002292D02*
G01X0028793Y0003399D01*
G01X0029550Y0000000D02*
G01X0028670Y0000508D01*
G01X0025707Y-001208D02*
G01X0025832Y-001550D01*
G01X0025832Y-001550D02*
G01X0025987Y-001880D01*
G01X0025987Y-001880D02*
G01X0026172Y-002194D01*
G01X0026172Y-002194D02*
G01X0026384Y-002490D01*
G01X0026384Y-002490D02*
G01X0026622Y-002766D01*
G01X0026622Y-002766D02*
G01X0026884Y-003020D01*
G01X0026884Y-003020D02*
G01X0027168Y-003248D01*
G01X0027168Y-003248D02*
G01X0027471Y-003450D01*
G01X0027471Y-003450D02*
G01X0027791Y-003624D01*
G01X0027791Y-003624D02*
G01X0028126Y-003768D01*
G01X0028126Y-003768D02*
G01X0028472Y-003881D01*
G01X0028472Y-003881D02*
G01X0028827Y-003963D01*
G01X0028827Y-003963D02*
G01X0029189Y-004012D01*
G01X0026228Y-001044D02*
G01X0026332Y-001331D01*
G01X0026332Y-001331D02*
G01X0026461Y-001607D01*
G01X0026461Y-001607D02*
G01X0026614Y-001871D01*
G01X0026614Y-001871D02*
G01X0026789Y-002121D01*
G01X0026789Y-002121D02*
G01X0026985Y-002355D01*
G01X0025707Y-001208D02*
G01X0026228Y-001044D01*
G01X0027820Y-001588D02*
G01X0026985Y-002355D01*
G01X0029550Y0000000D02*
G01X0029550Y-001016D01*
G01X0032517Y-002724D02*
G01X0032751Y-002445D01*
G01X0032751Y-002445D02*
G01X0032959Y-002145D01*
G01X0032959Y-002145D02*
G01X0033139Y-001828D01*
G01X0033139Y-001828D02*
G01X0033290Y-001497D01*
G01X0033290Y-001497D02*
G01X0033410Y-001153D01*
G01X0033410Y-001153D02*
G01X0033498Y-000799D01*
G01X0033498Y-000799D02*
G01X0033554Y-000439D01*
G01X0033554Y-000439D02*
G01X0033577Y-000075D01*
G01X0033577Y-000075D02*
G01X0033568Y0000289D01*
G01X0033568Y0000289D02*
G01X0033525Y0000651D01*
G01X0033525Y0000651D02*
G01X0033450Y0001007D01*
G01X0033450Y0001007D02*
G01X0033343Y0001356D01*
G01X0033343Y0001356D02*
G01X0033205Y0001693D01*
G01X0032115Y-002355D02*
G01X0032311Y-002121D01*
G01X0032311Y-002121D02*
G01X0032486Y-001871D01*
G01X0032486Y-001871D02*
G01X0032639Y-001607D01*
G01X0032639Y-001607D02*
G01X0032768Y-001331D01*
G01X0032768Y-001331D02*
G01X0032872Y-001044D01*
G01X0032517Y-002724D02*
G01X0032115Y-002355D01*
G01X0031790Y-000704D02*
G01X0032872Y-001044D01*
G01X0029550Y0000000D02*
G01X0030430Y0000508D01*
G01X0019700Y0009850D02*
G54D12*
G01X0019700Y0009850D03*
G54D13*
G01X0022201Y0009850D02*
G01X0022191Y0010068D01*
G01X0022191Y0010068D02*
G01X0022163Y0010284D01*
G01X0022163Y0010284D02*
G01X0022116Y0010497D01*
G01X0022116Y0010497D02*
G01X0022050Y0010705D01*
G01X0022050Y0010705D02*
G01X0021967Y0010907D01*
G01X0021967Y0010907D02*
G01X0021866Y0011100D01*
G01X0021866Y0011100D02*
G01X0021749Y0011284D01*
G01X0021749Y0011284D02*
G01X0021616Y0011458D01*
G01X0021616Y0011458D02*
G01X0021468Y0011618D01*
G01X0021468Y0011618D02*
G01X0021308Y0011766D01*
G01X0021308Y0011766D02*
G01X0021134Y0011899D01*
G01X0021134Y0011899D02*
G01X0020950Y0012016D01*
G01X0020950Y0012016D02*
G01X0020757Y0012117D01*
G01X0020757Y0012117D02*
G01X0020555Y0012200D01*
G01X0020555Y0012200D02*
G01X0020347Y0012266D01*
G01X0020347Y0012266D02*
G01X0020134Y0012313D01*
G01X0020134Y0012313D02*
G01X0019918Y0012341D01*
G01X0019918Y0012341D02*
G01X0019700Y0012351D01*
G01X0019700Y0012351D02*
G01X0019482Y0012341D01*
G01X0019482Y0012341D02*
G01X0019266Y0012313D01*
G01X0019266Y0012313D02*
G01X0019053Y0012266D01*
G01X0019053Y0012266D02*
G01X0018845Y0012200D01*
G01X0018845Y0012200D02*
G01X0018643Y0012117D01*
G01X0018643Y0012117D02*
G01X0018450Y0012016D01*
G01X0018450Y0012016D02*
G01X0018266Y0011899D01*
G01X0018266Y0011899D02*
G01X0018092Y0011766D01*
G01X0018092Y0011766D02*
G01X0017932Y0011618D01*
G01X0017932Y0011618D02*
G01X0017784Y0011458D01*
G01X0017784Y0011458D02*
G01X0017651Y0011284D01*
G01X0017651Y0011284D02*
G01X0017534Y0011100D01*
G01X0017534Y0011100D02*
G01X0017433Y0010907D01*
G01X0017433Y0010907D02*
G01X0017350Y0010705D01*
G01X0017350Y0010705D02*
G01X0017284Y0010497D01*
G01X0017284Y0010497D02*
G01X0017237Y0010284D01*
G01X0017237Y0010284D02*
G01X0017209Y0010068D01*
G01X0017209Y0010068D02*
G01X0017199Y0009850D01*
G01X0017199Y0009850D02*
G01X0017209Y0009632D01*
G01X0017209Y0009632D02*
G01X0017237Y0009416D01*
G01X0017237Y0009416D02*
G01X0017284Y0009203D01*
G01X0017284Y0009203D02*
G01X0017350Y0008995D01*
G01X0017350Y0008995D02*
G01X0017433Y0008793D01*
G01X0017433Y0008793D02*
G01X0017534Y0008600D01*
G01X0017534Y0008600D02*
G01X0017651Y0008416D01*
G01X0017651Y0008416D02*
G01X0017784Y0008242D01*
G01X0017784Y0008242D02*
G01X0017932Y0008082D01*
G01X0017932Y0008082D02*
G01X0018092Y0007934D01*
G01X0018092Y0007934D02*
G01X0018266Y0007801D01*
G01X0018266Y0007801D02*
G01X0018450Y0007684D01*
G01X0018450Y0007684D02*
G01X0018643Y0007583D01*
G01X0018643Y0007583D02*
G01X0018845Y0007500D01*
G01X0018845Y0007500D02*
G01X0019053Y0007434D01*
G01X0019053Y0007434D02*
G01X0019266Y0007387D01*
G01X0019266Y0007387D02*
G01X0019482Y0007359D01*
G01X0019482Y0007359D02*
G01X0019700Y0007349D01*
G01X0019700Y0007349D02*
G01X0019918Y0007359D01*
G01X0019918Y0007359D02*
G01X0020134Y0007387D01*
G01X0020134Y0007387D02*
G01X0020347Y0007434D01*
G01X0020347Y0007434D02*
G01X0020555Y0007500D01*
G01X0020555Y0007500D02*
G01X0020757Y0007583D01*
G01X0020757Y0007583D02*
G01X0020950Y0007684D01*
G01X0020950Y0007684D02*
G01X0021134Y0007801D01*
G01X0021134Y0007801D02*
G01X0021308Y0007934D01*
G01X0021308Y0007934D02*
G01X0021468Y0008082D01*
G01X0021468Y0008082D02*
G01X0021616Y0008242D01*
G01X0021616Y0008242D02*
G01X0021749Y0008416D01*
G01X0021749Y0008416D02*
G01X0021866Y0008600D01*
G01X0021866Y0008600D02*
G01X0021967Y0008793D01*
G01X0021967Y0008793D02*
G01X0022050Y0008995D01*
G01X0022050Y0008995D02*
G01X0022116Y0009203D01*
G01X0022116Y0009203D02*
G01X0022163Y0009416D01*
G01X0022163Y0009416D02*
G01X0022191Y0009632D01*
G01X0022191Y0009632D02*
G01X0022201Y0009850D01*
G54D11*
G01X0018825Y0013782D02*
G01X0019184Y0013845D01*
G01X0019184Y0013845D02*
G01X0019547Y0013875D01*
G01X0019547Y0013875D02*
G01X0019911Y0013873D01*
G01X0019911Y0013873D02*
G01X0020274Y0013837D01*
G01X0020274Y0013837D02*
G01X0020632Y0013769D01*
G01X0020632Y0013769D02*
G01X0020982Y0013669D01*
G01X0020982Y0013669D02*
G01X0021322Y0013537D01*
G01X0021322Y0013537D02*
G01X0021648Y0013376D01*
G01X0021648Y0013376D02*
G01X0021959Y0013185D01*
G01X0021959Y0013185D02*
G01X0022251Y0012967D01*
G01X0022251Y0012967D02*
G01X0022522Y0012724D01*
G01X0022522Y0012724D02*
G01X0022771Y0012457D01*
G01X0022771Y0012457D02*
G01X0022994Y0012169D01*
G01X0018943Y0013249D02*
G01X0019244Y0013302D01*
G01X0019244Y0013302D02*
G01X0019548Y0013329D01*
G01X0019548Y0013329D02*
G01X0019852Y0013329D01*
G01X0019852Y0013329D02*
G01X0020156Y0013302D01*
G01X0020156Y0013302D02*
G01X0020457Y0013249D01*
G01X0018825Y0013782D02*
G01X0018943Y0013249D01*
G01X0020381Y0012908D02*
G01X0020457Y0013249D01*
G01X0019700Y0009850D02*
G01X0018082Y0010784D01*
G01X0016733Y0007126D02*
G01X0016499Y0007405D01*
G01X0016499Y0007405D02*
G01X0016291Y0007705D01*
G01X0016291Y0007705D02*
G01X0016111Y0008022D01*
G01X0016111Y0008022D02*
G01X0015960Y0008353D01*
G01X0015960Y0008353D02*
G01X0015840Y0008697D01*
G01X0015840Y0008697D02*
G01X0015752Y0009051D01*
G01X0015752Y0009051D02*
G01X0015696Y0009411D01*
G01X0015696Y0009411D02*
G01X0015673Y0009775D01*
G01X0015673Y0009775D02*
G01X0015682Y0010139D01*
G01X0015682Y0010139D02*
G01X0015725Y0010501D01*
G01X0015725Y0010501D02*
G01X0015800Y0010857D01*
G01X0015800Y0010857D02*
G01X0015907Y0011206D01*
G01X0015907Y0011206D02*
G01X0016045Y0011543D01*
G01X0017135Y0007495D02*
G01X0016939Y0007729D01*
G01X0016939Y0007729D02*
G01X0016764Y0007979D01*
G01X0016764Y0007979D02*
G01X0016611Y0008243D01*
G01X0016611Y0008243D02*
G01X0016482Y0008519D01*
G01X0016482Y0008519D02*
G01X0016378Y0008806D01*
G01X0016733Y0007126D02*
G01X0017135Y0007495D01*
G01X0016711Y0008911D02*
G01X0016378Y0008806D01*
G01X0019700Y0009850D02*
G01X0019700Y0007981D01*
G01X0023543Y0008642D02*
G01X0023418Y0008300D01*
G01X0023418Y0008300D02*
G01X0023263Y0007970D01*
G01X0023263Y0007970D02*
G01X0023078Y0007656D01*
G01X0023078Y0007656D02*
G01X0022866Y0007360D01*
G01X0022866Y0007360D02*
G01X0022628Y0007084D01*
G01X0022628Y0007084D02*
G01X0022366Y0006830D01*
G01X0022366Y0006830D02*
G01X0022082Y0006602D01*
G01X0022082Y0006602D02*
G01X0021779Y0006400D01*
G01X0021779Y0006400D02*
G01X0021459Y0006226D01*
G01X0021459Y0006226D02*
G01X0021124Y0006082D01*
G01X0021124Y0006082D02*
G01X0020778Y0005969D01*
G01X0020778Y0005969D02*
G01X0020423Y0005887D01*
G01X0020423Y0005887D02*
G01X0020061Y0005838D01*
G01X0023022Y0008806D02*
G01X0022918Y0008519D01*
G01X0022918Y0008519D02*
G01X0022789Y0008243D01*
G01X0022789Y0008243D02*
G01X0022636Y0007979D01*
G01X0022636Y0007979D02*
G01X0022461Y0007729D01*
G01X0022461Y0007729D02*
G01X0022265Y0007495D01*
G01X0023543Y0008642D02*
G01X0023022Y0008806D01*
G01X0022008Y0007731D02*
G01X0022265Y0007495D01*
G01X0019700Y0009850D02*
G01X0021318Y0010784D01*
G01X0019700Y0000000D02*
G36*
G01X0020117Y0000000D02*
G01X0020116Y0000036D01*
G01X0020111Y0000072D01*
G01X0020103Y0000108D01*
G01X0020092Y0000143D01*
G01X0020078Y0000176D01*
G01X0020061Y0000209D01*
G01X0020042Y0000239D01*
G01X0020020Y0000268D01*
G01X0019995Y0000295D01*
G01X0019968Y0000320D01*
G01X0019939Y0000342D01*
G01X0019909Y0000361D01*
G01X0019876Y0000378D01*
G01X0019843Y0000392D01*
G01X0019808Y0000403D01*
G01X0019772Y0000411D01*
G01X0019736Y0000416D01*
G01X0019700Y0000417D01*
G01X0019664Y0000416D01*
G01X0019628Y0000411D01*
G01X0019592Y0000403D01*
G01X0019557Y0000392D01*
G01X0019524Y0000378D01*
G01X0019491Y0000361D01*
G01X0019461Y0000342D01*
G01X0019432Y0000320D01*
G01X0019405Y0000295D01*
G01X0019380Y0000268D01*
G01X0019358Y0000239D01*
G01X0019339Y0000209D01*
G01X0019322Y0000176D01*
G01X0019308Y0000143D01*
G01X0019297Y0000108D01*
G01X0019289Y0000072D01*
G01X0019284Y0000036D01*
G01X0019283Y0000000D01*
G01X0019284Y-000036D01*
G01X0019289Y-000072D01*
G01X0019297Y-000108D01*
G01X0019308Y-000143D01*
G01X0019322Y-000176D01*
G01X0019339Y-000209D01*
G01X0019358Y-000239D01*
G01X0019380Y-000268D01*
G01X0019405Y-000295D01*
G01X0019432Y-000320D01*
G01X0019461Y-000342D01*
G01X0019491Y-000361D01*
G01X0019524Y-000378D01*
G01X0019557Y-000392D01*
G01X0019592Y-000403D01*
G01X0019628Y-000411D01*
G01X0019664Y-000416D01*
G01X0019700Y-000417D01*
G01X0019736Y-000416D01*
G01X0019772Y-000411D01*
G01X0019808Y-000403D01*
G01X0019843Y-000392D01*
G01X0019876Y-000378D01*
G01X0019909Y-000361D01*
G01X0019939Y-000342D01*
G01X0019968Y-000320D01*
G01X0019995Y-000295D01*
G01X0020020Y-000268D01*
G01X0020042Y-000239D01*
G01X0020061Y-000209D01*
G01X0020078Y-000176D01*
G01X0020092Y-000143D01*
G01X0020103Y-000108D01*
G01X0020111Y-000072D01*
G01X0020116Y-000036D01*
G01X0020117Y0000000D01*
G37*
G36*
G01X0020117Y0000000D02*
G37*
G54D10*
G01X0021382Y0000000D02*
G01X0021376Y0000147D01*
G01X0021376Y0000147D02*
G01X0021357Y0000292D01*
G01X0021357Y0000292D02*
G01X0021325Y0000435D01*
G01X0021325Y0000435D02*
G01X0021281Y0000575D01*
G01X0021281Y0000575D02*
G01X0021225Y0000711D01*
G01X0021225Y0000711D02*
G01X0021157Y0000841D01*
G01X0021157Y0000841D02*
G01X0021078Y0000965D01*
G01X0021078Y0000965D02*
G01X0020989Y0001081D01*
G01X0020989Y0001081D02*
G01X0020890Y0001190D01*
G01X0020890Y0001190D02*
G01X0020781Y0001289D01*
G01X0020781Y0001289D02*
G01X0020665Y0001378D01*
G01X0020665Y0001378D02*
G01X0020541Y0001457D01*
G01X0020541Y0001457D02*
G01X0020411Y0001525D01*
G01X0020411Y0001525D02*
G01X0020275Y0001581D01*
G01X0020275Y0001581D02*
G01X0020135Y0001625D01*
G01X0020135Y0001625D02*
G01X0019992Y0001657D01*
G01X0019992Y0001657D02*
G01X0019847Y0001676D01*
G01X0019847Y0001676D02*
G01X0019700Y0001682D01*
G01X0019700Y0001682D02*
G01X0019553Y0001676D01*
G01X0019553Y0001676D02*
G01X0019408Y0001657D01*
G01X0019408Y0001657D02*
G01X0019265Y0001625D01*
G01X0019265Y0001625D02*
G01X0019125Y0001581D01*
G01X0019125Y0001581D02*
G01X0018989Y0001525D01*
G01X0018989Y0001525D02*
G01X0018859Y0001457D01*
G01X0018859Y0001457D02*
G01X0018735Y0001378D01*
G01X0018735Y0001378D02*
G01X0018619Y0001289D01*
G01X0018619Y0001289D02*
G01X0018510Y0001190D01*
G01X0018510Y0001190D02*
G01X0018411Y0001081D01*
G01X0018411Y0001081D02*
G01X0018322Y0000965D01*
G01X0018322Y0000965D02*
G01X0018243Y0000841D01*
G01X0018243Y0000841D02*
G01X0018175Y0000711D01*
G01X0018175Y0000711D02*
G01X0018119Y0000575D01*
G01X0018119Y0000575D02*
G01X0018075Y0000435D01*
G01X0018075Y0000435D02*
G01X0018043Y0000292D01*
G01X0018043Y0000292D02*
G01X0018024Y0000147D01*
G01X0018024Y0000147D02*
G01X0018018Y0000000D01*
G01X0018018Y0000000D02*
G01X0018024Y-000147D01*
G01X0018024Y-000147D02*
G01X0018043Y-000292D01*
G01X0018043Y-000292D02*
G01X0018075Y-000435D01*
G01X0018075Y-000435D02*
G01X0018119Y-000575D01*
G01X0018119Y-000575D02*
G01X0018175Y-000711D01*
G01X0018175Y-000711D02*
G01X0018243Y-000841D01*
G01X0018243Y-000841D02*
G01X0018322Y-000965D01*
G01X0018322Y-000965D02*
G01X0018411Y-001081D01*
G01X0018411Y-001081D02*
G01X0018510Y-001190D01*
G01X0018510Y-001190D02*
G01X0018619Y-001289D01*
G01X0018619Y-001289D02*
G01X0018735Y-001378D01*
G01X0018735Y-001378D02*
G01X0018859Y-001457D01*
G01X0018859Y-001457D02*
G01X0018989Y-001525D01*
G01X0018989Y-001525D02*
G01X0019125Y-001581D01*
G01X0019125Y-001581D02*
G01X0019265Y-001625D01*
G01X0019265Y-001625D02*
G01X0019408Y-001657D01*
G01X0019408Y-001657D02*
G01X0019553Y-001676D01*
G01X0019553Y-001676D02*
G01X0019700Y-001682D01*
G01X0019700Y-001682D02*
G01X0019847Y-001676D01*
G01X0019847Y-001676D02*
G01X0019992Y-001657D01*
G01X0019992Y-001657D02*
G01X0020135Y-001625D01*
G01X0020135Y-001625D02*
G01X0020275Y-001581D01*
G01X0020275Y-001581D02*
G01X0020411Y-001525D01*
G01X0020411Y-001525D02*
G01X0020541Y-001457D01*
G01X0020541Y-001457D02*
G01X0020665Y-001378D01*
G01X0020665Y-001378D02*
G01X0020781Y-001289D01*
G01X0020781Y-001289D02*
G01X0020890Y-001190D01*
G01X0020890Y-001190D02*
G01X0020989Y-001081D01*
G01X0020989Y-001081D02*
G01X0021078Y-000965D01*
G01X0021078Y-000965D02*
G01X0021157Y-000841D01*
G01X0021157Y-000841D02*
G01X0021225Y-000711D01*
G01X0021225Y-000711D02*
G01X0021281Y-000575D01*
G01X0021281Y-000575D02*
G01X0021325Y-000435D01*
G01X0021325Y-000435D02*
G01X0021357Y-000292D01*
G01X0021357Y-000292D02*
G01X0021376Y-000147D01*
G01X0021376Y-000147D02*
G01X0021382Y0000000D01*
G54D11*
G01X0020575Y0003932D02*
G01X0020216Y0003995D01*
G01X0020216Y0003995D02*
G01X0019853Y0004025D01*
G01X0019853Y0004025D02*
G01X0019489Y0004023D01*
G01X0019489Y0004023D02*
G01X0019126Y0003987D01*
G01X0019126Y0003987D02*
G01X0018768Y0003919D01*
G01X0018768Y0003919D02*
G01X0018418Y0003819D01*
G01X0018418Y0003819D02*
G01X0018078Y0003687D01*
G01X0018078Y0003687D02*
G01X0017752Y0003526D01*
G01X0017752Y0003526D02*
G01X0017441Y0003335D01*
G01X0017441Y0003335D02*
G01X0017149Y0003117D01*
G01X0017149Y0003117D02*
G01X0016878Y0002874D01*
G01X0016878Y0002874D02*
G01X0016629Y0002607D01*
G01X0016629Y0002607D02*
G01X0016406Y0002319D01*
G01X0020457Y0003399D02*
G01X0020156Y0003452D01*
G01X0020156Y0003452D02*
G01X0019852Y0003479D01*
G01X0019852Y0003479D02*
G01X0019548Y0003479D01*
G01X0019548Y0003479D02*
G01X0019244Y0003452D01*
G01X0019244Y0003452D02*
G01X0018943Y0003399D01*
G01X0020575Y0003932D02*
G01X0020457Y0003399D01*
G01X0019190Y0002292D02*
G01X0018943Y0003399D01*
G01X0019700Y0000000D02*
G01X0018820Y0000508D01*
G01X0015857Y-001208D02*
G01X0015982Y-001550D01*
G01X0015982Y-001550D02*
G01X0016137Y-001880D01*
G01X0016137Y-001880D02*
G01X0016322Y-002194D01*
G01X0016322Y-002194D02*
G01X0016534Y-002490D01*
G01X0016534Y-002490D02*
G01X0016772Y-002766D01*
G01X0016772Y-002766D02*
G01X0017034Y-003020D01*
G01X0017034Y-003020D02*
G01X0017318Y-003248D01*
G01X0017318Y-003248D02*
G01X0017621Y-003450D01*
G01X0017621Y-003450D02*
G01X0017941Y-003624D01*
G01X0017941Y-003624D02*
G01X0018276Y-003768D01*
G01X0018276Y-003768D02*
G01X0018622Y-003881D01*
G01X0018622Y-003881D02*
G01X0018977Y-003963D01*
G01X0018977Y-003963D02*
G01X0019339Y-004012D01*
G01X0016378Y-001044D02*
G01X0016482Y-001331D01*
G01X0016482Y-001331D02*
G01X0016611Y-001607D01*
G01X0016611Y-001607D02*
G01X0016764Y-001871D01*
G01X0016764Y-001871D02*
G01X0016939Y-002121D01*
G01X0016939Y-002121D02*
G01X0017135Y-002355D01*
G01X0015857Y-001208D02*
G01X0016378Y-001044D01*
G01X0017970Y-001588D02*
G01X0017135Y-002355D01*
G01X0019700Y0000000D02*
G01X0019700Y-001016D01*
G01X0022667Y-002724D02*
G01X0022901Y-002445D01*
G01X0022901Y-002445D02*
G01X0023109Y-002145D01*
G01X0023109Y-002145D02*
G01X0023289Y-001828D01*
G01X0023289Y-001828D02*
G01X0023440Y-001497D01*
G01X0023440Y-001497D02*
G01X0023560Y-001153D01*
G01X0023560Y-001153D02*
G01X0023648Y-000799D01*
G01X0023648Y-000799D02*
G01X0023704Y-000439D01*
G01X0023704Y-000439D02*
G01X0023727Y-000075D01*
G01X0023727Y-000075D02*
G01X0023718Y0000289D01*
G01X0023718Y0000289D02*
G01X0023675Y0000651D01*
G01X0023675Y0000651D02*
G01X0023600Y0001007D01*
G01X0023600Y0001007D02*
G01X0023493Y0001356D01*
G01X0023493Y0001356D02*
G01X0023355Y0001693D01*
G01X0022265Y-002355D02*
G01X0022461Y-002121D01*
G01X0022461Y-002121D02*
G01X0022636Y-001871D01*
G01X0022636Y-001871D02*
G01X0022789Y-001607D01*
G01X0022789Y-001607D02*
G01X0022918Y-001331D01*
G01X0022918Y-001331D02*
G01X0023022Y-001044D01*
G01X0022667Y-002724D02*
G01X0022265Y-002355D01*
G01X0021940Y-000704D02*
G01X0023022Y-001044D01*
G01X0019700Y0000000D02*
G01X0020580Y0000508D01*
G01X0009850Y0029550D02*
G54D12*
G01X0009850Y0029550D03*
G54D13*
G01X0012351Y0029550D02*
G01X0012341Y0029768D01*
G01X0012341Y0029768D02*
G01X0012313Y0029984D01*
G01X0012313Y0029984D02*
G01X0012266Y0030197D01*
G01X0012266Y0030197D02*
G01X0012200Y0030405D01*
G01X0012200Y0030405D02*
G01X0012117Y0030607D01*
G01X0012117Y0030607D02*
G01X0012016Y0030800D01*
G01X0012016Y0030800D02*
G01X0011899Y0030984D01*
G01X0011899Y0030984D02*
G01X0011766Y0031158D01*
G01X0011766Y0031158D02*
G01X0011618Y0031318D01*
G01X0011618Y0031318D02*
G01X0011458Y0031466D01*
G01X0011458Y0031466D02*
G01X0011284Y0031599D01*
G01X0011284Y0031599D02*
G01X0011100Y0031716D01*
G01X0011100Y0031716D02*
G01X0010907Y0031817D01*
G01X0010907Y0031817D02*
G01X0010705Y0031900D01*
G01X0010705Y0031900D02*
G01X0010497Y0031966D01*
G01X0010497Y0031966D02*
G01X0010284Y0032013D01*
G01X0010284Y0032013D02*
G01X0010068Y0032041D01*
G01X0010068Y0032041D02*
G01X0009850Y0032051D01*
G01X0009850Y0032051D02*
G01X0009632Y0032041D01*
G01X0009632Y0032041D02*
G01X0009416Y0032013D01*
G01X0009416Y0032013D02*
G01X0009203Y0031966D01*
G01X0009203Y0031966D02*
G01X0008995Y0031900D01*
G01X0008995Y0031900D02*
G01X0008793Y0031817D01*
G01X0008793Y0031817D02*
G01X0008600Y0031716D01*
G01X0008600Y0031716D02*
G01X0008416Y0031599D01*
G01X0008416Y0031599D02*
G01X0008242Y0031466D01*
G01X0008242Y0031466D02*
G01X0008082Y0031318D01*
G01X0008082Y0031318D02*
G01X0007934Y0031158D01*
G01X0007934Y0031158D02*
G01X0007801Y0030984D01*
G01X0007801Y0030984D02*
G01X0007684Y0030800D01*
G01X0007684Y0030800D02*
G01X0007583Y0030607D01*
G01X0007583Y0030607D02*
G01X0007500Y0030405D01*
G01X0007500Y0030405D02*
G01X0007434Y0030197D01*
G01X0007434Y0030197D02*
G01X0007387Y0029984D01*
G01X0007387Y0029984D02*
G01X0007359Y0029768D01*
G01X0007359Y0029768D02*
G01X0007349Y0029550D01*
G01X0007349Y0029550D02*
G01X0007359Y0029332D01*
G01X0007359Y0029332D02*
G01X0007387Y0029116D01*
G01X0007387Y0029116D02*
G01X0007434Y0028903D01*
G01X0007434Y0028903D02*
G01X0007500Y0028695D01*
G01X0007500Y0028695D02*
G01X0007583Y0028493D01*
G01X0007583Y0028493D02*
G01X0007684Y0028300D01*
G01X0007684Y0028300D02*
G01X0007801Y0028116D01*
G01X0007801Y0028116D02*
G01X0007934Y0027942D01*
G01X0007934Y0027942D02*
G01X0008082Y0027782D01*
G01X0008082Y0027782D02*
G01X0008242Y0027634D01*
G01X0008242Y0027634D02*
G01X0008416Y0027501D01*
G01X0008416Y0027501D02*
G01X0008600Y0027384D01*
G01X0008600Y0027384D02*
G01X0008793Y0027283D01*
G01X0008793Y0027283D02*
G01X0008995Y0027200D01*
G01X0008995Y0027200D02*
G01X0009203Y0027134D01*
G01X0009203Y0027134D02*
G01X0009416Y0027087D01*
G01X0009416Y0027087D02*
G01X0009632Y0027059D01*
G01X0009632Y0027059D02*
G01X0009850Y0027049D01*
G01X0009850Y0027049D02*
G01X0010068Y0027059D01*
G01X0010068Y0027059D02*
G01X0010284Y0027087D01*
G01X0010284Y0027087D02*
G01X0010497Y0027134D01*
G01X0010497Y0027134D02*
G01X0010705Y0027200D01*
G01X0010705Y0027200D02*
G01X0010907Y0027283D01*
G01X0010907Y0027283D02*
G01X0011100Y0027384D01*
G01X0011100Y0027384D02*
G01X0011284Y0027501D01*
G01X0011284Y0027501D02*
G01X0011458Y0027634D01*
G01X0011458Y0027634D02*
G01X0011618Y0027782D01*
G01X0011618Y0027782D02*
G01X0011766Y0027942D01*
G01X0011766Y0027942D02*
G01X0011899Y0028116D01*
G01X0011899Y0028116D02*
G01X0012016Y0028300D01*
G01X0012016Y0028300D02*
G01X0012117Y0028493D01*
G01X0012117Y0028493D02*
G01X0012200Y0028695D01*
G01X0012200Y0028695D02*
G01X0012266Y0028903D01*
G01X0012266Y0028903D02*
G01X0012313Y0029116D01*
G01X0012313Y0029116D02*
G01X0012341Y0029332D01*
G01X0012341Y0029332D02*
G01X0012351Y0029550D01*
G54D11*
G01X0008975Y0033482D02*
G01X0009334Y0033545D01*
G01X0009334Y0033545D02*
G01X0009697Y0033575D01*
G01X0009697Y0033575D02*
G01X0010061Y0033573D01*
G01X0010061Y0033573D02*
G01X0010424Y0033537D01*
G01X0010424Y0033537D02*
G01X0010782Y0033469D01*
G01X0010782Y0033469D02*
G01X0011132Y0033369D01*
G01X0011132Y0033369D02*
G01X0011472Y0033237D01*
G01X0011472Y0033237D02*
G01X0011798Y0033076D01*
G01X0011798Y0033076D02*
G01X0012109Y0032885D01*
G01X0012109Y0032885D02*
G01X0012401Y0032667D01*
G01X0012401Y0032667D02*
G01X0012672Y0032424D01*
G01X0012672Y0032424D02*
G01X0012921Y0032157D01*
G01X0012921Y0032157D02*
G01X0013144Y0031869D01*
G01X0009093Y0032949D02*
G01X0009394Y0033002D01*
G01X0009394Y0033002D02*
G01X0009698Y0033029D01*
G01X0009698Y0033029D02*
G01X0010002Y0033029D01*
G01X0010002Y0033029D02*
G01X0010306Y0033002D01*
G01X0010306Y0033002D02*
G01X0010607Y0032949D01*
G01X0008975Y0033482D02*
G01X0009093Y0032949D01*
G01X0010531Y0032608D02*
G01X0010607Y0032949D01*
G01X0009850Y0029550D02*
G01X0008232Y0030484D01*
G01X0006883Y0026826D02*
G01X0006649Y0027105D01*
G01X0006649Y0027105D02*
G01X0006441Y0027405D01*
G01X0006441Y0027405D02*
G01X0006261Y0027722D01*
G01X0006261Y0027722D02*
G01X0006110Y0028053D01*
G01X0006110Y0028053D02*
G01X0005990Y0028397D01*
G01X0005990Y0028397D02*
G01X0005902Y0028751D01*
G01X0005902Y0028751D02*
G01X0005846Y0029111D01*
G01X0005846Y0029111D02*
G01X0005823Y0029475D01*
G01X0005823Y0029475D02*
G01X0005832Y0029839D01*
G01X0005832Y0029839D02*
G01X0005875Y0030201D01*
G01X0005875Y0030201D02*
G01X0005950Y0030557D01*
G01X0005950Y0030557D02*
G01X0006057Y0030906D01*
G01X0006057Y0030906D02*
G01X0006195Y0031243D01*
G01X0007285Y0027195D02*
G01X0007089Y0027429D01*
G01X0007089Y0027429D02*
G01X0006914Y0027679D01*
G01X0006914Y0027679D02*
G01X0006761Y0027943D01*
G01X0006761Y0027943D02*
G01X0006632Y0028219D01*
G01X0006632Y0028219D02*
G01X0006528Y0028506D01*
G01X0006883Y0026826D02*
G01X0007285Y0027195D01*
G01X0006861Y0028611D02*
G01X0006528Y0028506D01*
G01X0009850Y0029550D02*
G01X0009850Y0027681D01*
G01X0013693Y0028342D02*
G01X0013568Y0028000D01*
G01X0013568Y0028000D02*
G01X0013413Y0027670D01*
G01X0013413Y0027670D02*
G01X0013228Y0027356D01*
G01X0013228Y0027356D02*
G01X0013016Y0027060D01*
G01X0013016Y0027060D02*
G01X0012778Y0026784D01*
G01X0012778Y0026784D02*
G01X0012516Y0026530D01*
G01X0012516Y0026530D02*
G01X0012232Y0026302D01*
G01X0012232Y0026302D02*
G01X0011929Y0026100D01*
G01X0011929Y0026100D02*
G01X0011609Y0025926D01*
G01X0011609Y0025926D02*
G01X0011274Y0025782D01*
G01X0011274Y0025782D02*
G01X0010928Y0025669D01*
G01X0010928Y0025669D02*
G01X0010573Y0025587D01*
G01X0010573Y0025587D02*
G01X0010211Y0025538D01*
G01X0013172Y0028506D02*
G01X0013068Y0028219D01*
G01X0013068Y0028219D02*
G01X0012939Y0027943D01*
G01X0012939Y0027943D02*
G01X0012786Y0027679D01*
G01X0012786Y0027679D02*
G01X0012611Y0027429D01*
G01X0012611Y0027429D02*
G01X0012415Y0027195D01*
G01X0013693Y0028342D02*
G01X0013172Y0028506D01*
G01X0012158Y0027431D02*
G01X0012415Y0027195D01*
G01X0009850Y0029550D02*
G01X0011468Y0030484D01*
G01X0009850Y0019700D02*
G54D12*
G01X0009850Y0019700D03*
G54D13*
G01X0012351Y0019700D02*
G01X0012341Y0019918D01*
G01X0012341Y0019918D02*
G01X0012313Y0020134D01*
G01X0012313Y0020134D02*
G01X0012266Y0020347D01*
G01X0012266Y0020347D02*
G01X0012200Y0020555D01*
G01X0012200Y0020555D02*
G01X0012117Y0020757D01*
G01X0012117Y0020757D02*
G01X0012016Y0020950D01*
G01X0012016Y0020950D02*
G01X0011899Y0021134D01*
G01X0011899Y0021134D02*
G01X0011766Y0021308D01*
G01X0011766Y0021308D02*
G01X0011618Y0021468D01*
G01X0011618Y0021468D02*
G01X0011458Y0021616D01*
G01X0011458Y0021616D02*
G01X0011284Y0021749D01*
G01X0011284Y0021749D02*
G01X0011100Y0021866D01*
G01X0011100Y0021866D02*
G01X0010907Y0021967D01*
G01X0010907Y0021967D02*
G01X0010705Y0022050D01*
G01X0010705Y0022050D02*
G01X0010497Y0022116D01*
G01X0010497Y0022116D02*
G01X0010284Y0022163D01*
G01X0010284Y0022163D02*
G01X0010068Y0022191D01*
G01X0010068Y0022191D02*
G01X0009850Y0022201D01*
G01X0009850Y0022201D02*
G01X0009632Y0022191D01*
G01X0009632Y0022191D02*
G01X0009416Y0022163D01*
G01X0009416Y0022163D02*
G01X0009203Y0022116D01*
G01X0009203Y0022116D02*
G01X0008995Y0022050D01*
G01X0008995Y0022050D02*
G01X0008793Y0021967D01*
G01X0008793Y0021967D02*
G01X0008600Y0021866D01*
G01X0008600Y0021866D02*
G01X0008416Y0021749D01*
G01X0008416Y0021749D02*
G01X0008242Y0021616D01*
G01X0008242Y0021616D02*
G01X0008082Y0021468D01*
G01X0008082Y0021468D02*
G01X0007934Y0021308D01*
G01X0007934Y0021308D02*
G01X0007801Y0021134D01*
G01X0007801Y0021134D02*
G01X0007684Y0020950D01*
G01X0007684Y0020950D02*
G01X0007583Y0020757D01*
G01X0007583Y0020757D02*
G01X0007500Y0020555D01*
G01X0007500Y0020555D02*
G01X0007434Y0020347D01*
G01X0007434Y0020347D02*
G01X0007387Y0020134D01*
G01X0007387Y0020134D02*
G01X0007359Y0019918D01*
G01X0007359Y0019918D02*
G01X0007349Y0019700D01*
G01X0007349Y0019700D02*
G01X0007359Y0019482D01*
G01X0007359Y0019482D02*
G01X0007387Y0019266D01*
G01X0007387Y0019266D02*
G01X0007434Y0019053D01*
G01X0007434Y0019053D02*
G01X0007500Y0018845D01*
G01X0007500Y0018845D02*
G01X0007583Y0018643D01*
G01X0007583Y0018643D02*
G01X0007684Y0018450D01*
G01X0007684Y0018450D02*
G01X0007801Y0018266D01*
G01X0007801Y0018266D02*
G01X0007934Y0018092D01*
G01X0007934Y0018092D02*
G01X0008082Y0017932D01*
G01X0008082Y0017932D02*
G01X0008242Y0017784D01*
G01X0008242Y0017784D02*
G01X0008416Y0017651D01*
G01X0008416Y0017651D02*
G01X0008600Y0017534D01*
G01X0008600Y0017534D02*
G01X0008793Y0017433D01*
G01X0008793Y0017433D02*
G01X0008995Y0017350D01*
G01X0008995Y0017350D02*
G01X0009203Y0017284D01*
G01X0009203Y0017284D02*
G01X0009416Y0017237D01*
G01X0009416Y0017237D02*
G01X0009632Y0017209D01*
G01X0009632Y0017209D02*
G01X0009850Y0017199D01*
G01X0009850Y0017199D02*
G01X0010068Y0017209D01*
G01X0010068Y0017209D02*
G01X0010284Y0017237D01*
G01X0010284Y0017237D02*
G01X0010497Y0017284D01*
G01X0010497Y0017284D02*
G01X0010705Y0017350D01*
G01X0010705Y0017350D02*
G01X0010907Y0017433D01*
G01X0010907Y0017433D02*
G01X0011100Y0017534D01*
G01X0011100Y0017534D02*
G01X0011284Y0017651D01*
G01X0011284Y0017651D02*
G01X0011458Y0017784D01*
G01X0011458Y0017784D02*
G01X0011618Y0017932D01*
G01X0011618Y0017932D02*
G01X0011766Y0018092D01*
G01X0011766Y0018092D02*
G01X0011899Y0018266D01*
G01X0011899Y0018266D02*
G01X0012016Y0018450D01*
G01X0012016Y0018450D02*
G01X0012117Y0018643D01*
G01X0012117Y0018643D02*
G01X0012200Y0018845D01*
G01X0012200Y0018845D02*
G01X0012266Y0019053D01*
G01X0012266Y0019053D02*
G01X0012313Y0019266D01*
G01X0012313Y0019266D02*
G01X0012341Y0019482D01*
G01X0012341Y0019482D02*
G01X0012351Y0019700D01*
G54D11*
G01X0008975Y0023632D02*
G01X0009334Y0023695D01*
G01X0009334Y0023695D02*
G01X0009697Y0023725D01*
G01X0009697Y0023725D02*
G01X0010061Y0023723D01*
G01X0010061Y0023723D02*
G01X0010424Y0023687D01*
G01X0010424Y0023687D02*
G01X0010782Y0023619D01*
G01X0010782Y0023619D02*
G01X0011132Y0023519D01*
G01X0011132Y0023519D02*
G01X0011472Y0023387D01*
G01X0011472Y0023387D02*
G01X0011798Y0023226D01*
G01X0011798Y0023226D02*
G01X0012109Y0023035D01*
G01X0012109Y0023035D02*
G01X0012401Y0022817D01*
G01X0012401Y0022817D02*
G01X0012672Y0022574D01*
G01X0012672Y0022574D02*
G01X0012921Y0022307D01*
G01X0012921Y0022307D02*
G01X0013144Y0022019D01*
G01X0009093Y0023099D02*
G01X0009394Y0023152D01*
G01X0009394Y0023152D02*
G01X0009698Y0023179D01*
G01X0009698Y0023179D02*
G01X0010002Y0023179D01*
G01X0010002Y0023179D02*
G01X0010306Y0023152D01*
G01X0010306Y0023152D02*
G01X0010607Y0023099D01*
G01X0008975Y0023632D02*
G01X0009093Y0023099D01*
G01X0010531Y0022758D02*
G01X0010607Y0023099D01*
G01X0009850Y0019700D02*
G01X0008232Y0020634D01*
G01X0006883Y0016976D02*
G01X0006649Y0017255D01*
G01X0006649Y0017255D02*
G01X0006441Y0017555D01*
G01X0006441Y0017555D02*
G01X0006261Y0017872D01*
G01X0006261Y0017872D02*
G01X0006110Y0018203D01*
G01X0006110Y0018203D02*
G01X0005990Y0018547D01*
G01X0005990Y0018547D02*
G01X0005902Y0018901D01*
G01X0005902Y0018901D02*
G01X0005846Y0019261D01*
G01X0005846Y0019261D02*
G01X0005823Y0019625D01*
G01X0005823Y0019625D02*
G01X0005832Y0019989D01*
G01X0005832Y0019989D02*
G01X0005875Y0020351D01*
G01X0005875Y0020351D02*
G01X0005950Y0020707D01*
G01X0005950Y0020707D02*
G01X0006057Y0021056D01*
G01X0006057Y0021056D02*
G01X0006195Y0021393D01*
G01X0007285Y0017345D02*
G01X0007089Y0017579D01*
G01X0007089Y0017579D02*
G01X0006914Y0017829D01*
G01X0006914Y0017829D02*
G01X0006761Y0018093D01*
G01X0006761Y0018093D02*
G01X0006632Y0018369D01*
G01X0006632Y0018369D02*
G01X0006528Y0018656D01*
G01X0006883Y0016976D02*
G01X0007285Y0017345D01*
G01X0006861Y0018761D02*
G01X0006528Y0018656D01*
G01X0009850Y0019700D02*
G01X0009850Y0017831D01*
G01X0013693Y0018492D02*
G01X0013568Y0018150D01*
G01X0013568Y0018150D02*
G01X0013413Y0017820D01*
G01X0013413Y0017820D02*
G01X0013228Y0017506D01*
G01X0013228Y0017506D02*
G01X0013016Y0017210D01*
G01X0013016Y0017210D02*
G01X0012778Y0016934D01*
G01X0012778Y0016934D02*
G01X0012516Y0016680D01*
G01X0012516Y0016680D02*
G01X0012232Y0016452D01*
G01X0012232Y0016452D02*
G01X0011929Y0016250D01*
G01X0011929Y0016250D02*
G01X0011609Y0016076D01*
G01X0011609Y0016076D02*
G01X0011274Y0015932D01*
G01X0011274Y0015932D02*
G01X0010928Y0015819D01*
G01X0010928Y0015819D02*
G01X0010573Y0015737D01*
G01X0010573Y0015737D02*
G01X0010211Y0015688D01*
G01X0013172Y0018656D02*
G01X0013068Y0018369D01*
G01X0013068Y0018369D02*
G01X0012939Y0018093D01*
G01X0012939Y0018093D02*
G01X0012786Y0017829D01*
G01X0012786Y0017829D02*
G01X0012611Y0017579D01*
G01X0012611Y0017579D02*
G01X0012415Y0017345D01*
G01X0013693Y0018492D02*
G01X0013172Y0018656D01*
G01X0012158Y0017581D02*
G01X0012415Y0017345D01*
G01X0009850Y0019700D02*
G01X0011468Y0020634D01*
G01X0009850Y0009850D02*
G36*
G01X0010267Y0009850D02*
G01X0010266Y0009886D01*
G01X0010261Y0009922D01*
G01X0010253Y0009958D01*
G01X0010242Y0009993D01*
G01X0010228Y0010026D01*
G01X0010211Y0010059D01*
G01X0010192Y0010089D01*
G01X0010170Y0010118D01*
G01X0010145Y0010145D01*
G01X0010118Y0010170D01*
G01X0010089Y0010192D01*
G01X0010059Y0010211D01*
G01X0010026Y0010228D01*
G01X0009993Y0010242D01*
G01X0009958Y0010253D01*
G01X0009922Y0010261D01*
G01X0009886Y0010266D01*
G01X0009850Y0010267D01*
G01X0009814Y0010266D01*
G01X0009778Y0010261D01*
G01X0009742Y0010253D01*
G01X0009707Y0010242D01*
G01X0009674Y0010228D01*
G01X0009641Y0010211D01*
G01X0009611Y0010192D01*
G01X0009582Y0010170D01*
G01X0009555Y0010145D01*
G01X0009530Y0010118D01*
G01X0009508Y0010089D01*
G01X0009489Y0010059D01*
G01X0009472Y0010026D01*
G01X0009458Y0009993D01*
G01X0009447Y0009958D01*
G01X0009439Y0009922D01*
G01X0009434Y0009886D01*
G01X0009433Y0009850D01*
G01X0009434Y0009814D01*
G01X0009439Y0009778D01*
G01X0009447Y0009742D01*
G01X0009458Y0009707D01*
G01X0009472Y0009674D01*
G01X0009489Y0009641D01*
G01X0009508Y0009611D01*
G01X0009530Y0009582D01*
G01X0009555Y0009555D01*
G01X0009582Y0009530D01*
G01X0009611Y0009508D01*
G01X0009641Y0009489D01*
G01X0009674Y0009472D01*
G01X0009707Y0009458D01*
G01X0009742Y0009447D01*
G01X0009778Y0009439D01*
G01X0009814Y0009434D01*
G01X0009850Y0009433D01*
G01X0009886Y0009434D01*
G01X0009922Y0009439D01*
G01X0009958Y0009447D01*
G01X0009993Y0009458D01*
G01X0010026Y0009472D01*
G01X0010059Y0009489D01*
G01X0010089Y0009508D01*
G01X0010118Y0009530D01*
G01X0010145Y0009555D01*
G01X0010170Y0009582D01*
G01X0010192Y0009611D01*
G01X0010211Y0009641D01*
G01X0010228Y0009674D01*
G01X0010242Y0009707D01*
G01X0010253Y0009742D01*
G01X0010261Y0009778D01*
G01X0010266Y0009814D01*
G01X0010267Y0009850D01*
G37*
G36*
G01X0010267Y0009850D02*
G37*
G54D10*
G01X0011532Y0009850D02*
G01X0011526Y0009997D01*
G01X0011526Y0009997D02*
G01X0011507Y0010142D01*
G01X0011507Y0010142D02*
G01X0011475Y0010285D01*
G01X0011475Y0010285D02*
G01X0011431Y0010425D01*
G01X0011431Y0010425D02*
G01X0011375Y0010561D01*
G01X0011375Y0010561D02*
G01X0011307Y0010691D01*
G01X0011307Y0010691D02*
G01X0011228Y0010815D01*
G01X0011228Y0010815D02*
G01X0011139Y0010931D01*
G01X0011139Y0010931D02*
G01X0011040Y0011040D01*
G01X0011040Y0011040D02*
G01X0010931Y0011139D01*
G01X0010931Y0011139D02*
G01X0010815Y0011228D01*
G01X0010815Y0011228D02*
G01X0010691Y0011307D01*
G01X0010691Y0011307D02*
G01X0010561Y0011375D01*
G01X0010561Y0011375D02*
G01X0010425Y0011431D01*
G01X0010425Y0011431D02*
G01X0010285Y0011475D01*
G01X0010285Y0011475D02*
G01X0010142Y0011507D01*
G01X0010142Y0011507D02*
G01X0009997Y0011526D01*
G01X0009997Y0011526D02*
G01X0009850Y0011532D01*
G01X0009850Y0011532D02*
G01X0009703Y0011526D01*
G01X0009703Y0011526D02*
G01X0009558Y0011507D01*
G01X0009558Y0011507D02*
G01X0009415Y0011475D01*
G01X0009415Y0011475D02*
G01X0009275Y0011431D01*
G01X0009275Y0011431D02*
G01X0009139Y0011375D01*
G01X0009139Y0011375D02*
G01X0009009Y0011307D01*
G01X0009009Y0011307D02*
G01X0008885Y0011228D01*
G01X0008885Y0011228D02*
G01X0008769Y0011139D01*
G01X0008769Y0011139D02*
G01X0008660Y0011040D01*
G01X0008660Y0011040D02*
G01X0008561Y0010931D01*
G01X0008561Y0010931D02*
G01X0008472Y0010815D01*
G01X0008472Y0010815D02*
G01X0008393Y0010691D01*
G01X0008393Y0010691D02*
G01X0008325Y0010561D01*
G01X0008325Y0010561D02*
G01X0008269Y0010425D01*
G01X0008269Y0010425D02*
G01X0008225Y0010285D01*
G01X0008225Y0010285D02*
G01X0008193Y0010142D01*
G01X0008193Y0010142D02*
G01X0008174Y0009997D01*
G01X0008174Y0009997D02*
G01X0008168Y0009850D01*
G01X0008168Y0009850D02*
G01X0008174Y0009703D01*
G01X0008174Y0009703D02*
G01X0008193Y0009558D01*
G01X0008193Y0009558D02*
G01X0008225Y0009415D01*
G01X0008225Y0009415D02*
G01X0008269Y0009275D01*
G01X0008269Y0009275D02*
G01X0008325Y0009139D01*
G01X0008325Y0009139D02*
G01X0008393Y0009009D01*
G01X0008393Y0009009D02*
G01X0008472Y0008885D01*
G01X0008472Y0008885D02*
G01X0008561Y0008769D01*
G01X0008561Y0008769D02*
G01X0008660Y0008660D01*
G01X0008660Y0008660D02*
G01X0008769Y0008561D01*
G01X0008769Y0008561D02*
G01X0008885Y0008472D01*
G01X0008885Y0008472D02*
G01X0009009Y0008393D01*
G01X0009009Y0008393D02*
G01X0009139Y0008325D01*
G01X0009139Y0008325D02*
G01X0009275Y0008269D01*
G01X0009275Y0008269D02*
G01X0009415Y0008225D01*
G01X0009415Y0008225D02*
G01X0009558Y0008193D01*
G01X0009558Y0008193D02*
G01X0009703Y0008174D01*
G01X0009703Y0008174D02*
G01X0009850Y0008168D01*
G01X0009850Y0008168D02*
G01X0009997Y0008174D01*
G01X0009997Y0008174D02*
G01X0010142Y0008193D01*
G01X0010142Y0008193D02*
G01X0010285Y0008225D01*
G01X0010285Y0008225D02*
G01X0010425Y0008269D01*
G01X0010425Y0008269D02*
G01X0010561Y0008325D01*
G01X0010561Y0008325D02*
G01X0010691Y0008393D01*
G01X0010691Y0008393D02*
G01X0010815Y0008472D01*
G01X0010815Y0008472D02*
G01X0010931Y0008561D01*
G01X0010931Y0008561D02*
G01X0011040Y0008660D01*
G01X0011040Y0008660D02*
G01X0011139Y0008769D01*
G01X0011139Y0008769D02*
G01X0011228Y0008885D01*
G01X0011228Y0008885D02*
G01X0011307Y0009009D01*
G01X0011307Y0009009D02*
G01X0011375Y0009139D01*
G01X0011375Y0009139D02*
G01X0011431Y0009275D01*
G01X0011431Y0009275D02*
G01X0011475Y0009415D01*
G01X0011475Y0009415D02*
G01X0011507Y0009558D01*
G01X0011507Y0009558D02*
G01X0011526Y0009703D01*
G01X0011526Y0009703D02*
G01X0011532Y0009850D01*
G54D11*
G01X0010725Y0013782D02*
G01X0010366Y0013845D01*
G01X0010366Y0013845D02*
G01X0010003Y0013875D01*
G01X0010003Y0013875D02*
G01X0009639Y0013873D01*
G01X0009639Y0013873D02*
G01X0009276Y0013837D01*
G01X0009276Y0013837D02*
G01X0008918Y0013769D01*
G01X0008918Y0013769D02*
G01X0008568Y0013669D01*
G01X0008568Y0013669D02*
G01X0008228Y0013537D01*
G01X0008228Y0013537D02*
G01X0007902Y0013376D01*
G01X0007902Y0013376D02*
G01X0007591Y0013185D01*
G01X0007591Y0013185D02*
G01X0007299Y0012967D01*
G01X0007299Y0012967D02*
G01X0007028Y0012724D01*
G01X0007028Y0012724D02*
G01X0006779Y0012457D01*
G01X0006779Y0012457D02*
G01X0006556Y0012169D01*
G01X0010607Y0013249D02*
G01X0010306Y0013302D01*
G01X0010306Y0013302D02*
G01X0010002Y0013329D01*
G01X0010002Y0013329D02*
G01X0009698Y0013329D01*
G01X0009698Y0013329D02*
G01X0009394Y0013302D01*
G01X0009394Y0013302D02*
G01X0009093Y0013249D01*
G01X0010725Y0013782D02*
G01X0010607Y0013249D01*
G01X0009340Y0012142D02*
G01X0009093Y0013249D01*
G01X0009850Y0009850D02*
G01X0008970Y0010358D01*
G01X0006007Y0008642D02*
G01X0006132Y0008300D01*
G01X0006132Y0008300D02*
G01X0006287Y0007970D01*
G01X0006287Y0007970D02*
G01X0006472Y0007656D01*
G01X0006472Y0007656D02*
G01X0006684Y0007360D01*
G01X0006684Y0007360D02*
G01X0006922Y0007084D01*
G01X0006922Y0007084D02*
G01X0007184Y0006830D01*
G01X0007184Y0006830D02*
G01X0007468Y0006602D01*
G01X0007468Y0006602D02*
G01X0007771Y0006400D01*
G01X0007771Y0006400D02*
G01X0008091Y0006226D01*
G01X0008091Y0006226D02*
G01X0008426Y0006082D01*
G01X0008426Y0006082D02*
G01X0008772Y0005969D01*
G01X0008772Y0005969D02*
G01X0009127Y0005887D01*
G01X0009127Y0005887D02*
G01X0009489Y0005838D01*
G01X0006528Y0008806D02*
G01X0006632Y0008519D01*
G01X0006632Y0008519D02*
G01X0006761Y0008243D01*
G01X0006761Y0008243D02*
G01X0006914Y0007979D01*
G01X0006914Y0007979D02*
G01X0007089Y0007729D01*
G01X0007089Y0007729D02*
G01X0007285Y0007495D01*
G01X0006007Y0008642D02*
G01X0006528Y0008806D01*
G01X0008120Y0008262D02*
G01X0007285Y0007495D01*
G01X0009850Y0009850D02*
G01X0009850Y0008834D01*
G01X0012817Y0007126D02*
G01X0013051Y0007405D01*
G01X0013051Y0007405D02*
G01X0013259Y0007705D01*
G01X0013259Y0007705D02*
G01X0013439Y0008022D01*
G01X0013439Y0008022D02*
G01X0013590Y0008353D01*
G01X0013590Y0008353D02*
G01X0013710Y0008697D01*
G01X0013710Y0008697D02*
G01X0013798Y0009051D01*
G01X0013798Y0009051D02*
G01X0013854Y0009411D01*
G01X0013854Y0009411D02*
G01X0013877Y0009775D01*
G01X0013877Y0009775D02*
G01X0013868Y0010139D01*
G01X0013868Y0010139D02*
G01X0013825Y0010501D01*
G01X0013825Y0010501D02*
G01X0013750Y0010857D01*
G01X0013750Y0010857D02*
G01X0013643Y0011206D01*
G01X0013643Y0011206D02*
G01X0013505Y0011543D01*
G01X0012415Y0007495D02*
G01X0012611Y0007729D01*
G01X0012611Y0007729D02*
G01X0012786Y0007979D01*
G01X0012786Y0007979D02*
G01X0012939Y0008243D01*
G01X0012939Y0008243D02*
G01X0013068Y0008519D01*
G01X0013068Y0008519D02*
G01X0013172Y0008806D01*
G01X0012817Y0007126D02*
G01X0012415Y0007495D01*
G01X0012090Y0009146D02*
G01X0013172Y0008806D01*
G01X0009850Y0009850D02*
G01X0010730Y0010358D01*
G01X0009850Y0000000D02*
G36*
G01X0010267Y0000000D02*
G01X0010266Y0000036D01*
G01X0010261Y0000072D01*
G01X0010253Y0000108D01*
G01X0010242Y0000143D01*
G01X0010228Y0000176D01*
G01X0010211Y0000209D01*
G01X0010192Y0000239D01*
G01X0010170Y0000268D01*
G01X0010145Y0000295D01*
G01X0010118Y0000320D01*
G01X0010089Y0000342D01*
G01X0010059Y0000361D01*
G01X0010026Y0000378D01*
G01X0009993Y0000392D01*
G01X0009958Y0000403D01*
G01X0009922Y0000411D01*
G01X0009886Y0000416D01*
G01X0009850Y0000417D01*
G01X0009814Y0000416D01*
G01X0009778Y0000411D01*
G01X0009742Y0000403D01*
G01X0009707Y0000392D01*
G01X0009674Y0000378D01*
G01X0009641Y0000361D01*
G01X0009611Y0000342D01*
G01X0009582Y0000320D01*
G01X0009555Y0000295D01*
G01X0009530Y0000268D01*
G01X0009508Y0000239D01*
G01X0009489Y0000209D01*
G01X0009472Y0000176D01*
G01X0009458Y0000143D01*
G01X0009447Y0000108D01*
G01X0009439Y0000072D01*
G01X0009434Y0000036D01*
G01X0009433Y0000000D01*
G01X0009434Y-000036D01*
G01X0009439Y-000072D01*
G01X0009447Y-000108D01*
G01X0009458Y-000143D01*
G01X0009472Y-000176D01*
G01X0009489Y-000209D01*
G01X0009508Y-000239D01*
G01X0009530Y-000268D01*
G01X0009555Y-000295D01*
G01X0009582Y-000320D01*
G01X0009611Y-000342D01*
G01X0009641Y-000361D01*
G01X0009674Y-000378D01*
G01X0009707Y-000392D01*
G01X0009742Y-000403D01*
G01X0009778Y-000411D01*
G01X0009814Y-000416D01*
G01X0009850Y-000417D01*
G01X0009886Y-000416D01*
G01X0009922Y-000411D01*
G01X0009958Y-000403D01*
G01X0009993Y-000392D01*
G01X0010026Y-000378D01*
G01X0010059Y-000361D01*
G01X0010089Y-000342D01*
G01X0010118Y-000320D01*
G01X0010145Y-000295D01*
G01X0010170Y-000268D01*
G01X0010192Y-000239D01*
G01X0010211Y-000209D01*
G01X0010228Y-000176D01*
G01X0010242Y-000143D01*
G01X0010253Y-000108D01*
G01X0010261Y-000072D01*
G01X0010266Y-000036D01*
G01X0010267Y0000000D01*
G37*
G36*
G01X0010267Y0000000D02*
G37*
G54D10*
G01X0011532Y0000000D02*
G01X0011526Y0000147D01*
G01X0011526Y0000147D02*
G01X0011507Y0000292D01*
G01X0011507Y0000292D02*
G01X0011475Y0000435D01*
G01X0011475Y0000435D02*
G01X0011431Y0000575D01*
G01X0011431Y0000575D02*
G01X0011375Y0000711D01*
G01X0011375Y0000711D02*
G01X0011307Y0000841D01*
G01X0011307Y0000841D02*
G01X0011228Y0000965D01*
G01X0011228Y0000965D02*
G01X0011139Y0001081D01*
G01X0011139Y0001081D02*
G01X0011040Y0001190D01*
G01X0011040Y0001190D02*
G01X0010931Y0001289D01*
G01X0010931Y0001289D02*
G01X0010815Y0001378D01*
G01X0010815Y0001378D02*
G01X0010691Y0001457D01*
G01X0010691Y0001457D02*
G01X0010561Y0001525D01*
G01X0010561Y0001525D02*
G01X0010425Y0001581D01*
G01X0010425Y0001581D02*
G01X0010285Y0001625D01*
G01X0010285Y0001625D02*
G01X0010142Y0001657D01*
G01X0010142Y0001657D02*
G01X0009997Y0001676D01*
G01X0009997Y0001676D02*
G01X0009850Y0001682D01*
G01X0009850Y0001682D02*
G01X0009703Y0001676D01*
G01X0009703Y0001676D02*
G01X0009558Y0001657D01*
G01X0009558Y0001657D02*
G01X0009415Y0001625D01*
G01X0009415Y0001625D02*
G01X0009275Y0001581D01*
G01X0009275Y0001581D02*
G01X0009139Y0001525D01*
G01X0009139Y0001525D02*
G01X0009009Y0001457D01*
G01X0009009Y0001457D02*
G01X0008885Y0001378D01*
G01X0008885Y0001378D02*
G01X0008769Y0001289D01*
G01X0008769Y0001289D02*
G01X0008660Y0001190D01*
G01X0008660Y0001190D02*
G01X0008561Y0001081D01*
G01X0008561Y0001081D02*
G01X0008472Y0000965D01*
G01X0008472Y0000965D02*
G01X0008393Y0000841D01*
G01X0008393Y0000841D02*
G01X0008325Y0000711D01*
G01X0008325Y0000711D02*
G01X0008269Y0000575D01*
G01X0008269Y0000575D02*
G01X0008225Y0000435D01*
G01X0008225Y0000435D02*
G01X0008193Y0000292D01*
G01X0008193Y0000292D02*
G01X0008174Y0000147D01*
G01X0008174Y0000147D02*
G01X0008168Y0000000D01*
G01X0008168Y0000000D02*
G01X0008174Y-000147D01*
G01X0008174Y-000147D02*
G01X0008193Y-000292D01*
G01X0008193Y-000292D02*
G01X0008225Y-000435D01*
G01X0008225Y-000435D02*
G01X0008269Y-000575D01*
G01X0008269Y-000575D02*
G01X0008325Y-000711D01*
G01X0008325Y-000711D02*
G01X0008393Y-000841D01*
G01X0008393Y-000841D02*
G01X0008472Y-000965D01*
G01X0008472Y-000965D02*
G01X0008561Y-001081D01*
G01X0008561Y-001081D02*
G01X0008660Y-001190D01*
G01X0008660Y-001190D02*
G01X0008769Y-001289D01*
G01X0008769Y-001289D02*
G01X0008885Y-001378D01*
G01X0008885Y-001378D02*
G01X0009009Y-001457D01*
G01X0009009Y-001457D02*
G01X0009139Y-001525D01*
G01X0009139Y-001525D02*
G01X0009275Y-001581D01*
G01X0009275Y-001581D02*
G01X0009415Y-001625D01*
G01X0009415Y-001625D02*
G01X0009558Y-001657D01*
G01X0009558Y-001657D02*
G01X0009703Y-001676D01*
G01X0009703Y-001676D02*
G01X0009850Y-001682D01*
G01X0009850Y-001682D02*
G01X0009997Y-001676D01*
G01X0009997Y-001676D02*
G01X0010142Y-001657D01*
G01X0010142Y-001657D02*
G01X0010285Y-001625D01*
G01X0010285Y-001625D02*
G01X0010425Y-001581D01*
G01X0010425Y-001581D02*
G01X0010561Y-001525D01*
G01X0010561Y-001525D02*
G01X0010691Y-001457D01*
G01X0010691Y-001457D02*
G01X0010815Y-001378D01*
G01X0010815Y-001378D02*
G01X0010931Y-001289D01*
G01X0010931Y-001289D02*
G01X0011040Y-001190D01*
G01X0011040Y-001190D02*
G01X0011139Y-001081D01*
G01X0011139Y-001081D02*
G01X0011228Y-000965D01*
G01X0011228Y-000965D02*
G01X0011307Y-000841D01*
G01X0011307Y-000841D02*
G01X0011375Y-000711D01*
G01X0011375Y-000711D02*
G01X0011431Y-000575D01*
G01X0011431Y-000575D02*
G01X0011475Y-000435D01*
G01X0011475Y-000435D02*
G01X0011507Y-000292D01*
G01X0011507Y-000292D02*
G01X0011526Y-000147D01*
G01X0011526Y-000147D02*
G01X0011532Y0000000D01*
G54D11*
G01X0010725Y0003932D02*
G01X0010366Y0003995D01*
G01X0010366Y0003995D02*
G01X0010003Y0004025D01*
G01X0010003Y0004025D02*
G01X0009639Y0004023D01*
G01X0009639Y0004023D02*
G01X0009276Y0003987D01*
G01X0009276Y0003987D02*
G01X0008918Y0003919D01*
G01X0008918Y0003919D02*
G01X0008568Y0003819D01*
G01X0008568Y0003819D02*
G01X0008228Y0003687D01*
G01X0008228Y0003687D02*
G01X0007902Y0003526D01*
G01X0007902Y0003526D02*
G01X0007591Y0003335D01*
G01X0007591Y0003335D02*
G01X0007299Y0003117D01*
G01X0007299Y0003117D02*
G01X0007028Y0002874D01*
G01X0007028Y0002874D02*
G01X0006779Y0002607D01*
G01X0006779Y0002607D02*
G01X0006556Y0002319D01*
G01X0010607Y0003399D02*
G01X0010306Y0003452D01*
G01X0010306Y0003452D02*
G01X0010002Y0003479D01*
G01X0010002Y0003479D02*
G01X0009698Y0003479D01*
G01X0009698Y0003479D02*
G01X0009394Y0003452D01*
G01X0009394Y0003452D02*
G01X0009093Y0003399D01*
G01X0010725Y0003932D02*
G01X0010607Y0003399D01*
G01X0009340Y0002292D02*
G01X0009093Y0003399D01*
G01X0009850Y0000000D02*
G01X0008970Y0000508D01*
G01X0006007Y-001208D02*
G01X0006132Y-001550D01*
G01X0006132Y-001550D02*
G01X0006287Y-001880D01*
G01X0006287Y-001880D02*
G01X0006472Y-002194D01*
G01X0006472Y-002194D02*
G01X0006684Y-002490D01*
G01X0006684Y-002490D02*
G01X0006922Y-002766D01*
G01X0006922Y-002766D02*
G01X0007184Y-003020D01*
G01X0007184Y-003020D02*
G01X0007468Y-003248D01*
G01X0007468Y-003248D02*
G01X0007771Y-003450D01*
G01X0007771Y-003450D02*
G01X0008091Y-003624D01*
G01X0008091Y-003624D02*
G01X0008426Y-003768D01*
G01X0008426Y-003768D02*
G01X0008772Y-003881D01*
G01X0008772Y-003881D02*
G01X0009127Y-003963D01*
G01X0009127Y-003963D02*
G01X0009489Y-004012D01*
G01X0006528Y-001044D02*
G01X0006632Y-001331D01*
G01X0006632Y-001331D02*
G01X0006761Y-001607D01*
G01X0006761Y-001607D02*
G01X0006914Y-001871D01*
G01X0006914Y-001871D02*
G01X0007089Y-002121D01*
G01X0007089Y-002121D02*
G01X0007285Y-002355D01*
G01X0006007Y-001208D02*
G01X0006528Y-001044D01*
G01X0008120Y-001588D02*
G01X0007285Y-002355D01*
G01X0009850Y0000000D02*
G01X0009850Y-001016D01*
G01X0012817Y-002724D02*
G01X0013051Y-002445D01*
G01X0013051Y-002445D02*
G01X0013259Y-002145D01*
G01X0013259Y-002145D02*
G01X0013439Y-001828D01*
G01X0013439Y-001828D02*
G01X0013590Y-001497D01*
G01X0013590Y-001497D02*
G01X0013710Y-001153D01*
G01X0013710Y-001153D02*
G01X0013798Y-000799D01*
G01X0013798Y-000799D02*
G01X0013854Y-000439D01*
G01X0013854Y-000439D02*
G01X0013877Y-000075D01*
G01X0013877Y-000075D02*
G01X0013868Y0000289D01*
G01X0013868Y0000289D02*
G01X0013825Y0000651D01*
G01X0013825Y0000651D02*
G01X0013750Y0001007D01*
G01X0013750Y0001007D02*
G01X0013643Y0001356D01*
G01X0013643Y0001356D02*
G01X0013505Y0001693D01*
G01X0012415Y-002355D02*
G01X0012611Y-002121D01*
G01X0012611Y-002121D02*
G01X0012786Y-001871D01*
G01X0012786Y-001871D02*
G01X0012939Y-001607D01*
G01X0012939Y-001607D02*
G01X0013068Y-001331D01*
G01X0013068Y-001331D02*
G01X0013172Y-001044D01*
G01X0012817Y-002724D02*
G01X0012415Y-002355D01*
G01X0012090Y-000704D02*
G01X0013172Y-001044D01*
G01X0009850Y0000000D02*
G01X0010730Y0000508D01*
G01X0000000Y0029550D02*
G54D12*
G01X0000000Y0029550D03*
G54D13*
G01X0002501Y0029550D02*
G01X0002491Y0029768D01*
G01X0002491Y0029768D02*
G01X0002463Y0029984D01*
G01X0002463Y0029984D02*
G01X0002416Y0030197D01*
G01X0002416Y0030197D02*
G01X0002350Y0030405D01*
G01X0002350Y0030405D02*
G01X0002267Y0030607D01*
G01X0002267Y0030607D02*
G01X0002166Y0030800D01*
G01X0002166Y0030800D02*
G01X0002049Y0030984D01*
G01X0002049Y0030984D02*
G01X0001916Y0031158D01*
G01X0001916Y0031158D02*
G01X0001768Y0031318D01*
G01X0001768Y0031318D02*
G01X0001608Y0031466D01*
G01X0001608Y0031466D02*
G01X0001434Y0031599D01*
G01X0001434Y0031599D02*
G01X0001250Y0031716D01*
G01X0001250Y0031716D02*
G01X0001057Y0031817D01*
G01X0001057Y0031817D02*
G01X0000855Y0031900D01*
G01X0000855Y0031900D02*
G01X0000647Y0031966D01*
G01X0000647Y0031966D02*
G01X0000434Y0032013D01*
G01X0000434Y0032013D02*
G01X0000218Y0032041D01*
G01X0000218Y0032041D02*
G01X0000000Y0032051D01*
G01X0000000Y0032051D02*
G01X-000218Y0032041D01*
G01X-000218Y0032041D02*
G01X-000434Y0032013D01*
G01X-000434Y0032013D02*
G01X-000647Y0031966D01*
G01X-000647Y0031966D02*
G01X-000855Y0031900D01*
G01X-000855Y0031900D02*
G01X-001057Y0031817D01*
G01X-001057Y0031817D02*
G01X-001250Y0031716D01*
G01X-001250Y0031716D02*
G01X-001434Y0031599D01*
G01X-001434Y0031599D02*
G01X-001608Y0031466D01*
G01X-001608Y0031466D02*
G01X-001768Y0031318D01*
G01X-001768Y0031318D02*
G01X-001916Y0031158D01*
G01X-001916Y0031158D02*
G01X-002049Y0030984D01*
G01X-002049Y0030984D02*
G01X-002166Y0030800D01*
G01X-002166Y0030800D02*
G01X-002267Y0030607D01*
G01X-002267Y0030607D02*
G01X-002350Y0030405D01*
G01X-002350Y0030405D02*
G01X-002416Y0030197D01*
G01X-002416Y0030197D02*
G01X-002463Y0029984D01*
G01X-002463Y0029984D02*
G01X-002491Y0029768D01*
G01X-002491Y0029768D02*
G01X-002501Y0029550D01*
G01X-002501Y0029550D02*
G01X-002491Y0029332D01*
G01X-002491Y0029332D02*
G01X-002463Y0029116D01*
G01X-002463Y0029116D02*
G01X-002416Y0028903D01*
G01X-002416Y0028903D02*
G01X-002350Y0028695D01*
G01X-002350Y0028695D02*
G01X-002267Y0028493D01*
G01X-002267Y0028493D02*
G01X-002166Y0028300D01*
G01X-002166Y0028300D02*
G01X-002049Y0028116D01*
G01X-002049Y0028116D02*
G01X-001916Y0027942D01*
G01X-001916Y0027942D02*
G01X-001768Y0027782D01*
G01X-001768Y0027782D02*
G01X-001608Y0027634D01*
G01X-001608Y0027634D02*
G01X-001434Y0027501D01*
G01X-001434Y0027501D02*
G01X-001250Y0027384D01*
G01X-001250Y0027384D02*
G01X-001057Y0027283D01*
G01X-001057Y0027283D02*
G01X-000855Y0027200D01*
G01X-000855Y0027200D02*
G01X-000647Y0027134D01*
G01X-000647Y0027134D02*
G01X-000434Y0027087D01*
G01X-000434Y0027087D02*
G01X-000218Y0027059D01*
G01X-000218Y0027059D02*
G01X0000000Y0027049D01*
G01X0000000Y0027049D02*
G01X0000218Y0027059D01*
G01X0000218Y0027059D02*
G01X0000434Y0027087D01*
G01X0000434Y0027087D02*
G01X0000647Y0027134D01*
G01X0000647Y0027134D02*
G01X0000855Y0027200D01*
G01X0000855Y0027200D02*
G01X0001057Y0027283D01*
G01X0001057Y0027283D02*
G01X0001250Y0027384D01*
G01X0001250Y0027384D02*
G01X0001434Y0027501D01*
G01X0001434Y0027501D02*
G01X0001608Y0027634D01*
G01X0001608Y0027634D02*
G01X0001768Y0027782D01*
G01X0001768Y0027782D02*
G01X0001916Y0027942D01*
G01X0001916Y0027942D02*
G01X0002049Y0028116D01*
G01X0002049Y0028116D02*
G01X0002166Y0028300D01*
G01X0002166Y0028300D02*
G01X0002267Y0028493D01*
G01X0002267Y0028493D02*
G01X0002350Y0028695D01*
G01X0002350Y0028695D02*
G01X0002416Y0028903D01*
G01X0002416Y0028903D02*
G01X0002463Y0029116D01*
G01X0002463Y0029116D02*
G01X0002491Y0029332D01*
G01X0002491Y0029332D02*
G01X0002501Y0029550D01*
G54D11*
G01X-000875Y0033482D02*
G01X-000516Y0033545D01*
G01X-000516Y0033545D02*
G01X-000153Y0033575D01*
G01X-000153Y0033575D02*
G01X0000211Y0033573D01*
G01X0000211Y0033573D02*
G01X0000574Y0033537D01*
G01X0000574Y0033537D02*
G01X0000932Y0033469D01*
G01X0000932Y0033469D02*
G01X0001282Y0033369D01*
G01X0001282Y0033369D02*
G01X0001622Y0033237D01*
G01X0001622Y0033237D02*
G01X0001948Y0033076D01*
G01X0001948Y0033076D02*
G01X0002259Y0032885D01*
G01X0002259Y0032885D02*
G01X0002551Y0032667D01*
G01X0002551Y0032667D02*
G01X0002822Y0032424D01*
G01X0002822Y0032424D02*
G01X0003071Y0032157D01*
G01X0003071Y0032157D02*
G01X0003294Y0031869D01*
G01X-000757Y0032949D02*
G01X-000456Y0033002D01*
G01X-000456Y0033002D02*
G01X-000152Y0033029D01*
G01X-000152Y0033029D02*
G01X0000152Y0033029D01*
G01X0000152Y0033029D02*
G01X0000456Y0033002D01*
G01X0000456Y0033002D02*
G01X0000757Y0032949D01*
G01X-000875Y0033482D02*
G01X-000757Y0032949D01*
G01X0000681Y0032608D02*
G01X0000757Y0032949D01*
G01X0000000Y0029550D02*
G01X-001618Y0030484D01*
G01X-002967Y0026826D02*
G01X-003201Y0027105D01*
G01X-003201Y0027105D02*
G01X-003409Y0027405D01*
G01X-003409Y0027405D02*
G01X-003589Y0027722D01*
G01X-003589Y0027722D02*
G01X-003740Y0028053D01*
G01X-003740Y0028053D02*
G01X-003860Y0028397D01*
G01X-003860Y0028397D02*
G01X-003948Y0028751D01*
G01X-003948Y0028751D02*
G01X-004004Y0029111D01*
G01X-004004Y0029111D02*
G01X-004027Y0029475D01*
G01X-004027Y0029475D02*
G01X-004018Y0029839D01*
G01X-004018Y0029839D02*
G01X-003975Y0030201D01*
G01X-003975Y0030201D02*
G01X-003900Y0030557D01*
G01X-003900Y0030557D02*
G01X-003793Y0030906D01*
G01X-003793Y0030906D02*
G01X-003655Y0031243D01*
G01X-002565Y0027195D02*
G01X-002761Y0027429D01*
G01X-002761Y0027429D02*
G01X-002936Y0027679D01*
G01X-002936Y0027679D02*
G01X-003089Y0027943D01*
G01X-003089Y0027943D02*
G01X-003218Y0028219D01*
G01X-003218Y0028219D02*
G01X-003322Y0028506D01*
G01X-002967Y0026826D02*
G01X-002565Y0027195D01*
G01X-002989Y0028611D02*
G01X-003322Y0028506D01*
G01X0000000Y0029550D02*
G01X0000000Y0027681D01*
G01X0003843Y0028342D02*
G01X0003718Y0028000D01*
G01X0003718Y0028000D02*
G01X0003563Y0027670D01*
G01X0003563Y0027670D02*
G01X0003378Y0027356D01*
G01X0003378Y0027356D02*
G01X0003166Y0027060D01*
G01X0003166Y0027060D02*
G01X0002928Y0026784D01*
G01X0002928Y0026784D02*
G01X0002666Y0026530D01*
G01X0002666Y0026530D02*
G01X0002382Y0026302D01*
G01X0002382Y0026302D02*
G01X0002079Y0026100D01*
G01X0002079Y0026100D02*
G01X0001759Y0025926D01*
G01X0001759Y0025926D02*
G01X0001424Y0025782D01*
G01X0001424Y0025782D02*
G01X0001078Y0025669D01*
G01X0001078Y0025669D02*
G01X0000723Y0025587D01*
G01X0000723Y0025587D02*
G01X0000361Y0025538D01*
G01X0003322Y0028506D02*
G01X0003218Y0028219D01*
G01X0003218Y0028219D02*
G01X0003089Y0027943D01*
G01X0003089Y0027943D02*
G01X0002936Y0027679D01*
G01X0002936Y0027679D02*
G01X0002761Y0027429D01*
G01X0002761Y0027429D02*
G01X0002565Y0027195D01*
G01X0003843Y0028342D02*
G01X0003322Y0028506D01*
G01X0002308Y0027431D02*
G01X0002565Y0027195D01*
G01X0000000Y0029550D02*
G01X0001618Y0030484D01*
G01X0000000Y0019700D02*
G54D12*
G01X0000000Y0019700D03*
G54D13*
G01X0002501Y0019700D02*
G01X0002491Y0019918D01*
G01X0002491Y0019918D02*
G01X0002463Y0020134D01*
G01X0002463Y0020134D02*
G01X0002416Y0020347D01*
G01X0002416Y0020347D02*
G01X0002350Y0020555D01*
G01X0002350Y0020555D02*
G01X0002267Y0020757D01*
G01X0002267Y0020757D02*
G01X0002166Y0020950D01*
G01X0002166Y0020950D02*
G01X0002049Y0021134D01*
G01X0002049Y0021134D02*
G01X0001916Y0021308D01*
G01X0001916Y0021308D02*
G01X0001768Y0021468D01*
G01X0001768Y0021468D02*
G01X0001608Y0021616D01*
G01X0001608Y0021616D02*
G01X0001434Y0021749D01*
G01X0001434Y0021749D02*
G01X0001250Y0021866D01*
G01X0001250Y0021866D02*
G01X0001057Y0021967D01*
G01X0001057Y0021967D02*
G01X0000855Y0022050D01*
G01X0000855Y0022050D02*
G01X0000647Y0022116D01*
G01X0000647Y0022116D02*
G01X0000434Y0022163D01*
G01X0000434Y0022163D02*
G01X0000218Y0022191D01*
G01X0000218Y0022191D02*
G01X0000000Y0022201D01*
G01X0000000Y0022201D02*
G01X-000218Y0022191D01*
G01X-000218Y0022191D02*
G01X-000434Y0022163D01*
G01X-000434Y0022163D02*
G01X-000647Y0022116D01*
G01X-000647Y0022116D02*
G01X-000855Y0022050D01*
G01X-000855Y0022050D02*
G01X-001057Y0021967D01*
G01X-001057Y0021967D02*
G01X-001250Y0021866D01*
G01X-001250Y0021866D02*
G01X-001434Y0021749D01*
G01X-001434Y0021749D02*
G01X-001608Y0021616D01*
G01X-001608Y0021616D02*
G01X-001768Y0021468D01*
G01X-001768Y0021468D02*
G01X-001916Y0021308D01*
G01X-001916Y0021308D02*
G01X-002049Y0021134D01*
G01X-002049Y0021134D02*
G01X-002166Y0020950D01*
G01X-002166Y0020950D02*
G01X-002267Y0020757D01*
G01X-002267Y0020757D02*
G01X-002350Y0020555D01*
G01X-002350Y0020555D02*
G01X-002416Y0020347D01*
G01X-002416Y0020347D02*
G01X-002463Y0020134D01*
G01X-002463Y0020134D02*
G01X-002491Y0019918D01*
G01X-002491Y0019918D02*
G01X-002501Y0019700D01*
G01X-002501Y0019700D02*
G01X-002491Y0019482D01*
G01X-002491Y0019482D02*
G01X-002463Y0019266D01*
G01X-002463Y0019266D02*
G01X-002416Y0019053D01*
G01X-002416Y0019053D02*
G01X-002350Y0018845D01*
G01X-002350Y0018845D02*
G01X-002267Y0018643D01*
G01X-002267Y0018643D02*
G01X-002166Y0018450D01*
G01X-002166Y0018450D02*
G01X-002049Y0018266D01*
G01X-002049Y0018266D02*
G01X-001916Y0018092D01*
G01X-001916Y0018092D02*
G01X-001768Y0017932D01*
G01X-001768Y0017932D02*
G01X-001608Y0017784D01*
G01X-001608Y0017784D02*
G01X-001434Y0017651D01*
G01X-001434Y0017651D02*
G01X-001250Y0017534D01*
G01X-001250Y0017534D02*
G01X-001057Y0017433D01*
G01X-001057Y0017433D02*
G01X-000855Y0017350D01*
G01X-000855Y0017350D02*
G01X-000647Y0017284D01*
G01X-000647Y0017284D02*
G01X-000434Y0017237D01*
G01X-000434Y0017237D02*
G01X-000218Y0017209D01*
G01X-000218Y0017209D02*
G01X0000000Y0017199D01*
G01X0000000Y0017199D02*
G01X0000218Y0017209D01*
G01X0000218Y0017209D02*
G01X0000434Y0017237D01*
G01X0000434Y0017237D02*
G01X0000647Y0017284D01*
G01X0000647Y0017284D02*
G01X0000855Y0017350D01*
G01X0000855Y0017350D02*
G01X0001057Y0017433D01*
G01X0001057Y0017433D02*
G01X0001250Y0017534D01*
G01X0001250Y0017534D02*
G01X0001434Y0017651D01*
G01X0001434Y0017651D02*
G01X0001608Y0017784D01*
G01X0001608Y0017784D02*
G01X0001768Y0017932D01*
G01X0001768Y0017932D02*
G01X0001916Y0018092D01*
G01X0001916Y0018092D02*
G01X0002049Y0018266D01*
G01X0002049Y0018266D02*
G01X0002166Y0018450D01*
G01X0002166Y0018450D02*
G01X0002267Y0018643D01*
G01X0002267Y0018643D02*
G01X0002350Y0018845D01*
G01X0002350Y0018845D02*
G01X0002416Y0019053D01*
G01X0002416Y0019053D02*
G01X0002463Y0019266D01*
G01X0002463Y0019266D02*
G01X0002491Y0019482D01*
G01X0002491Y0019482D02*
G01X0002501Y0019700D01*
G54D11*
G01X-000875Y0023632D02*
G01X-000516Y0023695D01*
G01X-000516Y0023695D02*
G01X-000153Y0023725D01*
G01X-000153Y0023725D02*
G01X0000211Y0023723D01*
G01X0000211Y0023723D02*
G01X0000574Y0023687D01*
G01X0000574Y0023687D02*
G01X0000932Y0023619D01*
G01X0000932Y0023619D02*
G01X0001282Y0023519D01*
G01X0001282Y0023519D02*
G01X0001622Y0023387D01*
G01X0001622Y0023387D02*
G01X0001948Y0023226D01*
G01X0001948Y0023226D02*
G01X0002259Y0023035D01*
G01X0002259Y0023035D02*
G01X0002551Y0022817D01*
G01X0002551Y0022817D02*
G01X0002822Y0022574D01*
G01X0002822Y0022574D02*
G01X0003071Y0022307D01*
G01X0003071Y0022307D02*
G01X0003294Y0022019D01*
G01X-000757Y0023099D02*
G01X-000456Y0023152D01*
G01X-000456Y0023152D02*
G01X-000152Y0023179D01*
G01X-000152Y0023179D02*
G01X0000152Y0023179D01*
G01X0000152Y0023179D02*
G01X0000456Y0023152D01*
G01X0000456Y0023152D02*
G01X0000757Y0023099D01*
G01X-000875Y0023632D02*
G01X-000757Y0023099D01*
G01X0000681Y0022758D02*
G01X0000757Y0023099D01*
G01X0000000Y0019700D02*
G01X-001618Y0020634D01*
G01X-002967Y0016976D02*
G01X-003201Y0017255D01*
G01X-003201Y0017255D02*
G01X-003409Y0017555D01*
G01X-003409Y0017555D02*
G01X-003589Y0017872D01*
G01X-003589Y0017872D02*
G01X-003740Y0018203D01*
G01X-003740Y0018203D02*
G01X-003860Y0018547D01*
G01X-003860Y0018547D02*
G01X-003948Y0018901D01*
G01X-003948Y0018901D02*
G01X-004004Y0019261D01*
G01X-004004Y0019261D02*
G01X-004027Y0019625D01*
G01X-004027Y0019625D02*
G01X-004018Y0019989D01*
G01X-004018Y0019989D02*
G01X-003975Y0020351D01*
G01X-003975Y0020351D02*
G01X-003900Y0020707D01*
G01X-003900Y0020707D02*
G01X-003793Y0021056D01*
G01X-003793Y0021056D02*
G01X-003655Y0021393D01*
G01X-002565Y0017345D02*
G01X-002761Y0017579D01*
G01X-002761Y0017579D02*
G01X-002936Y0017829D01*
G01X-002936Y0017829D02*
G01X-003089Y0018093D01*
G01X-003089Y0018093D02*
G01X-003218Y0018369D01*
G01X-003218Y0018369D02*
G01X-003322Y0018656D01*
G01X-002967Y0016976D02*
G01X-002565Y0017345D01*
G01X-002989Y0018761D02*
G01X-003322Y0018656D01*
G01X0000000Y0019700D02*
G01X0000000Y0017831D01*
G01X0003843Y0018492D02*
G01X0003718Y0018150D01*
G01X0003718Y0018150D02*
G01X0003563Y0017820D01*
G01X0003563Y0017820D02*
G01X0003378Y0017506D01*
G01X0003378Y0017506D02*
G01X0003166Y0017210D01*
G01X0003166Y0017210D02*
G01X0002928Y0016934D01*
G01X0002928Y0016934D02*
G01X0002666Y0016680D01*
G01X0002666Y0016680D02*
G01X0002382Y0016452D01*
G01X0002382Y0016452D02*
G01X0002079Y0016250D01*
G01X0002079Y0016250D02*
G01X0001759Y0016076D01*
G01X0001759Y0016076D02*
G01X0001424Y0015932D01*
G01X0001424Y0015932D02*
G01X0001078Y0015819D01*
G01X0001078Y0015819D02*
G01X0000723Y0015737D01*
G01X0000723Y0015737D02*
G01X0000361Y0015688D01*
G01X0003322Y0018656D02*
G01X0003218Y0018369D01*
G01X0003218Y0018369D02*
G01X0003089Y0018093D01*
G01X0003089Y0018093D02*
G01X0002936Y0017829D01*
G01X0002936Y0017829D02*
G01X0002761Y0017579D01*
G01X0002761Y0017579D02*
G01X0002565Y0017345D01*
G01X0003843Y0018492D02*
G01X0003322Y0018656D01*
G01X0002308Y0017581D02*
G01X0002565Y0017345D01*
G01X0000000Y0019700D02*
G01X0001618Y0020634D01*
G01X0000000Y0009850D02*
G36*
G01X0000417Y0009850D02*
G01X0000416Y0009886D01*
G01X0000411Y0009922D01*
G01X0000403Y0009958D01*
G01X0000392Y0009993D01*
G01X0000378Y0010026D01*
G01X0000361Y0010059D01*
G01X0000342Y0010089D01*
G01X0000320Y0010118D01*
G01X0000295Y0010145D01*
G01X0000268Y0010170D01*
G01X0000239Y0010192D01*
G01X0000209Y0010211D01*
G01X0000176Y0010228D01*
G01X0000143Y0010242D01*
G01X0000108Y0010253D01*
G01X0000072Y0010261D01*
G01X0000036Y0010266D01*
G01X0000000Y0010267D01*
G01X-000036Y0010266D01*
G01X-000072Y0010261D01*
G01X-000108Y0010253D01*
G01X-000143Y0010242D01*
G01X-000176Y0010228D01*
G01X-000209Y0010211D01*
G01X-000239Y0010192D01*
G01X-000268Y0010170D01*
G01X-000295Y0010145D01*
G01X-000320Y0010118D01*
G01X-000342Y0010089D01*
G01X-000361Y0010059D01*
G01X-000378Y0010026D01*
G01X-000392Y0009993D01*
G01X-000403Y0009958D01*
G01X-000411Y0009922D01*
G01X-000416Y0009886D01*
G01X-000417Y0009850D01*
G01X-000416Y0009814D01*
G01X-000411Y0009778D01*
G01X-000403Y0009742D01*
G01X-000392Y0009707D01*
G01X-000378Y0009674D01*
G01X-000361Y0009641D01*
G01X-000342Y0009611D01*
G01X-000320Y0009582D01*
G01X-000295Y0009555D01*
G01X-000268Y0009530D01*
G01X-000239Y0009508D01*
G01X-000209Y0009489D01*
G01X-000176Y0009472D01*
G01X-000143Y0009458D01*
G01X-000108Y0009447D01*
G01X-000072Y0009439D01*
G01X-000036Y0009434D01*
G01X0000000Y0009433D01*
G01X0000036Y0009434D01*
G01X0000072Y0009439D01*
G01X0000108Y0009447D01*
G01X0000143Y0009458D01*
G01X0000176Y0009472D01*
G01X0000209Y0009489D01*
G01X0000239Y0009508D01*
G01X0000268Y0009530D01*
G01X0000295Y0009555D01*
G01X0000320Y0009582D01*
G01X0000342Y0009611D01*
G01X0000361Y0009641D01*
G01X0000378Y0009674D01*
G01X0000392Y0009707D01*
G01X0000403Y0009742D01*
G01X0000411Y0009778D01*
G01X0000416Y0009814D01*
G01X0000417Y0009850D01*
G37*
G36*
G01X0000417Y0009850D02*
G37*
G54D10*
G01X0001682Y0009850D02*
G01X0001676Y0009997D01*
G01X0001676Y0009997D02*
G01X0001657Y0010142D01*
G01X0001657Y0010142D02*
G01X0001625Y0010285D01*
G01X0001625Y0010285D02*
G01X0001581Y0010425D01*
G01X0001581Y0010425D02*
G01X0001525Y0010561D01*
G01X0001525Y0010561D02*
G01X0001457Y0010691D01*
G01X0001457Y0010691D02*
G01X0001378Y0010815D01*
G01X0001378Y0010815D02*
G01X0001289Y0010931D01*
G01X0001289Y0010931D02*
G01X0001190Y0011040D01*
G01X0001190Y0011040D02*
G01X0001081Y0011139D01*
G01X0001081Y0011139D02*
G01X0000965Y0011228D01*
G01X0000965Y0011228D02*
G01X0000841Y0011307D01*
G01X0000841Y0011307D02*
G01X0000711Y0011375D01*
G01X0000711Y0011375D02*
G01X0000575Y0011431D01*
G01X0000575Y0011431D02*
G01X0000435Y0011475D01*
G01X0000435Y0011475D02*
G01X0000292Y0011507D01*
G01X0000292Y0011507D02*
G01X0000147Y0011526D01*
G01X0000147Y0011526D02*
G01X0000000Y0011532D01*
G01X0000000Y0011532D02*
G01X-000147Y0011526D01*
G01X-000147Y0011526D02*
G01X-000292Y0011507D01*
G01X-000292Y0011507D02*
G01X-000435Y0011475D01*
G01X-000435Y0011475D02*
G01X-000575Y0011431D01*
G01X-000575Y0011431D02*
G01X-000711Y0011375D01*
G01X-000711Y0011375D02*
G01X-000841Y0011307D01*
G01X-000841Y0011307D02*
G01X-000965Y0011228D01*
G01X-000965Y0011228D02*
G01X-001081Y0011139D01*
G01X-001081Y0011139D02*
G01X-001190Y0011040D01*
G01X-001190Y0011040D02*
G01X-001289Y0010931D01*
G01X-001289Y0010931D02*
G01X-001378Y0010815D01*
G01X-001378Y0010815D02*
G01X-001457Y0010691D01*
G01X-001457Y0010691D02*
G01X-001525Y0010561D01*
G01X-001525Y0010561D02*
G01X-001581Y0010425D01*
G01X-001581Y0010425D02*
G01X-001625Y0010285D01*
G01X-001625Y0010285D02*
G01X-001657Y0010142D01*
G01X-001657Y0010142D02*
G01X-001676Y0009997D01*
G01X-001676Y0009997D02*
G01X-001682Y0009850D01*
G01X-001682Y0009850D02*
G01X-001676Y0009703D01*
G01X-001676Y0009703D02*
G01X-001657Y0009558D01*
G01X-001657Y0009558D02*
G01X-001625Y0009415D01*
G01X-001625Y0009415D02*
G01X-001581Y0009275D01*
G01X-001581Y0009275D02*
G01X-001525Y0009139D01*
G01X-001525Y0009139D02*
G01X-001457Y0009009D01*
G01X-001457Y0009009D02*
G01X-001378Y0008885D01*
G01X-001378Y0008885D02*
G01X-001289Y0008769D01*
G01X-001289Y0008769D02*
G01X-001190Y0008660D01*
G01X-001190Y0008660D02*
G01X-001081Y0008561D01*
G01X-001081Y0008561D02*
G01X-000965Y0008472D01*
G01X-000965Y0008472D02*
G01X-000841Y0008393D01*
G01X-000841Y0008393D02*
G01X-000711Y0008325D01*
G01X-000711Y0008325D02*
G01X-000575Y0008269D01*
G01X-000575Y0008269D02*
G01X-000435Y0008225D01*
G01X-000435Y0008225D02*
G01X-000292Y0008193D01*
G01X-000292Y0008193D02*
G01X-000147Y0008174D01*
G01X-000147Y0008174D02*
G01X0000000Y0008168D01*
G01X0000000Y0008168D02*
G01X0000147Y0008174D01*
G01X0000147Y0008174D02*
G01X0000292Y0008193D01*
G01X0000292Y0008193D02*
G01X0000435Y0008225D01*
G01X0000435Y0008225D02*
G01X0000575Y0008269D01*
G01X0000575Y0008269D02*
G01X0000711Y0008325D01*
G01X0000711Y0008325D02*
G01X0000841Y0008393D01*
G01X0000841Y0008393D02*
G01X0000965Y0008472D01*
G01X0000965Y0008472D02*
G01X0001081Y0008561D01*
G01X0001081Y0008561D02*
G01X0001190Y0008660D01*
G01X0001190Y0008660D02*
G01X0001289Y0008769D01*
G01X0001289Y0008769D02*
G01X0001378Y0008885D01*
G01X0001378Y0008885D02*
G01X0001457Y0009009D01*
G01X0001457Y0009009D02*
G01X0001525Y0009139D01*
G01X0001525Y0009139D02*
G01X0001581Y0009275D01*
G01X0001581Y0009275D02*
G01X0001625Y0009415D01*
G01X0001625Y0009415D02*
G01X0001657Y0009558D01*
G01X0001657Y0009558D02*
G01X0001676Y0009703D01*
G01X0001676Y0009703D02*
G01X0001682Y0009850D01*
G54D11*
G01X0000875Y0013782D02*
G01X0000516Y0013845D01*
G01X0000516Y0013845D02*
G01X0000153Y0013875D01*
G01X0000153Y0013875D02*
G01X-000211Y0013873D01*
G01X-000211Y0013873D02*
G01X-000574Y0013837D01*
G01X-000574Y0013837D02*
G01X-000932Y0013769D01*
G01X-000932Y0013769D02*
G01X-001282Y0013669D01*
G01X-001282Y0013669D02*
G01X-001622Y0013537D01*
G01X-001622Y0013537D02*
G01X-001948Y0013376D01*
G01X-001948Y0013376D02*
G01X-002259Y0013185D01*
G01X-002259Y0013185D02*
G01X-002551Y0012967D01*
G01X-002551Y0012967D02*
G01X-002822Y0012724D01*
G01X-002822Y0012724D02*
G01X-003071Y0012457D01*
G01X-003071Y0012457D02*
G01X-003294Y0012169D01*
G01X0000757Y0013249D02*
G01X0000456Y0013302D01*
G01X0000456Y0013302D02*
G01X0000152Y0013329D01*
G01X0000152Y0013329D02*
G01X-000152Y0013329D01*
G01X-000152Y0013329D02*
G01X-000456Y0013302D01*
G01X-000456Y0013302D02*
G01X-000757Y0013249D01*
G01X0000875Y0013782D02*
G01X0000757Y0013249D01*
G01X-000510Y0012142D02*
G01X-000757Y0013249D01*
G01X0000000Y0009850D02*
G01X-000880Y0010358D01*
G01X-003843Y0008642D02*
G01X-003718Y0008300D01*
G01X-003718Y0008300D02*
G01X-003563Y0007970D01*
G01X-003563Y0007970D02*
G01X-003378Y0007656D01*
G01X-003378Y0007656D02*
G01X-003166Y0007360D01*
G01X-003166Y0007360D02*
G01X-002928Y0007084D01*
G01X-002928Y0007084D02*
G01X-002666Y0006830D01*
G01X-002666Y0006830D02*
G01X-002382Y0006602D01*
G01X-002382Y0006602D02*
G01X-002079Y0006400D01*
G01X-002079Y0006400D02*
G01X-001759Y0006226D01*
G01X-001759Y0006226D02*
G01X-001424Y0006082D01*
G01X-001424Y0006082D02*
G01X-001078Y0005969D01*
G01X-001078Y0005969D02*
G01X-000723Y0005887D01*
G01X-000723Y0005887D02*
G01X-000361Y0005838D01*
G01X-003322Y0008806D02*
G01X-003218Y0008519D01*
G01X-003218Y0008519D02*
G01X-003089Y0008243D01*
G01X-003089Y0008243D02*
G01X-002936Y0007979D01*
G01X-002936Y0007979D02*
G01X-002761Y0007729D01*
G01X-002761Y0007729D02*
G01X-002565Y0007495D01*
G01X-003843Y0008642D02*
G01X-003322Y0008806D01*
G01X-001730Y0008262D02*
G01X-002565Y0007495D01*
G01X0000000Y0009850D02*
G01X0000000Y0008834D01*
G01X0002967Y0007126D02*
G01X0003201Y0007405D01*
G01X0003201Y0007405D02*
G01X0003409Y0007705D01*
G01X0003409Y0007705D02*
G01X0003589Y0008022D01*
G01X0003589Y0008022D02*
G01X0003740Y0008353D01*
G01X0003740Y0008353D02*
G01X0003860Y0008697D01*
G01X0003860Y0008697D02*
G01X0003948Y0009051D01*
G01X0003948Y0009051D02*
G01X0004004Y0009411D01*
G01X0004004Y0009411D02*
G01X0004027Y0009775D01*
G01X0004027Y0009775D02*
G01X0004018Y0010139D01*
G01X0004018Y0010139D02*
G01X0003975Y0010501D01*
G01X0003975Y0010501D02*
G01X0003900Y0010857D01*
G01X0003900Y0010857D02*
G01X0003793Y0011206D01*
G01X0003793Y0011206D02*
G01X0003655Y0011543D01*
G01X0002565Y0007495D02*
G01X0002761Y0007729D01*
G01X0002761Y0007729D02*
G01X0002936Y0007979D01*
G01X0002936Y0007979D02*
G01X0003089Y0008243D01*
G01X0003089Y0008243D02*
G01X0003218Y0008519D01*
G01X0003218Y0008519D02*
G01X0003322Y0008806D01*
G01X0002967Y0007126D02*
G01X0002565Y0007495D01*
G01X0002240Y0009146D02*
G01X0003322Y0008806D01*
G01X0000000Y0009850D02*
G01X0000880Y0010358D01*
M02*
